<?xml version="1.0" encoding="UTF-8"?>
<svg xmlns="http://www.w3.org/2000/svg" xmlns:xlink="http://www.w3.org/1999/xlink" version="1.2" >
<font id="ISOBook Calligraphy Regular">
<font-face  font-family="ISOBook Calligraphy" units-per-em="1000" ascent="750" descent="-250" font-style="normal" font-weight="400" font-stretch="normal" cap-height="956" x-height="611" underline-position="-75" underline-thickness="50" />
<missing-glyph  horiz-adv-x="322" d="" />
<glyph glyph-name="NULL" d="" />
<glyph glyph-name="CR" unicode="&#xd;" horiz-adv-x="322" d="" />
<glyph glyph-name="space" unicode="&#x20;" horiz-adv-x="322" d="" />
<glyph glyph-name="exclam" unicode="&#x21;" horiz-adv-x="317" d="M90 99 C89 67 103 42 138 41 C175 40 188 70 191 105 C192 129 171 157 144 157 C109 160 91 135 90 99 L90 99 Z M120 268 C125 265 136 262 145 262 C174 262 179 273 187 349 L207 531 C215 587 218 633 229 726 C237 811 239 820 231 836 L228 845 L228 844 C221 863 214 883 182 883 C163 883 149 881 137 873 L138 873 C110 858 106 831 101 622 C100 558 99 506 99 461 C99 333 106 279 119 268 L120 268 Z " />
<glyph glyph-name="quotedbl" unicode="&#x22;" horiz-adv-x="295" d="M163 878 C163 824 206 791 231 774 C247 763 253 779 242 790 C226 802 203 819 199 840 L206 837 C206 836 206 836 207 836 L209 836 C213 835 216 835 219 835 C248 835 261 868 261 885 C261 903 249 939 206 939 C169 939 163 902 163 878 L163 878 Z M32 878 C32 824 75 791 100 774 C113 763 123 779 110 790 C95 802 72 819 68 840 L75 837 C75 836 75 836 76 836 L78 836 C82 835 85 835 88 835 C116 835 130 868 130 885 C130 903 115 939 75 939 C38 939 32 902 32 878 L32 878 Z " />
<glyph glyph-name="numbersign" unicode="&#x23;" horiz-adv-x="451" d="M236 514 C205 514 201 510 201 384 L180 384 C177 503 171 514 142 514 C112 514 108 510 108 384 C29 381 24 379 24 368 C24 356 28 354 107 354 L107 329 C32 329 24 325 24 315 C24 303 26 301 107 301 C107 170 111 167 141 167 C172 167 176 173 179 301 L201 301 C201 170 204 167 235 167 C267 167 269 173 272 301 C355 301 360 303 360 315 C360 325 352 329 272 329 L272 335 C272 339 273 343 273 347 L273 354 C356 354 360 356 360 368 C360 379 351 380 273 383 C270 503 266 514 236 514 L236 514 Z M201 354 L201 330 L179 330 L179 335 C179 339 180 343 180 347 L180 354 L201 354 Z " />
<glyph glyph-name="dollar" unicode="&#x24;" horiz-adv-x="633" d="M340 1163 C333 1231 328 1227 325 1170 L311 1167 C304 1164 300 1074 297 933 C229 906 174 849 147 762 C142 741 140 720 140 699 C140 597 197 503 256 409 L291 355 L291 268 C290 97 289 -50 289 -169 C255 -192 222 -204 190 -204 C100 -204 30 -109 30 1 C30 78 70 166 158 166 C189 166 199 158 216 127 L242 141 C231 148 233 148 230 151 C222 166 203 191 159 191 C59 191 3 95 3 4 C3 -156 100 -254 257 -254 C268 -254 278 -254 289 -253 L289 -363 L317 -364 C320 -359 321 -316 321 -249 C426 -234 493 -171 528 -88 C547 -39 555 13 555 61 C555 215 470 363 387 504 L387 503 L331 599 L326 608 C326 676 328 738 328 806 C359 850 415 878 488 875 C541 875 551 814 551 772 C551 747 543 720 532 701 C517 679 499 668 478 668 C455 668 431 682 406 705 C403 702 401 700 400 700 L392 691 C419 664 450 647 479 647 C505 647 529 662 551 691 C563 710 571 733 575 773 C573 885 516 943 403 948 C378 949 354 948 329 943 C332 1044 331 1126 334 1162 L340 1163 Z M384 13 C373 -43 355 -97 322 -137 C322 15 324 147 324 298 C360 230 389 158 389 75 C389 55 388 36 384 13 L384 13 Z " />
<glyph glyph-name="percent" unicode="&#x25;" horiz-adv-x="643" d="M131 670 C89 670 40 633 40 553 C40 473 80 434 131 434 C143 434 154 438 165 447 C178 457 188 471 193 490 C198 509 201 530 201 552 C201 578 197 620 176 647 C165 659 151 670 131 670 L131 670 Z M510 390 C468 390 418 353 418 273 C418 193 459 154 510 154 C522 154 533 158 543 167 C556 177 565 191 572 210 C577 229 580 250 580 272 C580 299 577 340 554 367 C543 379 530 390 510 390 L510 390 Z M455 806 C463 857 456 857 441 818 L426 821 C410 821 203 76 192 19 L220 10 C231 18 280 208 331 387 L340 425 C383 583 427 746 448 806 L455 806 Z M514 168 C495 168 471 192 471 271 C471 351 494 377 513 377 C530 377 566 356 566 273 C566 218 549 188 533 175 C525 170 519 168 514 168 L514 168 Z M135 448 C116 448 93 472 93 551 C93 631 115 657 134 657 C151 657 188 636 188 553 C188 498 171 468 154 455 C146 450 140 448 135 448 L135 448 Z " />
<glyph glyph-name="ampersand" unicode="&#x26;" horiz-adv-x="747" d="M561 557 C537 554 509 539 486 520 L497 500 C522 523 545 535 565 535 C608 535 629 508 629 477 C629 459 623 443 611 428 C588 399 551 374 519 354 L484 333 C437 306 396 281 371 250 C356 233 352 215 352 195 C352 139 387 104 436 104 C463 104 489 119 512 142 L501 155 C500 154 499 154 499 156 C476 139 455 125 436 125 C390 125 369 169 377 205 C385 248 424 269 489 308 L521 328 C548 292 557 249 557 205 C557 137 528 63 492 18 C460 -17 426 -35 390 -35 C355 -35 320 -17 292 23 C244 89 222 192 222 253 C222 369 287 472 395 525 L393 533 C381 533 354 528 343 528 C268 528 232 595 232 662 C232 746 324 872 421 872 C464 872 475 829 475 794 C472 746 446 723 414 723 C396 723 376 731 355 746 L342 728 C370 707 396 700 419 701 C460 702 492 736 497 793 C497 872 437 928 359 928 C227 928 116 793 116 676 C116 589 187 517 271 506 C142 458 72 321 72 188 C72 66 144 -53 283 -77 C300 -80 317 -82 334 -82 C402 -82 467 -55 510 -2 C555 54 581 129 581 204 C581 253 569 303 541 340 L557 350 C592 374 642 414 650 457 C655 505 626 558 565 558 L561 557 Z " />
<glyph glyph-name="quotesingle" unicode="&#x27;" horiz-adv-x="182" d="M31 878 C31 824 74 791 99 774 C114 764 123 779 110 790 C94 802 72 819 68 840 L75 837 C76 836 76 836 77 836 C81 835 84 835 87 835 C116 835 130 868 130 885 C130 903 115 939 75 939 C37 939 31 902 31 878 L31 878 Z " />
<glyph glyph-name="parenleft" unicode="&#x28;" horiz-adv-x="335" d="M308 914 C65 886 -1 548 -1 358 C-1 27 151 -130 302 -138 L304 -115 C229 -102 171 -38 139 35 C109 105 95 182 95 355 C95 484 113 600 142 696 C174 799 221 874 311 890 L308 914 Z " />
<glyph glyph-name="parenright" unicode="&#x29;" horiz-adv-x="335" d="M-2 890 C89 874 136 799 168 696 C197 600 215 484 215 355 C215 182 201 105 171 35 C139 -38 81 -102 6 -115 L8 -138 C159 -130 311 27 311 358 C311 548 245 886 1 914 L-2 890 Z " />
<glyph glyph-name="asterisk" unicode="&#x2a;" horiz-adv-x="353" d="M45 450 C45 443 50 437 54 437 L147 437 L63 322 C59 315 57 306 61 301 C66 295 71 295 76 302 L156 413 L206 336 C218 313 231 298 248 298 C253 298 258 299 263 302 C272 307 277 314 277 323 C277 334 271 348 262 363 L216 438 L297 438 C301 438 304 443 304 450 C304 455 302 463 297 463 L194 463 L277 577 C282 582 282 588 277 594 C272 599 267 599 263 593 L185 487 L177 500 L137 566 C124 585 112 597 95 597 C92 597 87 596 80 593 C73 590 67 581 67 574 C67 569 68 564 71 559 C88 528 108 492 127 463 L52 463 C49 463 45 457 45 450 L45 450 Z " />
<glyph glyph-name="plus" unicode="&#x2b;" horiz-adv-x="422" d="M89 386 L84 378 L84 379 C74 369 73 361 80 355 C83 346 95 347 157 347 C157 234 158 233 191 233 C225 233 224 239 229 346 C289 346 290 351 290 366 C290 379 284 385 229 385 L229 456 L213 464 C190 475 183 474 172 467 C159 462 157 452 157 386 L89 386 Z " />
<glyph glyph-name="comma" unicode="&#x2c;" horiz-adv-x="241" d="M126 83 C126 107 120 143 82 143 C42 143 27 107 27 90 C27 72 41 39 70 39 C73 39 76 39 79 40 C80 40 81 41 82 41 L89 44 C85 24 63 6 47 -6 C34 -17 43 -32 58 -22 C81 -7 126 30 126 83 L126 83 Z " />
<glyph glyph-name="hyphen" unicode="&#x2d;" horiz-adv-x="418" d="M185 347 C292 347 290 347 290 366 C290 385 284 386 184 386 L89 386 L84 378 L84 379 C72 366 73 361 82 354 C87 347 102 347 185 347 L185 347 Z " />
<glyph glyph-name="period" unicode="&#x2e;" horiz-adv-x="215" d="M28 89 C27 62 41 42 72 41 C107 40 118 66 121 94 C122 114 102 137 77 137 C45 140 29 120 28 89 L28 89 Z " />
<glyph glyph-name="slash" unicode="&#x2f;" horiz-adv-x="290" d="M239 821 C224 821 17 76 6 19 L33 10 C44 18 93 208 144 387 C148 399 151 413 154 425 C194 583 240 746 261 806 L239 821 Z " />
<glyph glyph-name="zero" unicode="0" horiz-adv-x="594" d="M261 898 C131 898 -19 757 -19 449 C-19 144 108 -9 261 -9 C300 -9 335 8 364 39 C403 78 429 138 448 206 C467 278 474 363 474 446 C474 543 455 710 394 811 C362 856 318 898 261 898 L261 898 Z M275 17 C211 17 128 117 128 441 C128 771 209 875 270 875 C329 875 451 788 451 449 C451 223 396 99 342 48 C316 27 294 17 275 17 L275 17 Z " />
<glyph glyph-name="one" unicode="1" horiz-adv-x="314" d="M94 882 C89 882 84 873 77 854 L68 829 L58 804 L38 752 L35 743 C24 719 15 695 3 674 C11 674 18 672 25 672 C50 719 62 751 75 784 L78 795 C78 796 80 803 81 804 C81 714 80 653 77 563 C77 559 76 551 76 547 C71 386 66 228 66 61 C66 24 85 5 124 5 C161 5 163 23 163 50 L163 108 L166 446 L166 534 C166 609 167 677 167 729 C167 780 168 812 168 819 L168 825 C168 850 171 882 94 882 L94 882 Z " />
<glyph glyph-name="two" unicode="2" horiz-adv-x="595" d="M475 77 C457 41 441 6 397 6 C370 6 343 20 314 40 C261 78 216 97 181 97 C142 97 100 72 57 33 C65 166 155 264 247 335 L278 360 C372 432 465 507 465 656 C465 723 439 894 250 894 C119 894 58 805 58 724 C58 696 67 665 82 642 C102 613 129 597 154 597 C183 597 215 615 240 642 L227 656 C202 633 178 619 155 619 C134 619 116 630 100 652 C89 671 82 698 82 723 C82 792 130 869 239 869 C319 869 339 770 339 666 C339 554 287 498 232 440 L232 441 C123 329 25 217 25 3 C25 -14 45 -8 65 9 C112 52 148 74 184 74 C215 74 251 56 294 28 C323 8 356 -15 397 -15 C459 -15 482 43 490 70 L475 77 Z " />
<glyph glyph-name="three" unicode="3" horiz-adv-x="540" d="M211 31 C174 31 131 45 104 68 C73 97 48 139 48 179 C48 206 59 232 84 256 L78 283 C41 252 25 217 25 181 C25 136 49 87 88 51 C123 20 177 0 237 0 C338 0 478 85 478 260 C478 346 431 405 383 440 C362 456 332 472 301 488 L302 488 L301 489 C326 501 349 512 372 529 C415 561 458 616 458 712 C458 808 374 903 234 903 C174 903 120 883 85 852 C46 816 22 767 22 722 C22 686 38 651 75 620 L81 647 C56 671 45 697 45 724 C45 764 70 806 101 835 C128 858 169 873 208 873 C275 873 335 816 335 707 C335 607 302 557 251 526 C232 515 206 505 177 496 L178 481 C207 470 229 461 243 454 C304 420 354 365 354 238 C354 137 280 34 211 31 L211 31 Z " />
<glyph glyph-name="four" unicode="4" horiz-adv-x="394" d="M384 437 C384 537 385 643 386 724 C386 740 387 756 387 771 L387 856 C387 883 351 893 321 893 C294 893 272 887 272 878 C272 856 208 570 7 321 C-1 312 8 297 15 294 L279 282 C279 198 278 93 278 62 L278 47 C278 24 310 2 345 2 C378 2 388 39 388 59 L389 72 C388 214 384 325 384 437 L384 437 Z M30 315 C193 525 223 646 285 793 C285 746 284 677 284 639 C281 535 280 418 280 305 L30 315 Z " />
<glyph glyph-name="five" unicode="5" horiz-adv-x="555" d="M215 28 C172 32 138 44 111 65 C79 96 54 137 54 176 C54 192 58 214 69 231 C74 238 84 247 92 254 L84 270 C40 252 30 199 33 162 C36 123 62 79 95 48 C136 11 192 -3 243 -2 C427 1 517 136 517 280 C517 429 400 543 257 543 C202 543 160 527 129 511 C118 504 112 499 105 492 L109 582 C112 655 114 774 114 860 C117 859 120 858 123 858 L144 855 C192 847 195 847 313 847 C423 847 456 887 473 912 L450 917 C434 897 393 869 309 869 C218 869 153 878 112 885 C97 888 82 889 74 889 C62 889 59 880 56 875 L57 875 C54 870 53 866 54 859 C54 726 45 574 40 496 C37 472 37 454 37 449 C37 433 49 421 70 421 C77 421 84 428 92 436 L97 441 C124 470 169 516 239 516 C342 516 375 343 375 282 C375 218 350 27 217 27 L215 28 Z " />
<glyph glyph-name="six" unicode="6" horiz-adv-x="584" d="M169 390 C178 454 209 503 269 528 C297 539 331 545 356 545 C368 545 381 544 390 541 C450 525 488 478 508 427 C520 392 529 346 529 315 C529 242 505 160 468 104 C436 61 386 24 334 24 C197 24 137 215 137 418 C137 646 213 883 345 883 C423 883 457 825 471 784 C476 723 426 707 375 704 C375 701 375 701 376 685 C499 688 526 790 441 869 C418 892 385 907 340 907 C171 907 6 757 6 426 C6 94 158 -1 330 -1 C405 -1 458 42 494 97 C537 167 553 257 553 316 C553 410 510 517 424 555 C404 563 381 567 354 567 C317 567 284 560 253 547 C193 520 152 467 145 384 L169 390 Z " />
<glyph glyph-name="seven" unicode="7" horiz-adv-x="491" d="M100 729 C69 740 55 765 55 792 C55 829 80 868 127 868 C148 868 170 867 191 865 L190 865 C197 864 205 863 212 863 C239 860 271 860 302 860 C335 860 368 862 401 866 C308 677 241 499 220 424 C220 423 221 421 218 414 C202 350 136 99 136 70 C136 25 255 -16 255 19 C255 219 367 585 435 800 L435 799 C442 822 447 844 454 864 L454 863 C457 872 459 881 462 889 C459 898 426 899 401 895 C352 884 302 878 263 881 L222 884 C193 887 161 890 128 890 C68 890 32 841 32 793 C32 758 49 726 88 707 L100 729 Z " />
<glyph glyph-name="eight" unicode="8" horiz-adv-x="501" d="M422 732 C422 777 405 817 378 848 C343 888 288 913 232 913 C24 913 -7 777 -7 715 C-7 621 59 560 120 510 L157 476 C56 439 -7 327 -7 222 C-7 92 72 4 209 4 C414 4 446 191 446 252 C446 371 386 423 283 513 C319 521 347 537 368 561 C407 605 422 672 422 732 L422 732 Z M322 233 C322 122 283 25 209 25 C89 25 15 108 15 221 C15 319 78 433 176 459 L209 429 L208 429 L254 385 C287 342 322 289 322 233 L322 233 Z M117 735 C117 847 176 887 230 887 C285 887 330 869 361 834 C384 807 399 772 399 731 C399 675 387 618 355 579 C332 552 302 536 259 533 C158 626 117 682 117 735 L117 735 Z " />
<glyph glyph-name="nine" unicode="9" horiz-adv-x="684" d="M390 516 C381 452 350 403 290 378 C262 367 228 361 203 361 C191 361 178 362 169 365 C109 381 71 428 51 479 C39 514 30 560 30 591 C30 664 54 746 91 802 C123 845 173 882 225 882 C362 882 422 691 422 488 C422 260 346 23 214 23 C136 23 102 81 88 122 C83 183 133 199 184 202 C184 205 184 205 183 221 C61 216 32 118 118 37 C141 14 174 -1 219 -1 C388 -1 553 149 553 480 C553 812 401 907 229 907 C154 907 101 864 65 809 C22 739 6 649 6 590 C6 496 49 389 135 351 C155 343 178 339 205 339 C242 339 275 346 306 359 C366 386 407 439 414 522 L390 516 Z " />
<glyph glyph-name="colon" unicode="&#x3a;" horiz-adv-x="327" d="M116 433 C115 406 128 386 160 385 C195 385 205 410 208 438 C209 458 189 481 165 481 C132 484 116 464 116 433 L116 433 Z M115 243 C114 216 127 196 159 195 C194 194 204 220 207 247 C208 268 188 291 164 291 C131 294 116 274 115 243 L115 243 Z " />
<glyph glyph-name="semicolon" unicode="&#x3b;" horiz-adv-x="327" d="M115 433 C114 406 128 386 160 385 C195 385 205 410 208 438 C209 458 189 481 165 481 C132 484 116 464 115 433 L115 433 Z M205 234 C205 258 199 294 162 294 C119 294 107 258 107 241 C107 223 120 190 149 190 C152 190 155 190 159 191 C160 191 161 192 162 192 L169 195 C165 175 142 157 126 145 C114 135 122 119 137 129 C162 146 205 179 205 234 L205 234 Z " />
<glyph glyph-name="less" unicode="&#x3c;" horiz-adv-x="382" d="M235 555 C217 555 29 396 29 376 L253 188 L269 210 L181 290 L102 362 L270 510 C270 537 263 555 235 555 L235 555 Z " />
<glyph glyph-name="equal" unicode="&#x3d;" horiz-adv-x="418" d="M185 407 C292 407 290 407 290 426 C290 446 284 444 184 447 L89 447 L84 438 L84 439 C72 426 73 421 82 414 C87 407 102 407 185 407 L185 407 Z M185 330 C292 330 290 330 290 349 C290 369 284 367 184 370 L89 370 L84 361 L84 362 C72 349 73 344 82 337 C87 330 102 330 185 330 L185 330 Z " />
<glyph glyph-name="greater" unicode="&#x3e;" horiz-adv-x="382" d="M64 555 C36 555 29 537 29 510 C85 461 141 410 197 362 L116 290 L28 211 L45 188 L270 376 C270 396 82 555 64 555 L64 555 Z " />
<glyph glyph-name="question" unicode="&#x3f;" horiz-adv-x="441" d="M169 216 C172 313 228 387 276 450 C332 524 392 609 384 731 C379 786 347 920 187 909 C73 898 25 825 30 759 C35 714 69 657 123 662 C147 665 177 679 198 703 L181 720 C162 699 142 686 123 685 C81 680 59 726 56 758 C51 807 93 872 179 880 C239 880 268 808 276 734 C277 722 278 705 278 693 C278 605 247 546 216 493 C180 430 141 351 136 209 L169 216 Z M103 101 C102 68 120 44 161 41 C206 40 221 72 224 107 C227 134 200 162 168 162 C125 165 106 140 103 101 L103 101 Z " />
<glyph glyph-name="at" unicode="&#x40;" horiz-adv-x="599" d="M326 608 C114 608 6 452 6 284 C6 192 42 94 109 22 C169 -35 247 -71 319 -71 C453 -71 474 63 477 92 L454 86 C454 55 430 -47 324 -47 C156 -47 80 102 80 251 C80 415 169 584 330 584 C417 584 478 496 508 402 C519 365 523 327 523 292 C523 257 518 226 511 199 C500 164 485 140 458 140 C442 140 439 197 439 255 C439 286 440 324 441 348 C442 360 442 374 442 381 C442 406 419 428 391 428 C382 428 378 414 375 406 L376 406 C374 404 373 402 373 401 L361 360 C350 317 334 258 313 223 C302 204 291 192 276 192 C237 192 237 252 237 279 C237 322 253 449 317 449 C337 449 343 432 350 416 L350 418 L352 405 L370 414 C358 457 330 476 295 476 C184 476 155 345 155 268 C155 216 183 151 252 151 C279 151 306 176 325 207 C340 228 350 251 357 270 C362 210 378 94 430 94 C481 94 514 134 531 191 C540 222 545 256 545 293 C545 437 473 608 326 608 L326 608 Z " />
<glyph glyph-name="A" unicode="A" horiz-adv-x="701" d="M276 514 C228 517 155 498 136 440 L157 441 C177 477 221 498 272 491 C256 414 176 -42 92 -42 C38 -42 27 41 27 81 C27 123 43 183 88 199 L89 220 C26 212 4 131 4 78 C4 27 22 -66 89 -66 C198 -66 279 402 295 485 L419 448 C427 290 413 -242 649 -242 C763 -242 796 -18 808 65 L785 67 C780 12 756 -181 680 -181 C543 -181 521 318 521 418 C537 415 554 412 570 412 C625 412 666 435 681 490 L660 494 C651 451 611 436 572 436 C556 436 538 438 522 441 C518 517 533 929 426 929 C374 929 293 568 276 514 L276 514 Z M407 874 C418 753 420 632 419 472 C380 483 341 496 302 507 C329 628 362 759 407 874 L407 874 Z " />
<glyph glyph-name="B" unicode="B" horiz-adv-x="816" d="M879 189 C857 194 782 186 735 170 C754 268 725 398 656 453 C605 494 532 510 445 497 C557 548 665 653 665 784 C665 861 614 934 531 934 C411 934 326 827 264 738 C248 806 176 879 102 879 C43 879 11 824 11 772 C11 751 16 730 23 711 L45 723 C36 743 33 763 33 786 C33 807 47 826 60 842 L59 842 C63 845 72 848 77 848 C157 848 177 691 177 632 C148 537 115 446 87 354 C54 246 30 138 30 29 C30 -16 38 -82 98 -82 C197 -82 248 11 272 113 C301 240 302 423 294 546 C290 609 276 668 273 711 C316 772 403 897 488 897 C545 897 555 828 555 784 C555 672 445 522 336 495 L336 474 C409 470 487 456 542 417 C624 357 623 228 591 136 C562 121 527 107 494 90 C437 61 381 20 342 -25 C311 -60 294 -100 294 -149 C294 -176 301 -196 309 -213 C347 -292 432 -282 517 -221 C614 -151 712 34 731 140 C769 159 841 169 881 169 L879 189 Z M86 -52 C51 -52 54 8 54 30 C54 139 78 243 109 347 C133 428 161 508 188 585 C204 531 172 -52 86 -52 L86 -52 Z M318 -136 C320 -102 333 -71 357 -42 C392 1 447 39 503 68 C528 82 553 93 577 102 C572 87 569 77 562 62 C517 -45 446 -152 401 -178 C361 -202 317 -209 317 -144 L318 -136 Z " />
<glyph glyph-name="C" unicode="C" horiz-adv-x="606" d="M387 922 C94 922 13 536 13 307 C13 127 66 -168 300 -168 C560 -168 645 99 677 310 L653 307 C629 188 585 -59 424 -59 C224 -59 175 163 175 321 C175 478 246 850 456 850 C511 850 536 782 536 735 C536 693 516 647 467 647 C446 647 425 660 406 671 L394 651 C417 635 444 624 472 624 C533 624 559 682 559 735 C559 836 492 922 387 922 L387 922 Z " />
<glyph glyph-name="D" unicode="D" horiz-adv-x="771" d="M822 220 C773 219 718 216 673 207 C707 321 740 491 740 595 C740 752 686 902 503 902 C385 902 300 811 244 717 C236 801 159 920 65 920 C16 920 -35 878 -35 826 C-35 794 -28 765 -13 738 L7 750 L4 750 C-11 773 -14 799 -14 826 C-14 849 0 870 19 881 L18 881 C25 886 32 888 41 888 C120 888 150 675 150 615 C115 497 100 449 84 403 C53 310 35 204 35 112 C35 53 53 -5 122 -5 C263 -5 271 297 271 390 C271 482 253 572 253 664 C253 727 374 864 438 864 C548 864 586 743 586 652 C586 538 570 326 512 189 C481 181 455 176 431 168 C408 161 385 153 364 144 C308 121 273 95 246 71 C190 22 164 -51 184 -112 C211 -196 297 -198 390 -150 C496 -95 625 72 662 180 C693 189 724 193 755 196 C778 197 800 200 823 199 L822 220 Z M204 -39 C215 10 246 47 287 78 C336 114 400 138 453 151 C468 155 479 156 492 159 C430 46 336 -67 282 -91 C237 -110 196 -102 204 -39 L204 -39 Z M58 114 C58 259 101 398 152 533 C156 484 158 435 158 386 C158 340 158 25 98 25 C61 25 58 90 58 114 L58 114 Z " />
<glyph glyph-name="E" unicode="E" horiz-adv-x="612" d="M496 792 C496 880 427 950 339 950 C190 950 60 801 60 656 C60 548 139 455 251 455 C95 383 7 256 7 83 C7 -89 104 -232 287 -232 C530 -232 627 124 675 310 L651 312 C619 190 532 -140 372 -140 C232 -140 180 43 180 158 C180 293 258 417 379 479 L378 490 C359 487 338 481 319 481 C232 481 192 561 192 638 C192 742 298 885 409 885 C457 885 472 834 472 794 C472 753 445 709 401 709 C376 709 352 721 333 736 L320 714 C345 695 374 685 407 685 C459 685 496 744 496 792 L496 792 Z " />
<glyph glyph-name="F" unicode="F" horiz-adv-x="675" d="M33 761 C33 697 81 666 141 666 L167 669 L160 690 L130 688 C83 688 57 721 57 766 C57 830 115 884 176 884 C229 884 281 873 348 856 C395 844 448 826 512 811 C480 730 465 582 449 497 L378 500 C335 500 294 481 275 441 L298 441 C315 461 339 476 366 476 L443 473 C427 368 352 -220 225 -220 C162 -220 149 -116 149 -72 C149 7 161 39 185 85 L175 99 C134 69 125 -26 125 -72 C125 -151 157 -257 253 -257 C493 -257 544 316 565 469 C586 473 612 468 637 475 C660 482 682 496 701 527 L677 527 C658 495 612 494 580 494 L568 494 C579 571 589 688 602 765 C605 776 604 782 607 793 C615 793 624 796 635 799 C687 813 756 857 756 906 C756 937 729 956 700 956 C616 956 564 906 524 835 C411 862 288 908 173 908 C94 908 33 838 33 761 L33 761 Z M707 932 C724 932 732 920 732 904 C732 871 681 837 642 824 C631 821 621 820 614 819 C621 832 624 843 631 856 C644 880 675 932 707 932 L707 932 Z " />
<glyph glyph-name="G" unicode="G" horiz-adv-x="671" d="M445 891 C484 891 505 856 505 821 C505 778 483 737 437 737 C418 737 390 750 375 759 L363 740 C388 723 415 715 444 715 C498 715 529 777 529 824 C529 885 485 920 425 920 C184 920 5 645 5 424 C5 280 86 150 243 150 C383 150 458 371 490 479 L492 442 C492 354 489 268 476 181 C381 88 264 -39 264 -182 C264 -236 286 -301 350 -301 C518 -301 566 81 586 204 C651 228 710 241 739 308 L712 308 C701 268 625 242 588 232 C588 288 593 340 593 396 C593 457 594 605 505 605 C481 605 481 580 481 563 C481 490 384 202 299 202 C200 202 158 355 158 432 C158 585 254 891 445 891 L445 891 Z M319 -251 C291 -251 288 -202 288 -182 C288 -60 386 66 474 143 C462 79 393 -251 319 -251 L319 -251 Z " />
<glyph glyph-name="H" unicode="H" horiz-adv-x="651" d="M71 714 C51 731 46 759 46 784 C46 805 57 857 86 857 C97 857 108 846 115 839 L114 840 C159 715 151 538 159 405 C120 390 87 360 64 325 L93 325 C110 348 131 365 158 376 C157 353 161 332 161 309 C161 252 159 -86 80 -86 C43 -86 30 -10 30 17 C30 52 42 84 62 111 L41 124 C20 92 6 53 6 14 C6 -52 37 -131 114 -131 C276 -131 255 165 263 317 C264 346 259 370 264 385 C315 385 363 375 412 375 L410 218 C410 89 394 -251 590 -251 C735 -251 736 -9 744 92 L721 91 C717 36 707 -203 631 -203 C515 -203 516 62 516 139 C516 224 517 308 520 393 C560 404 597 428 613 467 L586 467 C574 443 547 425 522 418 L521 470 C521 602 533 732 536 864 C517 876 495 885 472 885 C456 885 438 881 423 874 C419 714 415 558 412 398 C363 399 314 407 265 410 C257 515 290 912 126 912 C60 912 26 837 26 780 C26 751 36 726 56 703 L71 714 Z " />
<glyph glyph-name="I" unicode="I" horiz-adv-x="388" d="M116 751 C100 765 92 783 92 805 C92 832 114 898 148 901 C192 861 197 530 197 453 C197 360 196 -198 87 -198 C42 -198 36 -89 36 -58 C36 -21 42 11 61 43 L45 50 C21 34 13 -25 13 -52 C13 -127 22 -237 121 -237 C321 -237 319 286 319 418 C319 522 338 955 190 955 C121 955 67 867 67 805 C67 780 75 759 90 740 L116 751 Z " />
<glyph glyph-name="J" unicode="J" horiz-adv-x="523" d="M125 321 C57 340 32 396 32 461 C32 623 142 728 239 841 C270 692 282 529 282 377 C282 309 279 242 266 175 C159 87 48 -65 48 -209 C48 -264 70 -335 137 -335 C337 -335 378 53 394 197 C453 218 525 240 549 305 L521 311 C518 268 433 239 398 228 L399 318 C399 426 406 922 269 934 C174 770 7 681 7 463 C7 383 40 320 120 296 L125 321 Z M105 -283 C76 -283 72 -227 72 -207 C72 -80 169 58 262 138 C250 71 181 -283 105 -283 L105 -283 Z " />
<glyph glyph-name="K" unicode="K" horiz-adv-x="512" d="M68 728 C39 748 7 777 7 816 C7 851 38 880 71 880 C103 880 123 831 134 772 C145 703 147 621 147 594 L144 456 L144 458 C57 297 16 175 16 55 C16 16 31 -32 78 -32 C219 -32 229 334 233 433 C333 401 324 190 345 8 C361 -140 397 -269 521 -269 C616 -269 657 -121 657 -46 C657 -31 656 -3 648 12 L629 8 C636 -8 634 -23 634 -40 C634 -85 610 -221 549 -221 C455 -221 462 -7 438 189 C417 341 378 481 249 494 C301 562 470 825 552 825 C571 828 567 797 559 776 L579 774 C594 817 584 849 547 849 C460 849 299 596 243 528 C247 561 249 594 249 628 C249 719 231 913 104 913 C48 913 -14 880 -14 819 C-14 770 19 730 59 706 L68 728 Z M49 7 C38 16 39 44 39 59 C39 183 83 294 143 401 C139 350 106 15 49 7 L49 7 Z " />
<glyph glyph-name="L" unicode="L" horiz-adv-x="363" d="M111 698 C84 718 60 748 60 784 C60 853 142 866 168 805 C186 763 189 699 189 666 C189 449 167 201 106 -7 L92 -5 C40 -5 8 -61 8 -106 C8 -143 49 -158 80 -158 C128 -158 163 -117 184 -77 C267 -160 359 -258 485 -258 C562 -258 638 -204 675 -137 L656 -129 C621 -188 554 -236 485 -236 C363 -236 278 -131 198 -54 C251 59 300 532 300 669 C300 749 236 887 143 887 C87 887 37 841 37 785 C37 742 65 703 100 678 L111 698 Z M40 -117 C32 -117 29 -108 29 -96 C29 -71 53 -26 83 -26 C89 -26 94 -27 97 -30 C89 -46 62 -117 40 -117 L40 -117 Z " />
<glyph glyph-name="M" unicode="M" horiz-adv-x="826" d="M997 25 C960 -60 915 -165 907 -179 C859 -254 822 -197 803 -53 C775 151 786 497 794 620 C797 674 806 752 795 807 C763 982 608 920 555 798 C534 750 520 687 499 616 C499 640 498 662 497 685 L495 715 C490 785 427 871 351 839 C314 823 298 780 278 729 C265 697 255 649 249 655 C246 658 247 692 238 725 C225 766 219 785 187 817 C152 852 106 862 63 862 C-10 862 -57 788 -28 724 C-16 699 11 674 38 659 L51 676 C23 691 2 712 -9 735 L-8 735 C-24 782 0 832 50 832 C77 832 99 811 114 767 L114 768 C127 721 131 657 131 589 C131 513 128 434 125 374 C125 384 -8 119 16 14 L16 15 C27 -36 67 -64 112 -39 C139 -24 163 0 182 32 C270 175 262 453 262 595 C262 601 320 791 346 799 C384 769 391 483 395 382 C428 357 462 384 475 407 C487 440 532 655 576 764 C626 891 682 858 674 726 C670 658 630 220 682 -54 C709 -206 766 -307 870 -267 C918 -248 982 -88 1027 27 L997 25 Z M40 81 C53 161 86 235 125 308 C120 253 98 135 74 63 C37 -32 35 44 40 81 L40 81 Z " />
<glyph glyph-name="N" unicode="N" horiz-adv-x="625" d="M35 677 C0 693 -23 724 -16 756 C-8 797 24 835 56 835 C71 835 88 820 96 789 C107 744 108 674 121 328 C94 253 71 175 60 118 C57 99 54 71 54 40 C54 -5 65 -51 86 -70 C101 -81 114 -85 129 -85 C149 -85 171 -72 182 -55 C209 -9 216 83 216 125 C216 168 216 227 215 270 C214 325 213 379 213 434 C213 458 213 482 214 506 L214 505 C238 603 329 730 389 730 C422 730 447 689 447 578 C447 503 445 430 442 357 C439 284 437 211 437 138 C437 62 441 -8 450 -80 C463 -157 512 -261 588 -277 C686 -290 740 -152 740 -53 C740 -22 734 6 723 30 L703 16 C710 5 714 -14 714 -40 C714 -100 693 -193 654 -232 C609 -264 571 -170 555 -73 C546 -16 544 43 544 83 C544 102 545 116 545 124 L545 131 C545 215 550 299 555 384 C560 468 564 553 564 637 C564 713 531 777 438 777 C333 777 248 652 208 564 L208 570 C208 723 186 831 129 862 C116 869 102 873 87 873 C23 873 -41 806 -41 745 C-41 732 -36 714 -29 701 C-20 686 -3 672 21 658 L35 677 Z M75 52 C75 111 93 170 116 243 C112 159 117 75 97 6 C88 -21 84 -30 77 2 C74 17 75 37 75 52 L75 52 Z " />
<glyph glyph-name="O" unicode="O" horiz-adv-x="725" d="M739 307 C727 302 714 297 702 296 C687 295 674 296 659 299 C662 343 665 382 665 425 C665 444 664 460 663 479 C658 567 637 675 608 758 C578 826 526 906 452 903 C424 900 400 891 383 878 C367 885 348 889 325 889 C48 889 1 450 1 253 C1 221 2 194 4 171 C15 -25 118 -245 326 -248 C397 -241 459 -204 503 -155 C591 -43 634 147 658 274 C673 271 688 271 705 272 C717 273 728 277 739 281 L739 307 Z M344 764 C351 689 364 619 392 551 L399 535 C423 475 461 420 506 373 C541 334 583 304 628 277 C605 121 529 -190 355 -210 C216 -210 172 68 164 188 C164 195 163 202 163 209 C162 224 161 236 161 249 C161 439 188 667 343 780 C343 772 343 774 344 765 L344 764 Z M478 742 C467 801 448 841 409 865 C419 872 433 875 451 876 C578 880 626 603 638 467 C639 448 640 429 640 410 C640 375 637 340 633 304 L597 328 C456 426 383 596 372 757 C371 768 370 783 371 794 C388 801 398 804 401 804 C426 804 446 786 455 742 L478 742 Z " />
<glyph glyph-name="P" unicode="P" horiz-adv-x="671" d="M35 745 C112 756 139 618 147 542 C91 410 39 4 55 -112 C60 -164 96 -269 167 -261 C404 -229 305 496 257 614 C273 664 339 770 408 826 C478 883 563 873 582 780 C606 657 544 432 520 412 C467 407 363 348 371 284 C376 244 398 239 442 239 C485 239 532 267 571 302 C671 388 732 585 732 710 C732 920 528 987 387 843 C320 774 260 686 241 634 C212 716 176 789 61 784 C-11 780 -45 731 -38 676 C-36 661 -30 642 -19 621 L-4 630 C-15 649 -16 664 -19 679 C-23 712 -8 740 35 745 L35 745 Z M136 -197 C93 -197 81 -128 78 -94 C66 7 116 399 160 516 C171 395 227 -165 136 -197 L136 -197 Z M406 270 C394 270 393 284 393 293 C393 341 468 384 512 387 C499 350 438 270 406 270 L406 270 Z " />
<glyph glyph-name="Q" unicode="Q" horiz-adv-x="715" d="M9 229 C20 33 122 -187 330 -190 C402 -187 461 -149 508 -97 C537 -58 563 -10 583 39 C614 -4 644 -54 672 -105 C752 -246 837 -397 990 -397 C1013 -397 1036 -386 1053 -367 C1084 -331 1102 -268 1102 -208 L1079 -208 C1083 -217 1069 -364 1010 -364 C941 -364 843 -228 761 -103 C704 -16 647 67 602 96 C647 221 668 343 668 467 C668 584 651 700 612 819 C583 885 532 964 456 961 C429 958 406 949 387 937 C370 944 351 947 330 947 C54 947 6 492 6 312 C6 279 7 252 9 229 L9 229 Z M481 697 C486 717 487 735 487 754 C487 781 483 808 476 834 C464 873 443 903 414 923 C425 928 440 932 455 935 C593 939 634 651 642 525 C644 505 645 484 645 463 C645 343 617 220 580 107 C569 111 554 115 538 115 C511 115 463 97 439 34 L459 34 C484 73 504 87 523 87 C536 87 549 79 563 63 C523 -45 456 -141 358 -152 C216 -152 173 131 169 246 C168 261 168 279 168 300 C168 480 202 859 406 859 C425 859 442 849 454 818 L454 819 C458 795 460 771 460 748 C460 735 459 719 456 700 L481 697 Z " />
<glyph glyph-name="R" unicode="R" horiz-adv-x="701" d="M108 884 C77 877 45 859 25 832 C10 813 6 792 9 769 C13 741 38 715 67 692 L77 701 C76 702 76 704 76 705 L76 710 C53 729 35 749 31 772 C27 792 34 811 53 830 C68 845 84 852 99 852 C182 852 206 612 210 531 C155 409 90 187 90 43 C90 -33 117 -81 180 -80 C300 -77 336 132 336 330 C336 361 337 391 334 422 C547 353 456 -266 702 -266 C815 -266 879 -174 914 18 L888 7 C872 -83 840 -188 760 -188 C656 -188 625 -22 596 130 L587 175 C558 310 550 383 412 444 C523 508 645 614 645 751 C645 825 600 893 518 893 C418 893 362 789 319 709 L299 674 C270 785 215 900 108 884 L108 884 Z M328 680 C360 747 413 851 476 835 C520 823 537 793 537 752 C537 640 402 463 332 444 C327 524 318 592 307 639 C314 650 319 665 328 680 L328 680 Z M146 -47 C119 -35 112 -4 112 45 C112 151 161 351 211 483 C212 460 214 455 215 435 C216 414 217 379 217 336 C217 183 203 -75 146 -47 L146 -47 Z " />
<glyph glyph-name="S" unicode="S" horiz-adv-x="633" d="M551 772 C551 747 543 720 532 701 C517 679 499 668 478 668 C455 668 431 683 406 706 L394 682 C419 658 450 643 479 643 C504 643 532 659 553 687 C565 706 573 732 577 773 C575 884 517 943 403 948 C286 953 185 891 147 762 C142 741 140 720 140 699 C140 596 197 502 258 407 C319 309 389 198 389 75 C389 55 388 36 384 13 C372 -55 346 -122 298 -162 C262 -189 222 -205 190 -205 C100 -205 30 -109 30 1 C30 78 70 166 158 166 C189 166 199 158 216 127 L242 141 C231 148 233 148 230 151 C222 166 203 191 159 191 C59 191 3 95 3 4 C3 -156 100 -254 257 -254 C402 -254 488 -188 528 -88 C547 -37 555 12 555 61 C555 261 421 442 331 599 C312 638 300 677 300 713 C300 809 374 880 488 875 C541 875 551 814 551 772 L551 772 Z " />
<glyph glyph-name="T" unicode="T" horiz-adv-x="675" d="M15 673 C24 614 64 593 108 593 C124 593 140 595 156 600 L155 623 C135 618 120 615 111 615 C63 615 40 648 40 687 C40 778 108 818 193 826 C301 837 441 811 505 814 C490 754 480 646 469 527 C441 220 398 -194 253 -194 C230 -194 211 -188 195 -175 C176 -160 164 -131 156 -103 C149 -72 147 -41 147 -16 C147 16 151 46 158 75 C169 118 185 153 208 185 L200 211 C147 143 123 67 123 -9 C123 -121 151 -246 287 -246 C495 -246 524 55 552 415 C563 540 574 674 593 807 L612 807 C641 807 689 819 722 842 C747 861 763 884 763 915 C763 964 725 978 684 978 C590 978 544 923 512 840 C442 840 302 864 188 851 C120 843 71 822 42 775 C26 750 8 716 15 673 L15 673 Z M710 950 C731 950 740 935 740 915 C740 891 725 872 704 857 C673 838 631 833 604 833 C601 833 598 833 596 834 C604 874 672 950 710 950 L710 950 Z " />
<glyph glyph-name="U" unicode="U" horiz-adv-x="805" d="M175 774 C175 658 157 388 157 265 C157 111 194 3 334 3 C420 3 449 67 473 135 C521 271 577 547 617 692 C620 669 618 662 618 630 C618 604 606 334 606 304 C606 271 605 239 605 204 C605 93 609 -17 640 -88 C667 -147 709 -182 753 -182 C784 -182 817 -165 841 -130 C873 -82 899 6 918 94 L894 93 C875 0 842 -80 821 -93 C726 -130 739 53 739 209 C739 233 740 255 740 276 L740 307 C740 394 765 902 769 927 C764 1006 656 975 634 953 C602 918 596 757 569 636 C547 559 498 286 444 150 C429 115 417 90 402 79 C289 14 293 172 293 237 C293 389 328 606 304 745 C289 828 255 882 182 882 C155 882 126 873 99 854 C70 830 37 786 37 747 C37 736 40 723 47 710 C62 687 92 667 128 659 L134 678 C103 687 79 699 68 720 C63 729 61 738 61 747 C61 791 104 834 139 834 C158 834 174 817 175 774 L175 774 Z " />
<glyph glyph-name="V" unicode="V" horiz-adv-x="769" d="M-28 767 C-41 692 17 655 84 655 L84 674 C28 678 -16 704 -5 760 C6 805 44 852 81 852 C100 852 120 830 129 785 C140 722 141 643 144 558 C144 545 145 533 145 521 C153 302 165 -203 370 -183 C393 -179 414 -163 437 -139 C534 -31 597 136 658 258 C677 234 723 180 802 180 L807 203 C751 203 703 237 671 286 C691 346 699 380 706 407 C726 491 733 556 733 616 C733 697 697 748 628 748 C556 748 542 654 539 606 C534 493 580 382 633 283 C617 240 514 16 474 -37 C451 -72 428 -92 412 -92 C331 -92 311 277 291 545 C288 570 288 594 287 621 C282 760 276 896 143 896 C64 896 -9 840 -28 767 L-28 767 Z M629 723 C687 723 706 671 706 618 C706 530 685 416 652 315 C609 381 565 509 565 577 C565 616 571 723 629 723 L629 723 Z " />
<glyph glyph-name="W" unicode="W" horiz-adv-x="995" d="M1010 307 C966 293 952 285 908 306 C913 349 913 395 913 442 C916 510 911 587 892 646 C875 698 848 735 803 735 C748 735 735 662 735 595 C735 558 739 525 742 508 C754 445 786 390 831 339 C846 323 864 307 881 292 C868 143 859 40 846 -35 C825 -158 795 -190 768 -190 C614 -190 607 152 607 292 C607 307 606 316 606 327 C606 382 601 449 535 467 C524 470 517 472 506 472 L494 471 C490 450 484 383 476 315 C467 239 423 -165 259 -30 C211 8 218 83 216 135 C213 228 224 316 227 365 C235 465 238 590 238 650 C238 799 208 931 99 931 C45 931 -43 913 -62 806 L-62 805 C-63 772 -48 742 -29 727 C-6 711 29 705 66 709 C65 716 64 727 64 731 C31 728 6 730 -13 745 C-30 757 -36 775 -36 794 C-36 835 -7 878 29 886 C52 891 76 876 85 820 C92 781 94 740 94 700 C94 544 70 343 70 177 L70 112 C70 17 78 -95 164 -122 L163 -122 C194 -135 232 -138 275 -129 C373 -111 435 -18 463 68 C484 -13 511 -90 547 -153 C584 -216 634 -262 706 -262 C725 -262 742 -257 757 -250 C840 -207 861 -108 874 -29 C893 75 896 179 904 279 C961 261 984 270 1029 296 L1010 307 Z M800 710 C872 710 890 568 890 453 C890 397 887 346 884 319 C840 358 804 410 781 467 C765 511 760 550 760 593 C760 635 768 710 800 710 L800 710 Z " />
<glyph glyph-name="X" unicode="X" horiz-adv-x="827" d="M242 778 C330 706 431 377 431 356 C431 355 419 319 404 279 C388 237 369 184 361 157 C309 10 215 -249 128 -249 C60 -249 36 -167 36 -113 C36 -61 74 16 117 16 L117 40 C49 27 13 -48 13 -120 C13 -185 48 -274 124 -274 C277 -274 377 166 446 319 L464 280 C528 124 655 -162 774 -162 C866 -162 894 -45 897 59 C896 59 890 58 887 58 C884 57 880 57 876 57 C869 -44 847 -86 816 -86 C793 -86 769 -69 744 -38 C672 45 606 201 558 324 L545 360 C534 385 525 409 517 432 L512 444 C556 545 602 643 662 732 C719 816 782 884 843 884 C872 884 884 866 885 838 L908 838 C905 879 884 907 843 907 C784 907 725 857 674 792 C617 719 574 627 542 563 L499 472 C490 493 486 508 478 531 C475 542 472 553 468 564 C431 665 384 782 312 817 C290 824 270 828 251 828 C234 828 219 825 204 820 C156 801 108 741 124 688 C132 661 157 638 190 621 L201 643 C166 658 144 684 145 713 C146 734 157 754 176 770 C189 783 201 789 214 789 C223 789 233 785 242 778 L242 778 Z " />
<glyph glyph-name="Y" unicode="Y" horiz-adv-x="732" d="M87 844 C100 840 105 798 105 746 C105 612 16 230 247 230 C409 230 481 490 517 622 C513 505 508 384 499 267 L491 194 L438 140 C318 15 199 -116 199 -294 C199 -355 222 -420 301 -420 C505 -420 583 65 599 204 C700 241 780 358 818 447 L795 447 C753 368 693 269 602 234 C617 323 619 447 619 564 L619 732 C619 778 622 841 584 841 C565 841 544 835 528 831 C524 722 429 282 296 282 C221 282 212 393 217 516 C221 650 275 932 56 872 C7 858 -37 818 -37 771 C-36 742 -15 711 10 687 L29 703 C6 727 -13 748 -13 771 C-13 821 44 852 87 844 L87 844 Z M270 -343 C237 -343 226 -315 226 -280 C226 -227 252 -151 265 -125 C312 -24 397 66 485 150 C469 16 399 -343 270 -343 L270 -343 Z " />
<glyph glyph-name="Z" unicode="Z" horiz-adv-x="675" d="M19 738 C19 674 67 643 127 643 L153 646 L146 667 L116 665 C69 665 43 698 43 743 C43 807 101 861 162 861 C215 861 267 850 334 833 C381 821 433 803 497 788 L365 432 L364 432 C353 437 323 438 311 438 C286 438 213 431 186 379 L204 369 C223 396 256 415 303 415 C310 415 336 414 355 409 C312 284 253 146 188 9 C173 13 143 13 120 -12 C105 -27 90 -51 90 -91 C90 -127 128 -142 160 -142 C173 -142 188 -138 199 -133 C227 -117 249 -90 264 -63 C307 -91 347 -114 390 -137 C473 -180 553 -212 628 -205 C699 -198 766 -160 819 -84 L795 -76 C740 -151 680 -179 612 -179 C545 -179 475 -152 402 -112 C361 -89 320 -64 277 -37 C327 67 402 249 447 382 C466 378 483 375 503 375 C526 375 549 379 571 388 C602 403 635 427 670 466 L644 473 C633 457 620 449 609 438 C578 411 543 397 504 397 C489 397 471 400 456 405 L525 588 C548 648 570 709 593 770 C601 770 610 773 621 776 C673 790 742 834 742 883 C742 914 715 933 686 933 C602 933 550 883 510 812 C397 839 274 885 159 885 C80 885 19 815 19 738 L19 738 Z M693 909 C710 909 718 897 718 881 C718 848 667 814 628 801 C617 798 607 797 600 796 C607 809 610 820 617 833 C630 857 661 909 693 909 L693 909 Z M112 -93 C112 -65 141 9 178 -15 C146 -90 112 -120 112 -93 L112 -93 Z " />
<glyph glyph-name="bracketleft" unicode="&#x5b;" horiz-adv-x="293" d="M156 -181 L276 -176 L276 -147 L210 -147 L207 915 L279 918 L280 947 L150 944 L156 -181 Z " />
<glyph glyph-name="backslash" unicode="&#x5c;" horiz-adv-x="280" d="M4 807 L6 807 C25 748 71 581 114 425 C117 412 120 400 124 387 C172 209 223 18 234 10 L262 19 C251 76 44 821 28 821 L13 818 C-2 857 -9 860 -1 811 L4 807 Z " />
<glyph glyph-name="bracketright" unicode="&#x5d;" horiz-adv-x="327" d="M132 944 L2 947 L3 918 L75 915 L72 -147 L6 -147 L6 -176 L126 -181 L132 944 Z " />
<glyph glyph-name="asciicircum" unicode="&#x5e;" horiz-adv-x="382" d="M11 782 C11 753 30 746 57 745 L205 914 L276 832 L355 742 L378 760 L192 986 C172 986 11 800 11 782 L11 782 Z " />
<glyph glyph-name="underscore" unicode="&#x5f;" horiz-adv-x="433" d="M81 15 C84 6 154 6 242 6 C350 6 348 6 348 25 C348 44 342 42 241 45 L89 45 L84 36 L84 37 C72 25 73 20 82 13 L81 15 Z " />
<glyph glyph-name="grave" unicode="&#x60;" horiz-adv-x="280" d="M58 921 C106 876 169 787 185 771 C204 752 208 762 201 783 C188 826 138 921 88 943 C66 951 28 945 58 921 L58 921 Z " />
<glyph glyph-name="a" unicode="a" horiz-adv-x="465" d="M520 307 L492 240 C479 208 431 74 408 74 C376 74 379 227 379 248 C379 309 384 371 384 432 C384 469 354 501 317 501 C278 501 251 148 159 148 C103 148 105 241 105 279 C105 344 127 536 216 536 C254 536 254 500 268 475 L285 481 C272 532 241 574 185 574 C39 574 -4 381 -4 265 C-4 185 35 90 127 90 C198 90 255 221 271 279 C275 224 294 5 370 5 C412 5 450 74 479 148 C501 205 530 271 541 306 L520 307 Z " />
<glyph glyph-name="b" unicode="b" horiz-adv-x="484" d="M537 305 C514 258 487 213 434 201 C437 221 436 242 436 262 C436 357 412 466 295 466 C202 466 157 395 114 325 L113 425 C208 546 264 688 264 843 C264 896 251 1017 178 1017 C20 1017 1 580 1 468 C1 394 0 -19 94 -19 C105 -19 138 5 138 17 C138 108 124 195 119 286 C144 332 191 430 252 430 C326 430 334 307 334 255 C334 224 333 192 325 163 C253 126 176 65 176 -25 C176 -69 217 -90 255 -90 C349 -90 409 101 429 174 C501 190 532 248 562 305 L537 305 Z M112 465 C112 538 132 975 197 975 C236 975 241 870 241 847 C241 715 204 595 130 486 C126 482 107 452 112 465 L112 465 Z M200 -13 C200 54 269 107 322 134 C299 84 293 66 282 47 C273 30 231 -45 210 -45 C199 -45 200 -20 200 -13 L200 -13 Z " />
<glyph glyph-name="c" unicode="c" horiz-adv-x="387" d="M-11 295 C-11 172 44 19 155 19 C251 19 330 99 373 171 C408 233 434 295 434 303 L412 303 C409 292 383 236 351 183 C322 141 279 86 222 86 C124 86 103 227 103 326 C103 389 117 519 205 511 C232 508 243 496 254 451 L267 452 C267 502 233 561 180 561 C62 561 -11 431 -11 295 L-11 295 Z " />
<glyph glyph-name="d" unicode="d" horiz-adv-x="576" d="M624 305 C612 262 527 43 479 43 C404 43 388 405 388 469 C481 581 533 773 533 917 C533 958 522 1025 469 1025 C316 1025 301 652 285 545 C266 554 245 558 225 558 C89 558 3 433 3 305 C3 192 17 28 166 28 C250 28 288 89 310 162 C323 103 366 -34 442 -34 C490 -34 532 35 569 112 C605 187 636 270 646 306 L624 305 Z M220 90 C147 90 123 242 123 296 C123 361 156 533 241 533 C285 533 284 511 284 475 C284 394 297 314 297 233 C297 188 280 90 220 90 L220 90 Z M512 912 C512 795 462 591 386 502 C389 610 391 722 418 826 C423 852 469 986 495 986 C511 986 512 924 512 912 L512 912 Z " />
<glyph glyph-name="e" unicode="e" horiz-adv-x="346" d="M210 558 C79 558 3 394 3 282 C3 182 60 54 176 54 C298 54 383 206 420 305 L397 306 C373 246 295 97 221 97 C141 97 85 276 120 330 C191 341 322 386 322 475 C322 533 260 558 210 558 L210 558 Z M245 520 C272 520 300 506 300 477 C300 406 185 355 125 355 C124 356 123 356 123 356 C126 403 196 520 245 520 L245 520 Z " />
<glyph glyph-name="f" unicode="f" horiz-adv-x="333" d="M384 304 C315 209 238 123 126 80 C127 123 129 161 136 204 C243 260 326 467 326 586 C326 634 316 701 255 701 C28 701 -7 182 -7 30 C-7 -118 22 -597 242 -597 C306 -597 370 -555 370 -441 C370 -258 284 -54 137 58 C257 106 339 200 411 304 L384 304 Z M344 -448 C344 -488 329 -564 273 -564 C156 -564 121 -63 121 32 C168 0 206 -38 238 -89 C307 -198 344 -331 344 -448 L344 -448 Z M274 668 C301 668 304 612 304 593 C304 487 233 294 140 238 C148 304 203 668 274 668 L274 668 Z " />
<glyph glyph-name="g" unicode="g" horiz-adv-x="466" d="M554 304 C507 232 455 156 380 108 L382 493 C370 504 352 514 335 514 C322 514 306 505 299 494 C276 527 243 553 202 553 C-8 553 -97 66 143 66 C214 66 250 142 271 200 L271 105 L268 48 C143 -75 31 -251 31 -433 C31 -506 40 -607 137 -607 C371 -607 380 -72 380 74 C403 93 424 109 443 128 C495 179 536 232 576 304 L554 304 Z M53 -439 C53 -270 151 -93 268 24 C260 -73 238 -563 99 -563 C60 -563 50 -460 53 -439 L53 -439 Z M136 127 C63 208 124 520 223 520 C254 520 270 495 289 474 L288 473 C259 394 277 295 264 244 C259 228 236 173 213 139 C190 106 163 99 136 127 L136 127 Z " />
<glyph glyph-name="h" unicode="h" horiz-adv-x="461" d="M504 301 C484 229 416 8 348 -60 C340 -68 324 -75 316 -78 C165 -106 245 281 249 376 C249 410 251 440 222 437 C160 421 106 240 98 193 C93 161 109 59 50 59 C4 59 -2 196 -2 286 C-2 462 31 1005 283 1000 C381 997 379 891 355 815 C318 691 207 551 147 475 C124 448 106 428 103 423 C98 386 94 326 94 287 C93 279 91 284 94 269 C121 354 182 490 274 487 C327 484 353 418 350 368 C347 267 328 169 325 64 C322 4 329 -19 338 -19 C376 -19 469 259 477 302 L504 301 Z M104 464 C181 553 345 758 345 893 C345 1032 241 951 201 877 C139 756 112 549 104 464 L104 464 Z " />
<glyph glyph-name="i" unicode="i" horiz-adv-x="232" d="M281 301 C266 262 246 215 231 184 C212 145 190 112 173 112 C119 112 118 278 118 314 C118 357 128 397 128 440 C128 460 121 477 98 477 C3 477 13 352 13 284 C13 219 27 36 121 36 C173 36 219 106 254 178 C270 211 291 262 306 302 L281 301 Z M33 605 C33 574 55 551 86 551 C125 551 143 580 143 616 C143 647 119 671 88 671 C49 671 33 640 33 605 L33 605 Z " />
<glyph glyph-name="j" unicode="j" horiz-adv-x="260" d="M340 300 C302 244 236 150 166 104 L162 478 C162 530 98 516 75 493 C30 440 43 297 43 235 C44 175 51 126 51 75 C51 64 51 59 48 47 C-123 -95 -200 -322 -200 -441 C-200 -496 -202 -616 -90 -616 C63 -616 166 -386 166 73 L203 102 C277 165 371 300 360 300 L340 300 Z M-176 -442 C-176 -330 -104 -121 48 10 C27 -231 7 -496 -96 -559 C-172 -611 -176 -486 -176 -442 L-176 -442 Z M52 676 C44 640 62 614 99 605 C140 597 160 625 168 662 C171 689 152 722 121 725 C81 733 59 713 52 676 L52 676 Z " />
<glyph glyph-name="k" unicode="k" horiz-adv-x="477" d="M112 360 C117 369 135 391 159 422 C232 519 376 709 381 867 C381 921 346 971 292 974 C87 978 30 575 14 357 C6 216 5 184 5 160 C5 78 17 55 43 55 C90 55 100 89 100 162 C100 181 118 226 145 277 C195 269 212 178 228 92 C244 0 261 -90 320 -90 C335 -90 356 -78 372 -58 C424 10 479 165 525 305 L499 304 C478 225 412 63 377 -2 C341 -64 334 26 331 52 C318 126 306 225 246 260 C327 265 393 326 417 386 C436 434 409 507 352 507 C244 507 164 357 105 245 C109 285 105 323 112 360 L112 360 Z M357 867 C357 843 351 779 304 684 C269 616 210 523 118 410 C130 541 175 929 313 941 C348 933 357 895 357 867 L357 867 Z M306 468 C323 468 333 449 333 425 C333 378 296 311 213 295 L152 289 C200 372 265 468 306 468 L306 468 Z " />
<glyph glyph-name="l" unicode="l" horiz-adv-x="347" d="M246 30 C141 30 119 376 119 451 C250 568 343 716 343 897 C343 941 335 990 280 990 C70 990 15 539 15 385 C15 273 52 -26 207 -26 C334 -26 395 196 431 304 L408 305 C388 249 322 30 246 30 L246 30 Z M321 898 C321 786 278 672 209 580 C182 545 151 511 118 484 C126 565 197 950 304 950 C323 950 321 910 321 898 L321 898 Z " />
<glyph glyph-name="m" unicode="m" horiz-adv-x="698" d="M436 68 C436 -10 451 -73 497 -76 C516 -79 544 -56 569 -23 C636 71 715 257 734 305 L710 305 C657 178 578 22 552 22 C547 22 543 25 543 56 C543 218 607 370 607 527 C607 591 594 638 557 642 C540 645 517 638 497 617 C417 515 381 396 320 289 C315 278 318 322 323 372 C323 442 365 563 279 574 C260 573 244 562 233 541 L109 271 C116 310 120 365 120 410 C120 453 120 477 85 477 C6 477 9 373 6 320 C6 285 -25 138 32 127 C70 119 82 148 95 174 C111 214 146 295 231 481 C232 474 232 467 232 459 C232 410 188 169 255 161 C270 160 286 170 305 198 C321 214 467 565 489 561 C496 560 498 547 498 528 C498 380 436 234 436 68 L436 68 Z " />
<glyph glyph-name="n" unicode="n" horiz-adv-x="486" d="M525 306 C432 118 397 47 392 74 C388 205 401 325 401 448 C401 531 386 618 301 618 C234 618 219 583 160 383 C152 355 145 325 116 232 L115 379 C115 447 110 468 46 468 C-2 468 6 226 6 201 C6 127 11 104 42 96 C59 93 86 95 101 118 C135 198 167 312 191 394 C214 478 234 541 246 541 C277 541 282 487 282 412 C282 336 271 264 271 191 C271 82 286 -23 353 -23 C365 -23 381 -10 396 9 C422 48 465 127 550 305 L525 306 Z " />
<glyph glyph-name="o" unicode="o" horiz-adv-x="368" d="M332 325 C332 396 306 551 210 551 C141 551 137 476 142 423 C136 443 110 489 86 489 C34 489 6 331 6 290 C6 192 11 42 143 42 C234 42 287 157 317 227 C373 227 416 265 445 305 L422 306 C397 275 367 251 324 251 C329 276 332 298 332 325 L332 325 Z M293 231 C277 191 230 88 178 88 C126 88 121 219 121 254 C121 309 129 358 145 409 L145 410 C167 327 216 268 293 231 L293 231 Z M164 451 C164 486 167 527 211 527 C287 527 309 384 309 328 C309 304 309 277 301 254 C224 283 164 367 164 451 L164 451 Z " />
<glyph glyph-name="p" unicode="p" horiz-adv-x="502" d="M324 552 C227 552 171 421 129 355 C123 416 127 552 82 549 C66 548 42 539 30 532 C26 532 20 529 17 514 C14 497 14 479 14 463 C14 424 17 385 20 345 C25 284 31 230 24 178 C21 143 -7 81 -35 8 C-88 -133 -137 -272 -137 -417 C-137 -498 -119 -611 -43 -619 C161 -630 133 6 133 257 C133 284 129 307 136 314 C147 330 195 417 203 427 C222 455 241 476 262 484 C306 495 323 439 323 374 C323 312 313 240 305 209 C242 193 160 141 160 72 C160 29 199 20 231 20 C327 20 388 117 415 192 C490 211 531 247 570 306 L544 306 C517 262 475 235 427 222 C467 325 475 552 324 552 L324 552 Z M-108 -348 C-97 -240 -42 -88 -2 24 L16 67 C19 74 19 69 19 66 C19 51 19 39 18 24 C15 -75 5 -175 -4 -274 C-9 -327 -14 -422 -33 -490 C-61 -593 -95 -579 -108 -471 C-113 -426 -115 -376 -108 -348 L-108 -348 Z M300 182 C292 153 227 46 192 60 C181 64 184 83 187 94 C208 141 254 170 297 181 L300 182 Z " />
<glyph glyph-name="q" unicode="q" horiz-adv-x="497" d="M572 306 C508 207 460 138 349 87 C352 228 364 368 396 505 C379 512 364 515 349 515 C329 515 305 514 293 495 C270 530 227 551 186 551 C52 551 -3 394 -3 282 C-3 185 36 88 148 88 C192 88 228 135 247 170 C240 123 239 76 239 29 C239 -99 274 -576 451 -576 C579 -576 558 -380 546 -304 C524 -164 470 -25 360 66 C465 117 539 206 595 306 L572 306 Z M347 48 C446 -41 498 -162 519 -291 C527 -334 558 -539 476 -539 C378 -539 347 -39 347 48 L347 48 Z M168 129 C108 129 104 231 104 272 C104 346 126 514 226 514 C253 514 271 490 286 470 C270 403 264 278 246 228 C235 201 200 129 168 129 L168 129 Z " />
<glyph glyph-name="r" unicode="r" horiz-adv-x="361" d="M272 25 C201 33 281 337 281 381 C281 406 264 433 245 445 C209 464 175 452 139 460 C160 507 174 553 177 604 C177 617 171 667 133 670 C78 673 56 621 56 571 C56 540 64 506 83 478 C90 467 100 457 109 449 L48 292 L71 292 C111 401 116 407 129 439 C144 435 161 433 170 433 C174 433 176 432 177 429 C178 426 175 418 172 410 L171 408 C160 363 138 250 138 161 C138 69 157 -26 225 -37 C277 -45 328 37 363 110 L398 179 L450 299 L429 306 C373 183 304 27 274 24 L272 25 Z M80 573 C80 612 95 647 132 644 C148 643 154 626 154 603 C154 576 149 548 139 518 C132 498 126 481 119 469 C91 498 80 536 80 573 L80 573 Z " />
<glyph glyph-name="s" unicode="s" horiz-adv-x="343" d="M332 304 C309 265 284 224 244 201 C196 273 82 428 82 512 C82 541 95 573 128 573 C194 573 211 511 195 460 L214 459 C218 471 220 495 220 507 C220 573 161 610 99 610 C40 610 -20 552 -20 491 C-20 406 84 237 121 152 C94 125 59 98 59 55 C59 -5 91 -59 156 -59 C238 -59 274 7 274 82 C274 116 268 148 256 178 C300 207 334 258 357 305 L332 304 Z M82 51 C82 78 108 118 134 128 C149 101 157 73 157 43 C157 22 149 -19 121 -19 C89 -19 82 27 82 51 L82 51 Z " />
<glyph glyph-name="t" unicode="t" horiz-adv-x="299" d="M194 45 C130 45 111 167 111 303 C111 461 136 640 144 678 C144 680 144 682 145 683 L145 682 C172 675 194 670 214 670 C241 670 266 678 283 690 C302 703 315 720 330 739 C337 751 339 754 346 761 L321 762 L309 746 C294 729 280 712 264 701 C251 694 235 691 217 691 C204 691 190 693 176 697 L147 706 C147 714 148 722 151 735 C154 756 158 779 158 802 C158 842 117 870 80 870 C62 870 53 813 45 770 C43 753 41 740 39 733 C11 741 -11 743 -31 743 C-54 743 -75 738 -92 729 C-125 712 -147 678 -140 621 L-120 622 C-120 665 -114 688 -95 703 C-78 716 -57 723 -31 723 C-12 723 12 717 33 709 L33 707 C33 682 26 640 19 587 C8 503 -2 395 -2 294 C-2 138 37 -13 162 -13 C235 -13 284 103 308 155 C331 207 345 256 357 289 L365 315 L340 315 L328 278 C310 226 277 135 242 84 C226 61 210 45 194 45 L194 45 Z " />
<glyph glyph-name="u" unicode="u" horiz-adv-x="508" d="M558 300 C522 204 436 -29 391 -29 C359 -29 395 184 395 201 C403 257 422 392 422 451 C422 482 365 487 345 487 C336 487 298 348 294 339 C259 262 191 113 137 113 C91 113 124 293 132 332 C151 407 188 467 99 467 C36 467 5 252 5 199 C5 151 12 54 80 54 C180 54 258 198 300 293 L293 261 L287 219 C278 160 270 100 270 39 C270 -8 287 -98 351 -98 C392 -98 438 -34 456 -3 C499 74 554 223 581 301 L558 300 Z " />
<glyph glyph-name="v" unicode="v" horiz-adv-x="404" d="M302 611 C239 611 226 554 226 502 C226 453 249 340 284 294 C279 257 219 84 177 84 C128 84 118 323 118 360 C118 416 94 446 37 446 C12 446 -1 434 -1 409 C-1 331 16 24 125 24 C228 24 285 195 306 275 C325 260 345 249 370 249 C406 249 437 273 456 304 L434 306 C419 285 397 271 372 271 C349 271 329 283 314 300 C333 357 349 455 349 516 C349 547 347 611 302 611 L302 611 Z M301 587 C325 587 325 531 325 516 C325 458 312 372 294 317 C269 363 251 450 251 503 C251 536 258 587 301 587 L301 587 Z " />
<glyph glyph-name="w" unicode="w" horiz-adv-x="573" d="M360 586 C314 586 309 546 309 510 C309 421 394 294 456 235 C453 199 439 50 390 50 C319 50 330 282 283 373 C260 416 237 422 228 375 C217 305 194 171 155 171 C83 171 106 377 106 424 C106 469 86 522 34 522 C-3 522 -3 396 -3 369 C-3 293 -4 115 108 115 C189 115 209 201 233 261 C238 189 267 -12 363 -12 C457 -12 471 155 479 222 C494 218 506 215 521 215 C577 215 614 257 640 302 L617 303 C590 267 566 235 519 235 C505 235 492 239 481 246 C482 269 484 291 484 314 C484 427 459 586 360 586 L360 586 Z M461 306 C461 291 460 276 459 261 C402 329 333 426 333 518 C333 531 336 562 356 562 C433 562 461 449 461 306 L461 306 Z " />
<glyph glyph-name="x" unicode="x" horiz-adv-x="525" d="M33 -47 C40 -51 46 -51 49 -51 C108 -51 194 123 223 187 C230 175 230 168 238 145 C259 89 282 17 331 17 C399 17 526 259 546 312 L525 312 C458 184 441 157 426 137 C409 113 392 97 387 97 C355 97 300 268 296 301 C313 343 417 543 455 543 C466 543 468 525 468 517 C468 512 466 499 465 487 L484 487 C487 499 487 509 487 520 C487 545 476 561 447 561 C406 561 340 438 303 367 L285 336 C263 385 250 533 175 533 C103 533 54 341 50 288 L69 288 C88 369 105 447 137 447 C166 447 210 254 210 225 C210 185 92 -25 55 -25 C47 -25 43 -21 42 -13 L17 -13 L22 -36 L33 -47 Z " />
<glyph glyph-name="y" unicode="y" horiz-adv-x="540" d="M434 328 C434 359 438 423 398 447 C370 464 339 461 324 424 C284 331 269 119 163 119 C118 119 118 194 118 226 C118 393 186 472 186 531 C186 557 150 570 130 570 C63 570 8 324 8 266 C8 185 24 69 127 69 C243 69 307 240 326 334 L326 320 C326 248 319 179 315 107 C151 12 46 -208 46 -394 C46 -469 73 -596 171 -596 C348 -596 423 -17 423 119 C496 159 558 228 577 311 L555 305 C524 236 490 189 425 149 C433 209 434 268 434 328 L434 328 Z M72 -400 C72 -226 157 -17 310 77 C290 -31 210 -519 122 -543 C78 -522 72 -441 72 -400 L72 -400 Z " />
<glyph glyph-name="z" unicode="z" horiz-adv-x="512" d="M557 309 L539 281 C515 245 487 208 460 180 C445 167 430 150 415 137 C403 126 389 116 377 109 C354 149 327 183 288 203 C361 235 401 325 401 410 C401 496 354 575 250 575 C132 575 85 415 58 322 L49 291 L73 291 C97 373 141 530 239 530 C283 530 304 476 304 410 C304 338 283 261 247 216 C238 219 230 218 219 218 C183 218 143 206 143 165 C143 149 156 126 180 126 C216 126 237 151 257 174 L257 173 L259 175 C300 156 303 104 303 55 C174 -49 61 -273 61 -433 C61 -505 67 -606 166 -606 C255 -606 312 -550 349 -469 C387 -386 420 -243 420 -110 C420 -38 411 29 388 85 L420 111 C480 159 526 218 565 279 C578 299 580 309 571 309 L557 309 Z M83 -432 C83 -277 186 -75 303 26 C299 -100 282 -564 133 -564 C88 -564 83 -464 83 -432 L83 -432 Z M201 158 C192 153 184 151 176 154 C170 155 167 160 167 167 C167 190 194 196 217 196 C229 196 236 194 240 193 C239 185 221 169 201 158 L201 158 Z " />
<glyph glyph-name="braceleft" unicode="&#x7b;" horiz-adv-x="224" d="M68 790 C68 754 68 727 71 700 C74 665 75 629 75 560 C75 445 42 420 24 410 L27 411 L23 409 C11 402 5 389 16 380 L20 375 L20 376 C32 361 56 333 56 239 C56 163 55 120 54 81 C53 49 53 22 53 -17 C53 -76 59 -129 90 -158 C114 -177 147 -176 174 -175 C182 -175 195 -174 202 -174 L202 -148 C197 -148 142 -148 134 -138 C122 -119 109 -84 109 -7 C109 73 111 124 112 169 C113 200 114 227 114 254 C114 314 96 350 80 369 C73 376 65 384 58 388 C69 393 81 400 92 409 C116 432 139 475 139 562 C139 595 136 639 133 686 C129 735 126 783 126 819 C126 859 132 889 145 908 C154 920 200 924 220 924 L220 947 C207 947 148 948 118 929 C91 910 68 877 68 790 L68 790 Z " />
<glyph glyph-name="bar" unicode="&#x7c;" horiz-adv-x="135" d="M61 846 C44 843 33 -55 34 -114 L64 -115 C69 -110 71 102 74 290 C74 341 76 390 76 441 C79 608 80 780 85 839 L61 846 Z " />
<glyph glyph-name="braceright" unicode="&#x7d;" horiz-adv-x="217" d="M151 790 C151 877 127 910 102 929 C72 948 12 947 0 947 L-1 924 C20 924 65 920 74 908 C89 889 94 859 94 819 C94 783 91 735 87 686 C84 639 80 595 80 562 C80 475 104 432 127 409 C138 400 149 392 161 388 L139 369 C123 350 106 314 106 254 C106 227 107 200 108 169 C109 124 111 73 111 -7 C111 -84 98 -119 85 -138 C77 -148 22 -148 18 -148 L18 -174 C23 -174 39 -175 46 -175 C73 -176 106 -177 129 -158 C162 -130 167 -77 167 -17 C167 22 167 49 166 81 C165 120 164 163 164 239 C164 333 187 361 199 376 L199 375 L203 380 C214 389 208 402 196 409 C195 409 194 410 193 410 L195 410 C178 421 144 444 144 560 C144 625 145 667 148 700 C151 728 151 751 151 790 L151 790 Z " />
<glyph glyph-name="asciitilde" unicode="&#x7e;" horiz-adv-x="371" d="M92 914 C107 914 127 904 148 891 C181 872 218 852 257 852 C286 852 323 874 323 907 C323 915 317 945 301 945 C294 936 296 934 299 931 L302 928 L301 928 C302 924 303 922 303 921 C303 898 282 888 263 888 C238 888 212 903 187 918 C160 933 134 948 111 948 C88 948 59 927 59 902 L60 882 C75 882 73 888 76 896 C79 904 81 914 92 914 L92 914 Z " />
<glyph glyph-name="exclamdown" unicode="&#xa1;" horiz-adv-x="317" d="M90 673 C91 637 109 612 144 615 C171 615 192 643 191 667 C188 702 175 732 138 731 C103 730 89 705 90 673 L90 673 Z M119 504 C106 493 99 439 99 311 C99 266 100 214 101 150 C106 -59 110 -86 138 -101 L137 -101 C149 -109 163 -111 182 -111 C214 -111 221 -91 228 -72 L228 -73 L231 -64 C239 -48 237 -39 229 46 C218 139 215 185 207 241 L187 423 C179 499 174 510 145 510 C136 510 125 507 120 504 L119 504 Z " />
<glyph glyph-name="cent" unicode="&#xa2;" horiz-adv-x="387" d="M222 840 C215 889 209 886 206 847 L190 846 C183 846 178 721 173 564 C58 559 -11 432 -11 297 C-11 173 44 19 155 19 L164 19 C163 -52 163 -102 163 -114 L193 -115 C196 -112 197 -55 200 25 C236 36 269 56 296 83 C323 108 347 144 364 173 C402 235 417 300 417 307 L401 307 L401 297 C402 297 376 238 345 184 C330 161 312 135 293 118 C273 99 249 87 222 87 C214 87 208 88 201 89 L204 290 C204 341 206 390 206 441 C206 465 206 489 207 514 C231 507 246 488 249 461 L243 456 C242 453 244 451 259 454 L268 455 C269 472 262 512 238 537 C229 546 219 554 207 559 C207 682 209 794 214 839 L222 840 Z M103 328 C103 369 114 442 137 483 L137 482 C146 497 157 509 172 514 C169 378 166 230 165 107 C114 150 103 253 103 328 L103 328 Z " />
<glyph glyph-name="sterling" unicode="&#xa3;" horiz-adv-x="363" d="M467 668 C492 685 511 710 520 731 C524 741 526 752 526 763 C526 858 379 889 288 862 C204 838 171 732 174 655 C171 578 167 503 160 427 L98 427 L90 419 L90 420 C71 408 72 403 87 398 C92 393 106 391 157 391 C145 287 127 185 98 88 C85 91 57 90 38 69 L38 70 C25 57 10 35 10 0 C10 -33 46 -45 75 -45 C88 -45 100 -43 111 -38 C138 -26 158 -9 170 15 C317 -102 529 -84 629 40 L612 56 C533 -66 268 -75 184 46 C224 157 246 272 259 391 C411 391 411 392 411 408 C411 424 402 427 262 427 C270 507 274 586 277 665 C277 691 279 766 336 804 C373 828 505 829 505 761 C505 736 487 709 456 686 L467 668 Z M81 47 C49 -29 31 -10 31 -2 C31 10 35 25 40 36 L39 36 C50 60 75 74 91 65 L81 47 Z " />
<glyph glyph-name="currency" unicode="&#xa4;" horiz-adv-x="368" d="M52 626 L63 602 L62 602 C73 579 91 540 107 497 C47 470 2 414 2 323 C2 226 50 165 118 138 C98 71 82 16 74 -15 L115 -11 C127 34 143 83 158 127 C170 125 183 124 197 124 C210 124 219 125 230 128 L278 -10 L318 -10 C302 39 283 92 267 143 L270 146 L269 146 C296 162 316 187 329 218 C341 249 346 286 346 321 C346 367 339 437 288 482 L289 482 L284 486 L268 500 C285 557 300 605 313 634 L279 639 C272 639 263 608 248 564 C243 548 236 531 231 516 C220 519 209 519 197 519 C180 519 161 516 141 511 C114 587 92 636 83 635 L52 626 Z M230 151 C223 148 215 147 206 147 C130 147 112 268 112 320 C112 378 127 499 204 499 C276 499 322 425 322 323 C322 235 284 181 252 160 L253 161 L230 151 Z " />
<glyph glyph-name="yen" unicode="&#xa5;" horiz-adv-x="732" d="M87 844 C100 840 105 798 105 746 C105 612 16 230 247 230 C409 230 481 490 517 622 C513 505 508 384 499 267 L492 207 L468 207 L202 207 L189 199 L189 200 C154 188 158 183 183 178 C197 172 239 172 469 172 L438 140 L437 139 L202 139 L189 131 C154 120 158 116 183 109 C194 103 241 103 402 103 C295 -10 199 -134 199 -294 C199 -355 222 -420 301 -420 C469 -420 552 -89 584 103 C759 103 764 105 764 120 C764 134 751 135 590 138 L595 172 C760 172 764 175 764 188 C764 201 753 203 604 206 C702 246 780 358 818 447 L795 447 C753 368 693 269 602 234 C617 323 619 447 619 564 L619 732 C619 778 622 841 584 841 C565 841 544 835 528 831 C524 722 429 282 296 282 C221 282 212 393 217 516 C221 650 275 932 56 872 C7 858 -37 818 -37 771 C-36 742 -15 711 10 687 L29 703 C6 727 -13 748 -13 771 C-13 821 44 852 87 844 L87 844 Z M471 103 L478 103 C454 -53 387 -343 270 -343 C237 -343 226 -315 226 -280 C226 -227 252 -151 265 -125 C304 -41 365 31 436 103 L471 103 Z M485 150 L483 139 L473 139 L485 150 Z " />
<glyph glyph-name="brokenbar" unicode="&#xa6;" horiz-adv-x="135" d="M40 355 C36 159 34 38 34 11 L64 10 C69 15 74 153 77 359 L40 355 Z M93 840 C86 889 80 886 76 847 L61 846 C50 843 43 700 40 491 L77 492 C80 667 80 784 85 839 L93 840 Z " />
<glyph glyph-name="section" unicode="&#xa7;" horiz-adv-x="428" d="M200 729 C144 729 74 686 74 619 C74 558 119 518 161 476 C202 437 242 399 249 343 C234 353 216 358 195 358 C139 358 97 333 74 290 C66 274 65 261 65 246 C65 203 95 161 127 120 C159 77 197 30 197 -27 C197 -84 176 -127 119 -127 C86 -127 65 -95 65 -60 C65 -35 76 -7 107 13 L94 32 C57 7 41 -25 41 -57 C41 -117 93 -178 146 -178 C255 -178 295 -118 295 -42 C295 34 248 126 197 183 C276 186 357 223 357 321 C357 419 289 482 234 529 C198 561 168 588 168 617 C168 656 195 694 234 694 C261 694 273 676 278 665 C282 661 284 657 291 657 L303 666 C279 722 224 725 205 728 C202 728 201 729 200 729 L200 729 Z M206 333 C229 333 249 319 249 294 C249 254 234 212 190 212 C175 212 165 223 158 239 C152 254 149 268 149 281 C149 312 166 333 206 333 L206 333 Z " />
<glyph glyph-name="dieresis" unicode="&#xa8;" horiz-adv-x="302" d="M33 793 C32 766 45 746 77 745 C112 744 122 770 125 798 C126 818 106 841 82 841 C49 844 34 824 33 793 L33 793 Z M160 793 C159 766 173 746 204 745 C239 744 249 770 252 798 C253 818 234 841 209 841 C176 844 161 824 160 793 L160 793 Z " />
<glyph glyph-name="copyright" unicode="&#xa9;" horiz-adv-x="369" d="M187 309 C337 309 361 470 361 538 C361 606 323 771 187 771 C27 771 -3 640 -11 536 C-8 436 40 309 187 309 L187 309 Z M32 538 C32 593 54 750 187 750 C317 750 341 593 341 538 C341 471 317 331 187 331 C86 331 32 454 32 538 L32 538 Z M99 535 C99 488 123 428 172 428 C195 428 217 441 233 453 C245 464 256 476 263 487 C278 511 285 539 285 542 L272 542 C271 537 269 531 266 526 C262 517 257 506 250 495 C242 484 236 476 225 469 C219 463 210 460 199 460 C161 460 152 511 152 548 C152 564 158 588 167 603 C173 613 182 617 193 614 C202 613 208 601 211 582 C218 595 220 618 208 629 L209 629 C202 636 194 639 183 639 C130 639 99 590 99 535 L99 535 Z " />
<glyph glyph-name="ordfeminine" unicode="&#xaa;" horiz-adv-x="383" d="M294 467 C291 458 286 446 279 431 C271 412 246 341 233 341 C216 341 217 423 217 435 C217 468 220 502 220 534 C220 555 204 572 183 572 C162 572 147 381 97 381 C66 381 67 431 67 452 C67 486 80 591 128 591 C149 591 149 571 157 558 L166 561 C158 588 142 611 111 611 C30 611 8 507 8 444 C8 400 29 350 79 350 C118 350 150 420 158 452 C162 423 170 304 212 304 C235 304 256 341 272 381 C283 412 301 447 306 466 L294 467 Z " />
<glyph glyph-name="guillemotleft" unicode="&#xab;" horiz-adv-x="549" d="M235 555 C218 555 29 396 29 376 L254 188 L270 210 L182 290 L102 362 L271 510 C271 537 264 555 235 555 L235 555 Z M424 555 C406 555 218 396 218 376 L442 188 L458 210 L370 290 L291 362 L459 510 C459 537 452 555 424 555 L424 555 Z " />
<glyph glyph-name="logicalnot" unicode="&#xac;" horiz-adv-x="462" d="M322 345 C322 336 322 323 323 308 L323 275 C323 232 327 233 346 233 C361 233 366 235 366 278 C366 299 365 332 363 378 C352 385 315 385 275 385 L213 385 L77 385 L73 376 L73 377 C61 364 62 359 71 352 C73 345 91 345 173 345 L322 345 Z " />
<glyph glyph-name="uni00AD" unicode="&#xad;" horiz-adv-x="418" d="M76 348 C84 349 111 351 186 351 C383 351 379 352 379 368 C379 384 368 386 184 386 L89 386 L84 378 L84 379 C73 366 74 361 81 354 C81 351 79 349 76 348 L76 348 Z " />
<glyph glyph-name="registered" unicode="&#xae;" horiz-adv-x="369" d="M187 309 C337 309 361 470 361 538 C361 606 323 771 187 771 C27 771 -3 640 -11 536 C-8 436 40 309 187 309 L187 309 Z M32 538 C32 593 54 750 187 750 C317 750 341 593 341 538 C341 471 317 331 187 331 C86 331 32 454 32 538 L32 538 Z M123 651 C116 650 110 646 104 639 C100 634 99 629 100 622 C101 615 107 609 114 602 L120 607 C117 610 118 614 115 618 L112 624 C111 627 112 630 116 634 C132 645 139 592 139 574 C128 547 116 500 116 468 C116 449 122 438 137 438 C169 438 172 496 172 543 C179 538 185 529 188 522 L191 507 L191 508 L193 494 C198 455 210 398 241 398 C264 398 280 420 288 465 L274 464 C271 445 265 423 253 423 C235 423 229 457 224 487 L222 498 C217 525 216 541 193 554 C213 569 234 590 234 619 C234 638 223 653 204 653 C181 653 169 631 161 614 C154 635 143 655 124 652 L123 651 Z M170 601 C177 613 186 632 195 633 C216 620 189 570 172 559 C171 572 170 587 167 595 L170 601 Z M132 452 C129 453 127 458 127 468 C127 487 133 515 140 539 C140 511 141 446 132 452 L132 452 Z " />
<glyph glyph-name="macron" unicode="&#xaf;" horiz-adv-x="358" d="M22 783 C31 784 57 786 132 786 C329 786 326 787 326 803 C326 820 315 818 130 821 L36 821 L31 812 L31 813 C19 801 20 796 28 789 C28 786 26 784 22 783 L22 783 Z " />
<glyph glyph-name="degree" unicode="&#xb0;" horiz-adv-x="187" d="M29 791 C29 760 44 722 92 722 C143 722 150 771 150 791 C150 810 137 860 92 860 C39 860 32 821 29 791 L29 791 Z M60 791 C60 803 64 836 92 836 C120 836 125 803 125 791 C125 777 120 746 92 746 C71 746 60 772 60 791 L60 791 Z " />
<glyph glyph-name="plusminus" unicode="&#xb1;" horiz-adv-x="422" d="M89 386 L84 378 L84 379 C74 369 73 361 80 355 C83 346 95 347 157 347 C157 234 158 233 191 233 C225 233 224 239 229 346 C289 346 290 351 290 366 C290 379 284 385 229 385 L229 456 L213 464 C190 475 183 474 172 467 C159 462 157 452 157 386 L89 386 Z M185 160 C292 160 290 160 290 178 C290 198 284 196 184 199 L89 199 L84 190 L84 191 C72 178 73 174 82 167 C87 160 102 160 185 160 L185 160 Z " />
<glyph glyph-name="twosuperior" unicode="&#xb2;" horiz-adv-x="161" d="M146 527 C141 516 136 508 123 508 C115 508 107 512 98 517 C82 527 69 532 58 532 C47 532 34 526 21 515 C24 552 50 577 78 596 L87 603 C116 622 143 643 143 682 C143 701 136 746 79 746 C40 746 21 723 21 700 C21 693 24 685 29 678 C34 671 42 666 50 666 C59 666 68 671 76 678 C73 682 72 682 72 682 C64 677 58 672 50 672 C44 672 39 675 34 681 C31 686 29 693 29 700 C29 719 42 739 76 739 C99 739 106 713 106 685 C106 655 89 639 74 624 C41 596 11 563 11 507 C11 502 18 504 23 508 C38 520 48 526 59 526 C68 526 80 521 92 514 C101 507 111 502 123 502 C142 502 148 517 151 525 L146 527 Z " />
<glyph glyph-name="threesuperior" unicode="&#xb3;" horiz-adv-x="151" d="M67 503 C56 503 43 507 35 514 C26 522 18 534 18 546 C18 554 21 561 28 568 L27 576 C15 567 11 556 11 547 C11 534 18 520 30 509 C41 500 56 494 75 494 C105 494 148 518 148 569 C148 595 134 612 119 622 L94 636 L95 636 L94 636 C102 640 109 643 116 648 C129 656 142 674 142 701 C142 729 117 756 74 756 C55 756 40 750 29 741 C17 730 10 716 10 704 C10 693 14 683 26 674 L28 682 C20 689 17 696 17 704 C17 716 25 728 34 736 C42 743 54 747 66 747 C86 747 105 731 105 699 C105 670 95 655 79 647 C74 643 65 641 57 638 L57 634 C66 631 72 628 77 626 C96 615 110 600 110 563 C110 535 88 503 67 503 L67 503 Z " />
<glyph glyph-name="acute" unicode="&#xb4;" horiz-adv-x="280" d="M178 921 C208 945 170 951 148 943 C100 922 46 826 35 783 C28 762 32 752 51 771 C67 787 130 876 178 921 L178 921 Z " />
<glyph glyph-name="mu" unicode="&#xb5;" horiz-adv-x="833" d="M12 -31 C12 -90 43 -144 109 -144 C183 -144 206 71 214 166 C215 175 216 182 213 194 C234 122 295 86 359 86 C403 86 448 104 480 143 C496 95 539 9 604 9 C642 9 646 67 649 118 C642 115 640 116 640 113 L631 113 C630 110 629 99 628 92 C625 69 623 37 611 37 C557 37 546 196 546 230 L562 591 L486 589 L476 207 C451 144 405 107 360 107 C304 107 250 157 235 233 L233 247 C232 254 231 269 230 273 L244 603 L153 605 L141 123 C133 -2 118 -114 84 -114 C49 -114 33 -63 33 -35 C33 -22 35 -9 46 10 L21 12 C16 -3 12 -16 12 -31 L12 -31 Z " />
<glyph glyph-name="paragraph" unicode="&#xb6;" horiz-adv-x="606" d="M389 611 C389 507 386 372 386 258 C383 131 383 0 383 -127 L424 -126 L440 603 C456 596 472 586 491 567 L521 579 C521 602 434 656 394 664 C365 668 328 669 317 669 C173 669 60 556 60 411 C60 255 169 193 309 164 L306 -128 L348 -126 C360 454 368 579 372 627 C387 626 389 623 389 611 L389 611 Z " />
<glyph glyph-name="periodcentered" unicode="&#xb7;" horiz-adv-x="167" d="M28 374 C27 347 41 327 72 326 C107 325 118 351 121 379 C122 399 102 422 77 422 C45 425 29 405 28 374 L28 374 Z " />
<glyph glyph-name="cedilla" unicode="&#xb8;" horiz-adv-x="258" d="M101 4 C104 -11 115 -31 124 -48 L127 -54 C140 -79 154 -105 154 -122 C154 -132 148 -137 136 -137 C86 -137 64 -106 54 -91 L52 -76 L44 -84 C31 -75 21 -84 29 -101 C42 -117 81 -162 137 -162 C177 -162 189 -142 189 -115 C189 -96 183 -72 176 -51 L173 -41 C166 -26 162 -11 161 4 L101 4 Z " />
<glyph glyph-name="onesuperior" unicode="&#xb9;" horiz-adv-x="99" d="M48 754 C45 754 43 751 40 746 L35 738 L31 731 C27 727 24 721 21 716 L20 714 C15 707 11 701 4 694 C8 694 11 693 15 693 C27 706 32 715 39 726 L40 729 C40 729 41 731 41 731 C41 706 40 688 40 662 C40 661 39 659 39 658 C36 611 34 566 34 518 C34 507 43 502 62 502 C79 502 80 508 80 515 L80 532 L82 629 L82 654 L82 710 C82 725 83 733 83 736 L83 737 C83 744 84 754 48 754 L48 754 Z " />
<glyph glyph-name="ordmasculine" unicode="&#xba;" horiz-adv-x="373" d="M332 325 C332 396 306 551 210 551 C141 551 137 476 142 423 C136 443 110 489 86 489 C34 489 6 331 6 290 C6 192 11 42 143 42 C234 42 287 157 317 227 C373 227 416 265 445 305 L422 306 C397 275 367 251 324 251 C329 276 332 298 332 325 L332 325 Z M293 231 C277 191 230 88 178 88 C126 88 121 219 121 254 C121 309 129 358 145 409 L145 410 C167 327 216 268 293 231 L293 231 Z M164 451 C164 486 167 527 211 527 C287 527 309 384 309 328 C309 304 309 277 301 254 C224 283 164 367 164 451 L164 451 Z " />
<glyph glyph-name="guillemotright" unicode="&#xbb;" horiz-adv-x="549" d="M65 555 C36 555 29 537 29 510 C86 461 142 410 198 362 L117 290 L28 211 L46 188 L271 376 C271 396 83 555 65 555 L65 555 Z M253 555 C225 555 218 537 218 510 C274 461 330 410 386 362 L305 290 L217 211 L234 188 L459 376 C459 396 271 555 253 555 L253 555 Z " />
<glyph glyph-name="onequarter" unicode="&#xbc;" horiz-adv-x="664" d="M77 746 C74 746 70 742 66 735 L60 726 L53 717 C49 710 44 705 40 698 L38 694 C31 686 25 677 17 669 C22 669 27 668 32 668 C48 685 56 697 65 710 L67 714 C67 714 68 717 68 717 C68 684 69 661 66 628 C66 627 65 623 65 622 C62 562 59 504 59 443 C59 429 72 422 97 422 C121 422 123 429 123 438 L123 460 L125 585 L125 617 L125 689 C125 708 126 721 126 722 L126 725 C126 734 128 746 77 746 L77 746 Z M379 821 C364 821 157 76 146 19 L173 10 C184 18 233 208 284 387 C288 399 291 413 294 425 C334 583 380 746 401 806 L379 821 Z M539 223 C534 216 528 213 524 210 L525 211 L524 210 C520 207 516 204 511 203 L511 262 L511 373 C511 378 512 384 512 391 L512 423 C512 434 498 438 487 438 C476 438 468 436 468 432 C468 397 419 283 350 218 C347 214 351 211 354 210 C359 215 379 220 393 220 C412 220 423 215 436 208 C444 204 459 197 471 194 C471 160 470 130 470 118 L470 112 C470 104 483 95 496 95 C509 95 512 108 512 117 L513 122 L513 194 C517 195 521 198 529 203 C534 207 540 210 544 217 L539 223 Z M393 229 C391 229 389 229 386 228 L381 228 C377 227 375 226 371 226 C388 245 401 263 412 282 C433 310 457 355 473 399 L473 340 C470 301 471 246 471 203 C459 206 447 211 442 214 C427 221 412 229 393 229 L393 229 Z " />
<glyph glyph-name="onehalf" unicode="&#xbd;" horiz-adv-x="729" d="M407 806 C415 857 408 857 393 818 L379 821 C363 821 156 76 145 19 L173 10 C181 18 235 207 283 387 C287 399 290 413 293 425 C333 583 382 745 400 806 L407 806 Z M79 746 C74 746 71 742 66 735 L60 726 L40 697 C33 686 29 679 10 664 C13 664 30 663 31 663 C47 675 57 689 66 704 L66 703 L67 706 C68 707 68 707 68 708 L64 619 C61 559 58 501 58 440 C58 424 72 416 99 416 C124 416 126 424 126 436 L126 457 L128 582 L128 614 C128 658 129 696 129 712 L129 720 C129 733 131 746 79 746 L79 746 Z M562 134 C555 121 550 107 534 107 C525 107 516 113 505 120 C485 135 469 142 457 142 C442 142 428 133 412 118 C416 169 448 205 481 232 L492 242 C524 269 559 299 559 355 C559 380 550 445 482 445 C435 445 413 411 413 380 C413 369 416 358 421 349 C429 338 438 332 447 332 C458 332 468 338 478 349 L473 355 C464 346 455 341 448 341 C441 341 434 345 428 353 C423 361 421 370 421 380 C421 407 439 436 478 436 C506 436 514 398 514 358 C514 315 495 295 475 272 L475 273 C436 231 401 188 401 106 C401 99 408 101 415 108 C432 125 446 133 458 133 C469 133 482 127 497 116 C508 108 519 99 534 99 C557 99 565 121 568 132 L562 134 Z " />
<glyph glyph-name="threequarters" unicode="&#xbe;" horiz-adv-x="740" d="M411 821 C396 821 189 76 178 19 L205 10 C216 18 265 208 316 387 C320 399 323 413 326 425 C366 583 412 746 433 806 L411 821 Z M90 433 C78 433 63 438 55 446 C44 457 37 472 37 485 C37 496 40 504 48 513 L46 522 C34 511 29 499 29 486 C29 470 37 453 50 440 C61 429 79 422 98 422 C132 422 177 452 177 514 C177 545 162 565 146 578 C139 583 130 590 119 595 L120 595 L119 595 C127 599 135 604 142 609 C157 622 170 639 170 674 C170 708 143 742 97 742 C78 742 60 735 49 724 C36 711 28 694 28 678 C28 665 33 653 45 642 L47 651 C39 660 36 668 36 679 C36 692 43 707 54 718 C62 726 76 731 89 731 C110 731 130 712 130 672 C130 637 119 620 103 608 C96 605 88 601 79 598 L79 592 C88 589 95 586 100 583 C120 570 137 552 137 506 C137 471 111 433 90 433 L90 433 Z M539 223 C534 216 528 213 524 210 L525 211 L524 210 C520 207 516 204 511 203 L511 262 L511 373 C511 378 512 384 512 391 L512 423 C512 434 498 438 487 438 C476 438 468 436 468 432 C468 397 419 283 350 218 C347 214 351 211 354 210 C359 215 379 220 393 220 C412 220 423 215 436 208 C444 204 459 197 471 194 C471 160 470 130 470 118 L470 112 C470 104 483 95 496 95 C509 95 512 108 512 117 L513 122 L513 194 C517 195 521 198 529 203 C534 207 540 210 544 217 L539 223 Z M393 229 C391 229 389 229 386 228 L381 228 C377 227 375 226 371 226 C388 245 401 263 412 282 C433 310 457 355 473 399 L473 340 C470 301 471 246 471 203 C459 206 447 211 442 214 C427 221 412 229 393 229 L393 229 Z " />
<glyph glyph-name="questiondown" unicode="&#xbf;" horiz-adv-x="346" d="M136 559 C141 417 180 338 216 275 C247 222 278 163 278 75 C278 63 277 46 276 34 C268 -40 239 -112 179 -112 C93 -104 51 -39 56 10 C59 42 81 88 123 83 C142 82 162 69 181 48 L198 65 C177 89 147 103 123 106 C69 111 35 54 30 9 C25 -57 73 -130 187 -141 C347 -152 379 -18 384 37 C392 159 332 244 276 318 C228 381 172 455 169 552 L136 559 Z M103 667 C106 628 125 603 168 606 C200 606 227 634 224 661 C221 696 206 728 161 727 C120 724 102 700 103 667 L103 667 Z " />
<glyph glyph-name="Agrave" unicode="&#xc0;" horiz-adv-x="701" d="M276 514 C228 517 155 498 136 440 L157 441 C177 477 221 498 272 491 C256 414 176 -42 92 -42 C38 -42 27 41 27 81 C27 123 43 183 88 199 L89 220 C26 212 4 131 4 78 C4 27 22 -66 89 -66 C198 -66 279 402 295 485 L419 448 C427 290 413 -242 649 -242 C763 -242 796 -18 808 65 L785 67 C780 12 756 -181 680 -181 C543 -181 521 318 521 418 C537 415 554 412 570 412 C625 412 666 435 681 490 L660 494 C651 451 611 436 572 436 C556 436 538 438 522 441 C518 517 533 929 426 929 C374 929 293 568 276 514 L276 514 Z M407 874 C418 753 420 632 419 472 C380 483 341 496 302 507 C329 628 362 759 407 874 L407 874 Z M303 1123 C351 1078 414 989 430 973 C449 954 453 964 446 985 C433 1028 383 1123 333 1145 C311 1153 273 1147 303 1123 L303 1123 Z " />
<glyph glyph-name="Aacute" unicode="&#xc1;" horiz-adv-x="701" d="M276 514 C228 517 155 498 136 440 L157 441 C177 477 221 498 272 491 C256 414 176 -42 92 -42 C38 -42 27 41 27 81 C27 123 43 183 88 199 L89 220 C26 212 4 131 4 78 C4 27 22 -66 89 -66 C198 -66 279 402 295 485 L419 448 C427 290 413 -242 649 -242 C763 -242 796 -18 808 65 L785 67 C780 12 756 -181 680 -181 C543 -181 521 318 521 418 C537 415 554 412 570 412 C625 412 666 435 681 490 L660 494 C651 451 611 436 572 436 C556 436 538 438 522 441 C518 517 533 929 426 929 C374 929 293 568 276 514 L276 514 Z M407 874 C418 753 420 632 419 472 C380 483 341 496 302 507 C329 628 362 759 407 874 L407 874 Z M459 1120 C489 1144 451 1150 429 1142 C381 1121 327 1025 316 982 C309 961 313 951 332 970 C348 986 411 1075 459 1120 L459 1120 Z " />
<glyph glyph-name="Acircumflex" unicode="&#xc2;" horiz-adv-x="701" d="M276 514 C228 517 155 498 136 440 L157 441 C177 477 221 498 272 491 C256 414 176 -42 92 -42 C38 -42 27 41 27 81 C27 123 43 183 88 199 L89 220 C26 212 4 131 4 78 C4 27 22 -66 89 -66 C198 -66 279 402 295 485 L419 448 C427 290 413 -242 649 -242 C763 -242 796 -18 808 65 L785 67 C780 12 756 -181 680 -181 C543 -181 521 318 521 418 C537 415 554 412 570 412 C625 412 666 435 681 490 L660 494 C651 451 611 436 572 436 C556 436 538 438 522 441 C518 517 533 929 426 929 C374 929 293 568 276 514 L276 514 Z M407 874 C418 753 420 632 419 472 C380 483 341 496 302 507 C329 628 362 759 407 874 L407 874 Z M241 948 C241 919 260 912 287 911 L435 1080 L506 998 L585 908 L608 926 L422 1152 C402 1152 241 966 241 948 L241 948 Z " />
<glyph glyph-name="Atilde" unicode="&#xc3;" horiz-adv-x="701" d="M276 514 C228 517 155 498 136 440 L157 441 C177 477 221 498 272 491 C256 414 176 -42 92 -42 C38 -42 27 41 27 81 C27 123 43 183 88 199 L89 220 C26 212 4 131 4 78 C4 27 22 -66 89 -66 C198 -66 279 402 295 485 L419 448 C427 290 413 -242 649 -242 C763 -242 796 -18 808 65 L785 67 C780 12 756 -181 680 -181 C543 -181 521 318 521 418 C537 415 554 412 570 412 C625 412 666 435 681 490 L660 494 C651 451 611 436 572 436 C556 436 538 438 522 441 C518 517 533 929 426 929 C374 929 293 568 276 514 L276 514 Z M407 874 C418 753 420 632 419 472 C380 483 341 496 302 507 C329 628 362 759 407 874 L407 874 Z M328 1033 C343 1033 363 1023 384 1010 C417 991 454 971 493 971 C522 971 559 993 559 1026 C559 1034 553 1064 537 1064 C530 1055 532 1053 535 1050 L538 1047 L537 1047 C538 1043 539 1041 539 1040 C539 1017 518 1007 499 1007 C474 1007 448 1022 423 1037 C396 1052 370 1067 347 1067 C324 1067 295 1046 295 1021 L296 1001 C311 1001 309 1007 312 1015 C315 1023 317 1033 328 1033 L328 1033 Z " />
<glyph glyph-name="Adieresis" unicode="&#xc4;" horiz-adv-x="701" d="M276 514 C228 517 155 498 136 440 L157 441 C177 477 221 498 272 491 C256 414 176 -42 92 -42 C38 -42 27 41 27 81 C27 123 43 183 88 199 L89 220 C26 212 4 131 4 78 C4 27 22 -66 89 -66 C198 -66 279 402 295 485 L419 448 C427 290 413 -242 649 -242 C763 -242 796 -18 808 65 L785 67 C780 12 756 -181 680 -181 C543 -181 521 318 521 418 C537 415 554 412 570 412 C625 412 666 435 681 490 L660 494 C651 451 611 436 572 436 C556 436 538 438 522 441 C518 517 533 929 426 929 C374 929 293 568 276 514 L276 514 Z M407 874 C418 753 420 632 419 472 C380 483 341 496 302 507 C329 628 362 759 407 874 L407 874 Z M323 1003 C322 976 335 956 367 955 C402 954 412 980 415 1008 C416 1028 396 1051 372 1051 C339 1054 324 1034 323 1003 L323 1003 Z M450 1003 C449 976 463 956 494 955 C529 954 539 980 542 1008 C543 1028 524 1051 499 1051 C466 1054 451 1034 450 1003 L450 1003 Z " />
<glyph glyph-name="Aring" unicode="&#xc5;" horiz-adv-x="701" d="M276 514 C228 517 155 498 136 440 L157 441 C177 477 221 498 272 491 C256 414 176 -42 92 -42 C38 -42 27 41 27 81 C27 123 43 183 88 199 L89 220 C26 212 4 131 4 78 C4 27 22 -66 89 -66 C198 -66 279 402 295 485 L419 448 C427 290 413 -242 649 -242 C763 -242 796 -18 808 65 L785 67 C780 12 756 -181 680 -181 C543 -181 521 318 521 418 C537 415 554 412 570 412 C625 412 666 435 681 490 L660 494 C651 451 611 436 572 436 C556 436 538 438 522 441 C518 517 533 929 426 929 C374 929 293 568 276 514 L276 514 Z M407 874 C418 753 420 632 419 472 C380 483 341 496 302 507 C329 628 362 759 407 874 L407 874 Z M289 991 C289 960 304 922 352 922 C403 922 410 971 410 991 C410 1010 397 1060 352 1060 C299 1060 292 1021 289 991 L289 991 Z M320 991 C320 1003 324 1036 352 1036 C380 1036 385 1003 385 991 C385 977 380 946 352 946 C331 946 320 972 320 991 L320 991 Z " />
<glyph glyph-name="AE" unicode="&#xc6;" horiz-adv-x="1103" d="M917 91 C917 182 847 249 760 249 C672 249 593 198 542 127 C526 243 521 359 521 418 C536 415 551 412 570 412 C621 412 668 434 685 494 L660 494 C652 459 625 436 572 436 C557 436 541 438 522 441 C519 457 519 564 519 595 C519 645 516 848 456 912 C446 923 436 929 426 929 C382 929 349 775 341 743 C329 704 317 655 298 591 C291 564 283 538 276 513 C259 516 229 510 202 499 C171 486 144 467 136 440 L158 440 C177 475 238 499 272 491 C240 340 171 -42 92 -42 C48 -42 27 20 27 81 C27 133 51 186 88 199 L88 208 C88 212 89 219 89 220 C34 212 4 144 4 78 C4 7 33 -66 89 -66 C180 -66 243 223 295 485 C334 474 380 460 419 448 L422 372 C425 236 433 21 492 -115 C503 -148 521 -175 546 -198 C569 -221 596 -235 626 -240 L628 -240 C641 -243 657 -246 672 -246 C516 -318 428 -439 428 -618 C428 -790 523 -933 708 -933 C947 -933 1048 -583 1096 -391 C1095 -391 1088 -390 1085 -390 C1083 -389 1079 -389 1072 -389 C1040 -514 956 -841 798 -841 C658 -841 601 -656 601 -543 C601 -407 677 -283 800 -222 L799 -211 C784 -214 753 -220 740 -220 C653 -220 613 -142 613 -63 C613 37 718 184 830 184 C880 184 893 134 893 93 C889 36 859 8 822 8 C801 8 778 17 754 35 L741 13 C773 -11 801 -17 828 -16 C875 -13 910 26 917 91 L917 91 Z M407 874 C415 783 420 687 420 551 L420 511 C420 498 419 485 419 472 C379 483 342 496 302 507 C318 573 387 831 407 874 L407 874 Z " />
<glyph glyph-name="Ccedilla" unicode="&#xc7;" horiz-adv-x="606" d="M561 711 C561 810 504 922 387 922 C90 922 9 524 13 283 C13 77 96 -176 309 -168 L321 -189 C334 -214 348 -240 348 -257 C348 -267 342 -272 330 -272 C278 -272 259 -242 248 -226 L246 -211 L238 -219 C225 -210 215 -219 223 -236 C236 -252 275 -297 331 -297 C371 -297 383 -277 383 -250 C383 -231 377 -207 370 -186 L367 -176 L367 -177 L360 -161 C371 -158 380 -157 391 -154 C464 -131 526 -82 566 -22 C626 70 657 190 676 310 C669 310 665 309 662 308 C661 307 658 307 653 307 C625 175 581 -72 424 -72 C243 -72 175 124 175 321 C175 521 255 850 470 850 C506 850 537 785 537 714 L561 711 Z " />
<glyph glyph-name="Egrave" unicode="&#xc8;" horiz-adv-x="612" d="M496 792 C496 880 427 950 339 950 C190 950 60 801 60 656 C60 548 139 455 251 455 C95 383 7 256 7 83 C7 -89 104 -232 287 -232 C530 -232 627 124 675 310 L651 312 C619 190 532 -140 372 -140 C232 -140 180 43 180 158 C180 293 258 417 379 479 L378 490 C359 487 338 481 319 481 C232 481 192 561 192 638 C192 742 298 885 409 885 C457 885 472 834 472 794 C472 753 445 709 401 709 C376 709 352 721 333 736 L320 714 C345 695 374 685 407 685 C459 685 496 744 496 792 L496 792 Z M259 1160 C307 1115 370 1026 386 1010 C405 991 409 1001 402 1022 C389 1065 339 1160 289 1182 C267 1190 229 1184 259 1160 L259 1160 Z " />
<glyph glyph-name="Eacute" unicode="&#xc9;" horiz-adv-x="612" d="M496 792 C496 880 427 950 339 950 C190 950 60 801 60 656 C60 548 139 455 251 455 C95 383 7 256 7 83 C7 -89 104 -232 287 -232 C530 -232 627 124 675 310 L651 312 C619 190 532 -140 372 -140 C232 -140 180 43 180 158 C180 293 258 417 379 479 L378 490 C359 487 338 481 319 481 C232 481 192 561 192 638 C192 742 298 885 409 885 C457 885 472 834 472 794 C472 753 445 709 401 709 C376 709 352 721 333 736 L320 714 C345 695 374 685 407 685 C459 685 496 744 496 792 L496 792 Z M346 1138 C376 1162 338 1168 316 1160 C268 1139 214 1043 203 1000 C196 979 200 969 219 988 C235 1004 298 1093 346 1138 L346 1138 Z " />
<glyph glyph-name="Ecircumflex" unicode="&#xca;" horiz-adv-x="612" d="M496 792 C496 880 427 950 339 950 C190 950 60 801 60 656 C60 548 139 455 251 455 C95 383 7 256 7 83 C7 -89 104 -232 287 -232 C530 -232 627 124 675 310 L651 312 C619 190 532 -140 372 -140 C232 -140 180 43 180 158 C180 293 258 417 379 479 L378 490 C359 487 338 481 319 481 C232 481 192 561 192 638 C192 742 298 885 409 885 C457 885 472 834 472 794 C472 753 445 709 401 709 C376 709 352 721 333 736 L320 714 C345 695 374 685 407 685 C459 685 496 744 496 792 L496 792 Z M123 982 C123 953 142 946 169 945 L317 1114 L388 1032 L467 942 L490 960 L304 1186 C284 1186 123 1000 123 982 L123 982 Z " />
<glyph glyph-name="Edieresis" unicode="&#xcb;" horiz-adv-x="612" d="M496 792 C496 880 427 950 339 950 C190 950 60 801 60 656 C60 548 139 455 251 455 C95 383 7 256 7 83 C7 -89 104 -232 287 -232 C530 -232 627 124 675 310 L651 312 C619 190 532 -140 372 -140 C232 -140 180 43 180 158 C180 293 258 417 379 479 L378 490 C359 487 338 481 319 481 C232 481 192 561 192 638 C192 742 298 885 409 885 C457 885 472 834 472 794 C472 753 445 709 401 709 C376 709 352 721 333 736 L320 714 C345 695 374 685 407 685 C459 685 496 744 496 792 L496 792 Z M195 1033 C194 1006 207 986 239 985 C274 984 284 1010 287 1038 C288 1058 268 1081 244 1081 C211 1084 196 1064 195 1033 L195 1033 Z M322 1033 C321 1006 335 986 366 985 C401 984 411 1010 414 1038 C415 1058 396 1081 371 1081 C338 1084 323 1064 322 1033 L322 1033 Z " />
<glyph glyph-name="Igrave" unicode="&#xcc;" horiz-adv-x="388" d="M116 751 C100 765 92 783 92 805 C92 832 114 898 148 901 C192 861 197 530 197 453 C197 360 196 -198 87 -198 C42 -198 36 -89 36 -58 C36 -21 42 11 61 43 L45 50 C21 34 13 -25 13 -52 C13 -127 22 -237 121 -237 C321 -237 319 286 319 418 C319 522 338 955 190 955 C121 955 67 867 67 805 C67 780 75 759 90 740 L116 751 Z M147 1153 C195 1108 258 1019 274 1003 C293 984 297 994 290 1015 C277 1058 227 1153 177 1175 C155 1183 117 1177 147 1153 L147 1153 Z " />
<glyph glyph-name="Iacute" unicode="&#xcd;" horiz-adv-x="388" d="M116 751 C100 765 92 783 92 805 C92 832 114 898 148 901 C192 861 197 530 197 453 C197 360 196 -198 87 -198 C42 -198 36 -89 36 -58 C36 -21 42 11 61 43 L45 50 C21 34 13 -25 13 -52 C13 -127 22 -237 121 -237 C321 -237 319 286 319 418 C319 522 338 955 190 955 C121 955 67 867 67 805 C67 780 75 759 90 740 L116 751 Z M234 1167 C264 1191 226 1197 204 1189 C156 1168 102 1072 91 1029 C84 1008 88 998 107 1017 C123 1033 186 1122 234 1167 L234 1167 Z " />
<glyph glyph-name="Icircumflex" unicode="&#xce;" horiz-adv-x="388" d="M116 751 C100 765 92 783 92 805 C92 832 114 898 148 901 C192 861 197 530 197 453 C197 360 196 -198 87 -198 C42 -198 36 -89 36 -58 C36 -21 42 11 61 43 L45 50 C21 34 13 -25 13 -52 C13 -127 22 -237 121 -237 C321 -237 319 286 319 418 C319 522 338 955 190 955 C121 955 67 867 67 805 C67 780 75 759 90 740 L116 751 Z M10 982 C10 953 29 946 56 945 L204 1114 L275 1032 L354 942 L377 960 L191 1186 C171 1186 10 1000 10 982 L10 982 Z " />
<glyph glyph-name="Idieresis" unicode="&#xcf;" horiz-adv-x="388" d="M116 751 C100 765 92 783 92 805 C92 832 114 898 148 901 C192 861 197 530 197 453 C197 360 196 -198 87 -198 C42 -198 36 -89 36 -58 C36 -21 42 11 61 43 L45 50 C21 34 13 -25 13 -52 C13 -127 22 -237 121 -237 C321 -237 319 286 319 418 C319 522 338 955 190 955 C121 955 67 867 67 805 C67 780 75 759 90 740 L116 751 Z M83 1040 C82 1013 95 993 127 992 C162 991 172 1017 175 1045 C176 1065 156 1088 132 1088 C99 1091 84 1071 83 1040 L83 1040 Z M210 1040 C209 1013 223 993 254 992 C289 991 299 1017 302 1045 C303 1065 284 1088 259 1088 C226 1091 211 1071 210 1040 L210 1040 Z " />
<glyph glyph-name="Eth" unicode="&#xd0;" horiz-adv-x="797" d="M330 320 L269 320 C270 345 271 366 271 390 C271 465 267 534 260 587 C256 618 253 648 253 664 C253 720 367 864 438 864 C554 864 586 733 586 652 C586 540 550 207 471 72 L394 47 L382 41 L382 42 C324 21 223 -17 223 -109 C223 -162 280 -204 323 -204 C454 -204 587 -3 619 80 C632 85 645 93 660 102 C672 109 690 121 705 132 C756 173 801 221 837 266 C845 277 856 293 863 306 L839 306 L818 279 L796 251 C771 220 736 183 693 152 C685 146 676 140 666 134 L667 134 L655 126 C648 123 644 118 637 115 C693 216 740 413 740 595 C740 761 682 902 503 902 C396 902 309 828 244 717 C236 820 139 929 50 919 C27 916 3 900 -12 884 C-25 869 -32 849 -35 826 C-36 799 -28 766 -13 738 L7 750 C-8 775 -15 801 -14 826 C-11 853 0 872 19 881 L18 881 C115 934 150 660 150 586 C134 551 118 517 109 490 C102 468 95 444 88 418 C80 391 72 357 63 318 C38 318 23 317 6 317 C-13 317 -32 316 -37 316 L-38 287 C-35 284 -1 282 55 282 C44 226 35 165 35 112 C35 40 62 -8 122 -5 C218 -2 257 132 268 284 L294 284 C305 284 320 285 331 285 L330 320 Z M91 27 C64 38 58 69 58 114 C58 159 66 218 78 282 C102 282 125 282 156 283 C151 151 134 6 91 27 L91 27 Z M279 -38 C302 -15 336 0 365 12 L422 33 L421 33 C433 36 443 38 454 42 C427 -11 325 -128 272 -128 C259 -128 250 -120 246 -105 C245 -81 260 -57 279 -38 L279 -38 Z M113 422 C121 449 130 474 139 499 L152 533 L156 487 C157 464 158 428 158 381 C158 362 158 340 157 319 C128 318 109 318 86 318 C94 355 102 385 113 422 L113 422 Z " />
<glyph glyph-name="Ntilde" unicode="&#xd1;" horiz-adv-x="625" d="M35 677 C0 693 -23 724 -16 756 C-8 797 24 835 56 835 C71 835 88 820 96 789 C107 744 108 674 121 328 C94 253 71 175 60 118 C57 99 54 71 54 40 C54 -5 65 -51 86 -70 C101 -81 114 -85 129 -85 C149 -85 171 -72 182 -55 C209 -9 216 83 216 125 C216 168 216 227 215 270 C214 325 213 379 213 434 C213 458 213 482 214 506 L214 505 C238 603 329 730 389 730 C422 730 447 689 447 578 C447 503 445 430 442 357 C439 284 437 211 437 138 C437 62 441 -8 450 -80 C463 -157 512 -261 588 -277 C686 -290 740 -152 740 -53 C740 -22 734 6 723 30 L703 16 C710 5 714 -14 714 -40 C714 -100 693 -193 654 -232 C609 -264 571 -170 555 -73 C546 -16 544 43 544 83 C544 102 545 116 545 124 L545 131 C545 215 550 299 555 384 C560 468 564 553 564 637 C564 713 531 777 438 777 C333 777 248 652 208 564 L208 570 C208 723 186 831 129 862 C116 869 102 873 87 873 C23 873 -41 806 -41 745 C-41 732 -36 714 -29 701 C-20 686 -3 672 21 658 L35 677 Z M75 52 C75 111 93 170 116 243 C112 159 117 75 97 6 C88 -21 84 -30 77 2 C74 17 75 37 75 52 L75 52 Z M212 957 C227 957 247 947 268 934 C301 915 338 895 377 895 C406 895 443 917 443 950 C443 958 437 988 421 988 C414 979 416 977 419 974 L422 971 L421 971 C422 967 423 965 423 964 C423 941 402 931 383 931 C358 931 332 946 307 961 C280 976 254 991 231 991 C208 991 179 970 179 945 L180 925 C195 925 193 931 196 939 C199 947 201 957 212 957 L212 957 Z " />
<glyph glyph-name="Ograve" unicode="&#xd2;" horiz-adv-x="833" d="M4 171 C15 -25 118 -245 326 -248 C397 -241 459 -204 503 -155 C591 -43 634 147 658 274 C673 271 688 270 705 271 C744 275 783 300 812 329 L834 355 L846 372 C841 372 832 372 825 375 L819 375 C795 335 747 300 702 297 C687 296 674 296 659 299 C662 343 665 382 665 425 C665 444 664 460 663 479 C658 567 637 675 608 758 C578 826 526 906 452 903 C424 900 400 891 383 878 C367 885 348 889 325 889 C48 889 1 450 1 253 C1 221 2 194 4 171 L4 171 Z M344 764 C351 689 364 619 392 551 L399 535 C423 475 461 420 506 373 C541 334 583 304 628 277 C605 121 529 -190 355 -210 C216 -210 172 68 164 188 C164 195 163 202 163 209 C162 224 161 236 161 249 C161 439 188 667 343 780 C343 772 343 774 344 765 L344 764 Z M478 742 C467 801 448 841 409 865 C419 872 433 875 451 876 C578 880 626 603 638 467 C639 448 640 429 640 410 C640 375 637 340 633 304 L597 328 C456 426 383 596 372 757 C371 768 370 783 371 794 C388 801 398 804 401 804 C426 804 446 786 455 742 L478 742 Z M369 1121 C417 1076 480 987 496 971 C515 952 519 962 512 983 C499 1026 449 1121 399 1143 C377 1151 339 1145 369 1121 L369 1121 Z " />
<glyph glyph-name="Oacute" unicode="&#xd3;" horiz-adv-x="833" d="M4 171 C15 -25 118 -245 326 -248 C397 -241 459 -204 503 -155 C591 -43 634 147 658 274 C673 271 688 270 705 271 C744 275 783 300 812 329 L834 355 L846 372 C841 372 832 372 825 375 L819 375 C795 335 747 300 702 297 C687 296 674 296 659 299 C662 343 665 382 665 425 C665 444 664 460 663 479 C658 567 637 675 608 758 C578 826 526 906 452 903 C424 900 400 891 383 878 C367 885 348 889 325 889 C48 889 1 450 1 253 C1 221 2 194 4 171 L4 171 Z M344 764 C351 689 364 619 392 551 L399 535 C423 475 461 420 506 373 C541 334 583 304 628 277 C605 121 529 -190 355 -210 C216 -210 172 68 164 188 C164 195 163 202 163 209 C162 224 161 236 161 249 C161 439 188 667 343 780 C343 772 343 774 344 765 L344 764 Z M478 742 C467 801 448 841 409 865 C419 872 433 875 451 876 C578 880 626 603 638 467 C639 448 640 429 640 410 C640 375 637 340 633 304 L597 328 C456 426 383 596 372 757 C371 768 370 783 371 794 C388 801 398 804 401 804 C426 804 446 786 455 742 L478 742 Z M456 1121 C486 1145 448 1151 426 1143 C378 1122 324 1026 313 983 C306 962 310 952 329 971 C345 987 408 1076 456 1121 L456 1121 Z " />
<glyph glyph-name="Ocircumflex" unicode="&#xd4;" horiz-adv-x="833" d="M4 171 C15 -25 118 -245 326 -248 C397 -241 459 -204 503 -155 C591 -43 634 147 658 274 C673 271 688 270 705 271 C744 275 783 300 812 329 L834 355 L846 372 C841 372 832 372 825 375 L819 375 C795 335 747 300 702 297 C687 296 674 296 659 299 C662 343 665 382 665 425 C665 444 664 460 663 479 C658 567 637 675 608 758 C578 826 526 906 452 903 C424 900 400 891 383 878 C367 885 348 889 325 889 C48 889 1 450 1 253 C1 221 2 194 4 171 L4 171 Z M344 764 C351 689 364 619 392 551 L399 535 C423 475 461 420 506 373 C541 334 583 304 628 277 C605 121 529 -190 355 -210 C216 -210 172 68 164 188 C164 195 163 202 163 209 C162 224 161 236 161 249 C161 439 188 667 343 780 C343 772 343 774 344 765 L344 764 Z M478 742 C467 801 448 841 409 865 C419 872 433 875 451 876 C578 880 626 603 638 467 C639 448 640 429 640 410 C640 375 637 340 633 304 L597 328 C456 426 383 596 372 757 C371 768 370 783 371 794 C388 801 398 804 401 804 C426 804 446 786 455 742 L478 742 Z M232 982 C232 953 251 946 278 945 L426 1114 L497 1032 L576 942 L599 960 L413 1186 C393 1186 232 1000 232 982 L232 982 Z " />
<glyph glyph-name="Otilde" unicode="&#xd5;" horiz-adv-x="833" d="M4 171 C15 -25 118 -245 326 -248 C397 -241 459 -204 503 -155 C591 -43 634 147 658 274 C673 271 688 270 705 271 C744 275 783 300 812 329 L834 355 L846 372 C841 372 832 372 825 375 L819 375 C795 335 747 300 702 297 C687 296 674 296 659 299 C662 343 665 382 665 425 C665 444 664 460 663 479 C658 567 637 675 608 758 C578 826 526 906 452 903 C424 900 400 891 383 878 C367 885 348 889 325 889 C48 889 1 450 1 253 C1 221 2 194 4 171 L4 171 Z M344 764 C351 689 364 619 392 551 L399 535 C423 475 461 420 506 373 C541 334 583 304 628 277 C605 121 529 -190 355 -210 C216 -210 172 68 164 188 C164 195 163 202 163 209 C162 224 161 236 161 249 C161 439 188 667 343 780 C343 772 343 774 344 765 L344 764 Z M478 742 C467 801 448 841 409 865 C419 872 433 875 451 876 C578 880 626 603 638 467 C639 448 640 429 640 410 C640 375 637 340 633 304 L597 328 C456 426 383 596 372 757 C371 768 370 783 371 794 C388 801 398 804 401 804 C426 804 446 786 455 742 L478 742 Z M316 1060 C331 1060 351 1050 372 1037 C405 1018 442 998 481 998 C510 998 547 1020 547 1053 C547 1061 541 1091 525 1091 C518 1082 520 1080 523 1077 L526 1074 L525 1074 C526 1070 527 1068 527 1067 C527 1044 506 1034 487 1034 C462 1034 436 1049 411 1064 C384 1079 358 1094 335 1094 C312 1094 283 1073 283 1048 L284 1028 C299 1028 297 1034 300 1042 C303 1050 305 1060 316 1060 L316 1060 Z " />
<glyph glyph-name="Odieresis" unicode="&#xd6;" horiz-adv-x="833" d="M4 171 C15 -25 118 -245 326 -248 C397 -241 459 -204 503 -155 C591 -43 634 147 658 274 C673 271 688 270 705 271 C744 275 783 300 812 329 L834 355 L846 372 C841 372 832 372 825 375 L819 375 C795 335 747 300 702 297 C687 296 674 296 659 299 C662 343 665 382 665 425 C665 444 664 460 663 479 C658 567 637 675 608 758 C578 826 526 906 452 903 C424 900 400 891 383 878 C367 885 348 889 325 889 C48 889 1 450 1 253 C1 221 2 194 4 171 L4 171 Z M344 764 C351 689 364 619 392 551 L399 535 C423 475 461 420 506 373 C541 334 583 304 628 277 C605 121 529 -190 355 -210 C216 -210 172 68 164 188 C164 195 163 202 163 209 C162 224 161 236 161 249 C161 439 188 667 343 780 C343 772 343 774 344 765 L344 764 Z M478 742 C467 801 448 841 409 865 C419 872 433 875 451 876 C578 880 626 603 638 467 C639 448 640 429 640 410 C640 375 637 340 633 304 L597 328 C456 426 383 596 372 757 C371 768 370 783 371 794 C388 801 398 804 401 804 C426 804 446 786 455 742 L478 742 Z M306 993 C305 966 318 946 350 945 C385 944 395 970 398 998 C399 1018 379 1041 355 1041 C322 1044 307 1024 306 993 L306 993 Z M433 993 C432 966 446 946 477 945 C512 944 522 970 525 998 C526 1018 507 1041 482 1041 C449 1044 434 1024 433 993 L433 993 Z " />
<glyph glyph-name="multiply" unicode="&#xd7;" horiz-adv-x="323" d="M258 313 L184 391 C258 473 256 474 243 489 C231 504 222 501 151 427 C80 500 73 504 60 489 C46 472 43 474 118 391 L44 313 L45 300 C48 279 51 274 62 275 C71 270 83 283 151 356 C217 282 230 271 241 275 C250 274 254 279 257 300 L258 313 Z " />
<glyph glyph-name="Oslash" unicode="&#xd8;" horiz-adv-x="833" d="M503 932 C512 1003 504 1000 489 945 L471 948 C464 948 458 933 452 903 C424 900 400 891 383 878 C367 885 348 889 325 889 C48 889 1 450 1 253 C1 224 1 194 4 171 C15 15 89 -168 222 -227 C215 -256 213 -283 210 -300 L239 -314 C242 -311 248 -285 259 -241 C280 -245 302 -248 326 -248 C397 -241 459 -204 503 -155 C591 -43 634 147 658 274 C673 271 688 270 705 271 C744 275 783 300 812 329 L834 355 L846 372 C841 372 832 372 825 375 L819 375 C815 368 802 353 791 342 L786 337 L787 337 C762 314 731 298 702 297 C687 296 674 296 659 299 C662 343 665 382 665 425 C665 444 664 460 663 479 C658 567 637 675 608 758 C584 817 546 883 488 899 L496 933 L503 932 Z M506 373 C541 333 581 305 628 277 C605 121 529 -190 355 -210 C324 -209 294 -196 273 -176 C297 -56 337 151 374 333 L409 514 C434 459 463 416 506 373 L506 373 Z M344 764 C351 700 362 638 382 579 C331 339 275 48 240 -133 C186 -39 167 111 164 188 C164 195 163 202 163 209 C162 224 161 236 161 249 C161 439 188 667 343 780 C343 772 343 774 344 765 L344 764 Z M478 742 C474 763 469 780 464 793 L482 872 C592 831 626 588 638 467 C639 448 640 429 640 410 C640 375 637 340 633 304 C626 311 626 309 619 312 L620 312 L610 317 L597 328 C517 384 456 470 417 558 L455 742 L478 742 Z M372 757 C371 768 370 783 371 794 C388 801 398 804 401 804 C412 804 418 801 427 796 C416 741 402 685 391 632 C380 673 375 716 372 757 L372 757 Z M445 876 C442 864 440 851 437 840 C428 851 420 858 409 865 C418 870 430 875 445 876 L445 876 Z " />
<glyph glyph-name="Ugrave" unicode="&#xd9;" horiz-adv-x="818" d="M89 774 C89 658 71 388 71 265 C71 111 108 3 248 3 C334 3 363 67 387 135 C435 271 491 547 531 692 C534 669 532 662 532 630 C532 604 520 334 520 304 C520 271 519 239 519 204 C519 93 523 -17 554 -88 C581 -147 623 -182 667 -182 C698 -182 731 -165 755 -130 C787 -82 813 6 832 94 L808 93 C789 0 756 -80 735 -93 C640 -130 653 53 653 209 C653 233 654 255 654 276 L654 307 C654 394 679 902 683 927 C678 1006 570 975 548 953 C516 918 510 757 483 636 C461 559 412 286 358 150 C343 115 331 90 316 79 C203 14 207 172 207 237 C207 389 242 606 218 745 C203 828 169 882 96 882 C69 882 40 873 13 854 C-16 830 -49 786 -49 747 C-49 736 -46 723 -39 710 C-24 687 6 667 42 659 L48 678 C17 687 -7 699 -18 720 C-23 729 -25 738 -25 747 C-25 791 18 834 53 834 C72 834 88 817 89 774 L89 774 Z M362 1052 C410 1007 473 918 489 902 C508 883 512 893 505 914 C492 957 442 1052 392 1074 C370 1082 332 1076 362 1052 L362 1052 Z " />
<glyph glyph-name="Uacute" unicode="&#xda;" horiz-adv-x="818" d="M89 774 C89 658 71 388 71 265 C71 111 108 3 248 3 C334 3 363 67 387 135 C435 271 491 547 531 692 C534 669 532 662 532 630 C532 604 520 334 520 304 C520 271 519 239 519 204 C519 93 523 -17 554 -88 C581 -147 623 -182 667 -182 C698 -182 731 -165 755 -130 C787 -82 813 6 832 94 L808 93 C789 0 756 -80 735 -93 C640 -130 653 53 653 209 C653 233 654 255 654 276 L654 307 C654 394 679 902 683 927 C678 1006 570 975 548 953 C516 918 510 757 483 636 C461 559 412 286 358 150 C343 115 331 90 316 79 C203 14 207 172 207 237 C207 389 242 606 218 745 C203 828 169 882 96 882 C69 882 40 873 13 854 C-16 830 -49 786 -49 747 C-49 736 -46 723 -39 710 C-24 687 6 667 42 659 L48 678 C17 687 -7 699 -18 720 C-23 729 -25 738 -25 747 C-25 791 18 834 53 834 C72 834 88 817 89 774 L89 774 Z M449 1062 C479 1086 441 1092 419 1084 C371 1063 317 967 306 924 C299 903 303 893 322 912 C338 928 401 1017 449 1062 L449 1062 Z " />
<glyph glyph-name="Ucircumflex" unicode="&#xdb;" horiz-adv-x="818" d="M89 774 C89 658 71 388 71 265 C71 111 108 3 248 3 C334 3 363 67 387 135 C435 271 491 547 531 692 C534 669 532 662 532 630 C532 604 520 334 520 304 C520 271 519 239 519 204 C519 93 523 -17 554 -88 C581 -147 623 -182 667 -182 C698 -182 731 -165 755 -130 C787 -82 813 6 832 94 L808 93 C789 0 756 -80 735 -93 C640 -130 653 53 653 209 C653 233 654 255 654 276 L654 307 C654 394 679 902 683 927 C678 1006 570 975 548 953 C516 918 510 757 483 636 C461 559 412 286 358 150 C343 115 331 90 316 79 C203 14 207 172 207 237 C207 389 242 606 218 745 C203 828 169 882 96 882 C69 882 40 873 13 854 C-16 830 -49 786 -49 747 C-49 736 -46 723 -39 710 C-24 687 6 667 42 659 L48 678 C17 687 -7 699 -18 720 C-23 729 -25 738 -25 747 C-25 791 18 834 53 834 C72 834 88 817 89 774 L89 774 Z M225 921 C225 892 244 885 271 884 L419 1053 L490 971 L569 881 L592 899 L406 1125 C386 1125 225 939 225 921 L225 921 Z " />
<glyph glyph-name="Udieresis" unicode="&#xdc;" horiz-adv-x="818" d="M89 774 C89 658 71 388 71 265 C71 111 108 3 248 3 C334 3 363 67 387 135 C435 271 491 547 531 692 C534 669 532 662 532 630 C532 604 520 334 520 304 C520 271 519 239 519 204 C519 93 523 -17 554 -88 C581 -147 623 -182 667 -182 C698 -182 731 -165 755 -130 C787 -82 813 6 832 94 L808 93 C789 0 756 -80 735 -93 C640 -130 653 53 653 209 C653 233 654 255 654 276 L654 307 C654 394 679 902 683 927 C678 1006 570 975 548 953 C516 918 510 757 483 636 C461 559 412 286 358 150 C343 115 331 90 316 79 C203 14 207 172 207 237 C207 389 242 606 218 745 C203 828 169 882 96 882 C69 882 40 873 13 854 C-16 830 -49 786 -49 747 C-49 736 -46 723 -39 710 C-24 687 6 667 42 659 L48 678 C17 687 -7 699 -18 720 C-23 729 -25 738 -25 747 C-25 791 18 834 53 834 C72 834 88 817 89 774 L89 774 Z M298 915 C297 888 310 868 342 867 C377 866 387 892 390 920 C391 940 371 963 347 963 C314 966 299 946 298 915 L298 915 Z M425 915 C424 888 438 868 469 867 C504 866 514 892 517 920 C518 940 499 963 474 963 C441 966 426 946 425 915 L425 915 Z " />
<glyph glyph-name="Yacute" unicode="&#xdd;" horiz-adv-x="732" d="M87 844 C100 840 105 798 105 746 C105 612 16 230 247 230 C409 230 481 490 517 622 C513 505 508 384 499 267 L491 194 L438 140 C318 15 199 -116 199 -294 C199 -355 222 -420 301 -420 C505 -420 583 65 599 204 C700 241 780 358 818 447 L795 447 C753 368 693 269 602 234 C617 323 619 447 619 564 L619 732 C619 778 622 841 584 841 C565 841 544 835 528 831 C524 722 429 282 296 282 C221 282 212 393 217 516 C221 650 275 932 56 872 C7 858 -37 818 -37 771 C-36 742 -15 711 10 687 L29 703 C6 727 -13 748 -13 771 C-13 821 44 852 87 844 L87 844 Z M270 -343 C237 -343 226 -315 226 -280 C226 -227 252 -151 265 -125 C312 -24 397 66 485 150 C469 16 399 -343 270 -343 L270 -343 Z M406 1040 C436 1064 398 1070 376 1062 C328 1041 274 945 263 902 C256 881 260 871 279 890 C295 906 358 995 406 1040 L406 1040 Z " />
<glyph glyph-name="Thorn" unicode="&#xde;" horiz-adv-x="425" d="M28 654 C17 577 10 269 7 51 L7 -19 C6 -104 5 -166 6 -179 L62 -180 C65 -177 70 -98 70 5 C101 -10 133 -16 173 -16 C295 -16 356 111 356 214 C356 328 276 435 144 435 C121 435 98 426 82 414 L77 410 C80 507 80 600 87 655 L28 654 Z M117 392 C152 399 176 386 193 367 C217 330 231 273 231 240 C231 159 207 41 99 41 C89 41 80 42 71 44 C71 91 73 131 73 176 L76 333 L76 371 C84 383 97 388 117 392 L117 392 Z " />
<glyph glyph-name="germandbls" unicode="&#xdf;" horiz-adv-x="556" d="M-105 -71 C-122 -96 -127 -121 -126 -142 C-123 -181 -101 -214 -56 -214 C78 -214 149 111 205 400 C253 631 297 856 368 856 C420 856 426 833 426 789 C426 685 395 573 287 525 C387 463 430 413 430 320 C430 256 408 64 315 64 C306 64 303 77 303 93 C303 113 307 137 310 152 C310 155 311 158 311 161 L297 169 C284 151 280 103 280 95 C280 30 313 21 372 21 C481 21 506 195 506 274 C506 351 486 424 425 479 L426 479 C422 481 394 500 375 511 L365 517 C433 528 512 663 512 770 C512 853 452 883 376 883 C320 883 279 870 243 827 C208 776 165 589 125 405 C69 132 2 -176 -72 -176 C-95 -176 -104 -157 -104 -134 C-104 -119 -98 -99 -91 -84 L-105 -71 Z " />
<glyph glyph-name="agrave" unicode="&#xe0;" horiz-adv-x="465" d="M520 307 L492 240 C479 208 431 74 408 74 C376 74 379 227 379 248 C379 309 384 371 384 432 C384 469 354 501 317 501 C278 501 251 148 159 148 C103 148 105 241 105 279 C105 344 127 536 216 536 C254 536 254 500 268 475 L285 481 C272 532 241 574 185 574 C39 574 -4 381 -4 265 C-4 185 35 90 127 90 C198 90 255 221 271 279 C275 224 294 5 370 5 C412 5 450 74 479 148 C501 205 530 271 541 306 L520 307 Z M185 801 C233 756 296 667 312 651 C331 632 335 642 328 663 C315 706 265 801 215 823 C193 831 155 825 185 801 L185 801 Z " />
<glyph glyph-name="aacute" unicode="&#xe1;" horiz-adv-x="465" d="M520 307 L492 240 C479 208 431 74 408 74 C376 74 379 227 379 248 C379 309 384 371 384 432 C384 469 354 501 317 501 C278 501 251 148 159 148 C103 148 105 241 105 279 C105 344 127 536 216 536 C254 536 254 500 268 475 L285 481 C272 532 241 574 185 574 C39 574 -4 381 -4 265 C-4 185 35 90 127 90 C198 90 255 221 271 279 C275 224 294 5 370 5 C412 5 450 74 479 148 C501 205 530 271 541 306 L520 307 Z M272 826 C302 850 264 856 242 848 C194 827 140 731 129 688 C122 667 126 657 145 676 C161 692 224 781 272 826 L272 826 Z " />
<glyph glyph-name="acircumflex" unicode="&#xe2;" horiz-adv-x="465" d="M520 307 L492 240 C479 208 431 74 408 74 C376 74 379 227 379 248 C379 309 384 371 384 432 C384 469 354 501 317 501 C278 501 251 148 159 148 C103 148 105 241 105 279 C105 344 127 536 216 536 C254 536 254 500 268 475 L285 481 C272 532 241 574 185 574 C39 574 -4 381 -4 265 C-4 185 35 90 127 90 C198 90 255 221 271 279 C275 224 294 5 370 5 C412 5 450 74 479 148 C501 205 530 271 541 306 L520 307 Z M48 644 C48 615 67 608 94 607 L242 776 L313 694 L392 604 L415 622 L229 848 C209 848 48 662 48 644 L48 644 Z " />
<glyph glyph-name="atilde" unicode="&#xe3;" horiz-adv-x="465" d="M520 307 L492 240 C479 208 431 74 408 74 C376 74 379 227 379 248 C379 309 384 371 384 432 C384 469 354 501 317 501 C278 501 251 148 159 148 C103 148 105 241 105 279 C105 344 127 536 216 536 C254 536 254 500 268 475 L285 481 C272 532 241 574 185 574 C39 574 -4 381 -4 265 C-4 185 35 90 127 90 C198 90 255 221 271 279 C275 224 294 5 370 5 C412 5 450 74 479 148 C501 205 530 271 541 306 L520 307 Z M132 689 C147 689 167 679 188 666 C221 647 258 627 297 627 C326 627 363 649 363 682 C363 690 357 720 341 720 C334 711 336 709 339 706 L342 703 L341 703 C342 699 343 697 343 696 C343 673 322 663 303 663 C278 663 252 678 227 693 C200 708 174 723 151 723 C128 723 99 702 99 677 L100 657 C115 657 113 663 116 671 C119 679 121 689 132 689 L132 689 Z " />
<glyph glyph-name="adieresis" unicode="&#xe4;" horiz-adv-x="465" d="M520 307 L492 240 C479 208 431 74 408 74 C376 74 379 227 379 248 C379 309 384 371 384 432 C384 469 354 501 317 501 C278 501 251 148 159 148 C103 148 105 241 105 279 C105 344 127 536 216 536 C254 536 254 500 268 475 L285 481 C272 532 241 574 185 574 C39 574 -4 381 -4 265 C-4 185 35 90 127 90 C198 90 255 221 271 279 C275 224 294 5 370 5 C412 5 450 74 479 148 C501 205 530 271 541 306 L520 307 Z M122 649 C121 622 134 602 166 601 C201 600 211 626 214 654 C215 674 195 697 171 697 C138 700 123 680 122 649 L122 649 Z M249 649 C248 622 262 602 293 601 C328 600 338 626 341 654 C342 674 323 697 298 697 C265 700 250 680 249 649 L249 649 Z " />
<glyph glyph-name="aring" unicode="&#xe5;" horiz-adv-x="465" d="M520 307 L492 240 C479 208 431 74 408 74 C376 74 379 227 379 248 C379 309 384 371 384 432 C384 469 354 501 317 501 C278 501 251 148 159 148 C103 148 105 241 105 279 C105 344 127 536 216 536 C254 536 254 500 268 475 L285 481 C272 532 241 574 185 574 C39 574 -4 381 -4 265 C-4 185 35 90 127 90 C198 90 255 221 271 279 C275 224 294 5 370 5 C412 5 450 74 479 148 C501 205 530 271 541 306 L520 307 Z M171 682 C171 651 186 613 234 613 C285 613 292 662 292 682 C292 701 279 751 234 751 C181 751 174 712 171 682 L171 682 Z M202 682 C202 694 206 727 234 727 C262 727 267 694 267 682 C267 668 262 637 234 637 C213 637 202 663 202 682 L202 682 Z " />
<glyph glyph-name="ae" unicode="&#xe6;" horiz-adv-x="659" d="M520 558 C473 558 427 532 390 491 C391 500 391 507 391 515 C392 538 393 554 393 563 C393 600 365 632 326 632 C314 632 307 607 304 598 C304 597 303 595 303 594 C299 581 292 556 287 533 C274 471 248 379 221 325 C206 298 188 279 168 279 C112 279 114 371 114 410 C114 478 137 667 225 667 C253 667 261 647 268 624 L277 606 L294 612 C278 676 241 705 194 705 C46 705 5 509 5 396 C5 319 43 221 136 221 C173 221 208 258 235 305 C255 340 271 379 280 410 C292 271 328 55 486 55 C576 55 632 125 671 191 C698 235 718 278 729 305 L705 306 C694 279 675 236 648 197 C621 156 591 119 562 104 C552 99 542 97 531 97 C462 97 421 218 421 274 L421 277 C421 294 421 318 430 330 L430 329 L433 329 C434 329 436 330 440 331 C477 339 529 353 569 380 C608 405 635 441 632 486 C627 531 569 558 520 558 L520 558 Z M555 520 C575 520 610 510 610 477 C610 398 480 355 435 355 C428 355 444 389 451 404 L450 404 C453 409 454 412 454 413 C475 455 515 520 555 520 L555 520 Z " />
<glyph glyph-name="ccedilla" unicode="&#xe7;" horiz-adv-x="387" d="M-11 295 C-11 172 44 19 155 19 C251 19 320 100 363 172 C398 234 416 297 416 305 L399 305 C396 294 375 236 343 183 C314 141 279 86 222 86 C124 86 103 227 103 326 C103 389 117 519 205 511 C232 508 243 496 254 451 L267 452 C267 502 233 561 180 561 C62 561 -11 431 -11 295 L-11 295 Z M187 64 C190 49 201 29 210 12 L213 6 C226 -19 240 -45 240 -62 C240 -72 234 -77 222 -77 C172 -77 150 -46 140 -31 L138 -16 L130 -24 C117 -15 107 -24 115 -41 C128 -57 167 -102 223 -102 C263 -102 275 -82 275 -55 C275 -36 269 -12 262 9 L259 19 C252 34 248 49 247 64 L187 64 Z " />
<glyph glyph-name="egrave" unicode="&#xe8;" horiz-adv-x="349" d="M210 558 C79 558 3 394 3 282 C3 182 60 54 176 54 C298 54 383 206 420 305 L397 306 C373 246 295 97 221 97 C141 97 85 276 120 330 C191 341 322 386 322 475 C322 533 260 558 210 558 L210 558 Z M245 520 C272 520 300 506 300 477 C300 406 185 355 125 355 C124 356 123 356 123 356 C126 403 196 520 245 520 L245 520 Z M127 789 C175 744 238 655 254 639 C273 620 277 630 270 651 C257 694 207 789 157 811 C135 819 97 813 127 789 L127 789 Z " />
<glyph glyph-name="eacute" unicode="&#xe9;" horiz-adv-x="349" d="M210 558 C79 558 3 394 3 282 C3 182 60 54 176 54 C298 54 383 206 420 305 L397 306 C373 246 295 97 221 97 C141 97 85 276 120 330 C191 341 322 386 322 475 C322 533 260 558 210 558 L210 558 Z M245 520 C272 520 300 506 300 477 C300 406 185 355 125 355 C124 356 123 356 123 356 C126 403 196 520 245 520 L245 520 Z M214 760 C244 784 206 790 184 782 C136 761 82 665 71 622 C64 601 68 591 87 610 C103 626 166 715 214 760 L214 760 Z " />
<glyph glyph-name="ecircumflex" unicode="&#xea;" horiz-adv-x="349" d="M210 558 C79 558 3 394 3 282 C3 182 60 54 176 54 C298 54 383 206 420 305 L397 306 C373 246 295 97 221 97 C141 97 85 276 120 330 C191 341 322 386 322 475 C322 533 260 558 210 558 L210 558 Z M245 520 C272 520 300 506 300 477 C300 406 185 355 125 355 C124 356 123 356 123 356 C126 403 196 520 245 520 L245 520 Z M-9 608 C-9 579 10 572 37 571 L185 740 L256 658 L335 568 L358 586 L172 812 C152 812 -9 626 -9 608 L-9 608 Z " />
<glyph glyph-name="edieresis" unicode="&#xeb;" horiz-adv-x="349" d="M210 558 C79 558 3 394 3 282 C3 182 60 54 176 54 C298 54 383 206 420 305 L397 306 C373 246 295 97 221 97 C141 97 85 276 120 330 C191 341 322 386 322 475 C322 533 260 558 210 558 L210 558 Z M245 520 C272 520 300 506 300 477 C300 406 185 355 125 355 C124 356 123 356 123 356 C126 403 196 520 245 520 L245 520 Z M64 678 C63 651 76 631 108 630 C143 629 153 655 156 683 C157 703 137 726 113 726 C80 729 65 709 64 678 L64 678 Z M191 678 C190 651 204 631 235 630 C270 629 280 655 283 683 C284 703 265 726 240 726 C207 729 192 709 191 678 L191 678 Z " />
<glyph glyph-name="igrave" unicode="&#xec;" horiz-adv-x="232" d="M14 319 C13 308 13 295 13 284 C13 166 44 55 121 52 C133 51 153 60 168 71 C220 110 272 192 303 308 L278 308 C267 247 203 112 173 112 C124 115 118 245 118 314 C118 330 119 344 119 351 C120 368 121 381 124 397 C127 412 127 425 128 440 C128 460 123 476 98 477 C19 480 14 388 14 332 L14 319 Z M69 759 C117 714 180 625 196 609 C215 590 219 600 212 621 C199 664 149 759 99 781 C77 789 39 783 69 759 L69 759 Z " />
<glyph glyph-name="iacute" unicode="&#xed;" horiz-adv-x="232" d="M14 319 C13 308 13 295 13 284 C13 166 44 55 121 52 C133 51 153 60 168 71 C220 110 272 192 303 308 L278 308 C267 247 203 112 173 112 C124 115 118 245 118 314 C118 330 119 344 119 351 C120 368 121 381 124 397 C127 412 127 425 128 440 C128 460 123 476 98 477 C19 480 14 388 14 332 L14 319 Z M156 754 C186 778 148 784 126 776 C78 755 24 659 13 616 C6 595 10 585 29 604 C45 620 108 709 156 754 L156 754 Z " />
<glyph glyph-name="icircumflex" unicode="&#xee;" horiz-adv-x="232" d="M14 319 C13 308 13 295 13 284 C13 166 44 55 121 52 C133 51 153 60 168 71 C220 110 272 192 303 308 L278 308 C267 247 203 112 173 112 C124 115 118 245 118 314 C118 330 119 344 119 351 C120 368 121 381 124 397 C127 412 127 425 128 440 C128 460 123 476 98 477 C19 480 14 388 14 332 L14 319 Z M-68 609 C-68 580 -49 573 -22 572 L126 741 L197 659 L276 569 L299 587 L113 813 C93 813 -68 627 -68 609 L-68 609 Z " />
<glyph glyph-name="idieresis" unicode="&#xef;" horiz-adv-x="232" d="M14 319 C13 308 13 295 13 284 C13 166 44 55 121 52 C133 51 153 60 168 71 C220 110 272 192 303 308 L278 308 C267 247 203 112 173 112 C124 115 118 245 118 314 C118 330 119 344 119 351 C120 368 121 381 124 397 C127 412 127 425 128 440 C128 460 123 476 98 477 C19 480 14 388 14 332 L14 319 Z M6 675 C5 648 18 628 50 627 C85 626 95 652 98 680 C99 700 79 723 55 723 C22 726 7 706 6 675 L6 675 Z M133 675 C132 648 146 628 177 627 C212 626 222 652 225 680 C226 700 207 723 182 723 C149 726 134 706 133 675 L133 675 Z " />
<glyph glyph-name="eth" unicode="&#xf0;" horiz-adv-x="570" d="M454 1001 C424 985 376 946 355 920 C331 955 287 981 240 981 C225 981 209 977 192 970 C181 962 154 945 154 923 L171 921 C178 936 200 957 224 957 C272 957 296 919 319 870 C300 846 265 774 265 768 L284 762 C299 797 311 818 330 845 C366 753 373 655 373 555 C373 512 373 479 366 442 C351 461 335 481 311 497 C291 510 266 519 231 519 C196 519 166 512 139 498 C51 455 9 354 9 257 C9 150 66 -3 207 -3 C422 -3 468 316 468 467 C468 624 439 762 367 899 C394 932 420 958 459 977 L454 1001 Z M228 497 C251 497 283 488 304 473 C332 453 354 417 354 390 C354 317 275 54 180 54 C124 54 92 79 71 116 L71 115 C44 162 35 217 35 266 C35 374 103 497 228 497 L228 497 Z " />
<glyph glyph-name="ntilde" unicode="&#xf1;" horiz-adv-x="486" d="M525 306 C432 118 397 47 392 74 C388 205 401 325 401 448 C401 531 386 618 301 618 C234 618 219 583 160 383 C152 355 145 325 116 232 L115 379 C115 447 110 468 46 468 C-2 468 6 226 6 201 C6 127 11 104 42 96 C59 93 86 95 101 118 C135 198 167 312 191 394 C214 478 234 541 246 541 C277 541 282 487 282 412 C282 336 271 264 271 191 C271 82 286 -23 353 -23 C365 -23 381 -10 396 9 C422 48 465 127 550 305 L525 306 Z M143 754 C158 754 178 744 199 731 C232 712 269 692 308 692 C337 692 374 714 374 747 C374 755 368 785 352 785 C345 776 347 774 350 771 L353 768 L352 768 C353 764 354 762 354 761 C354 738 333 728 314 728 C289 728 263 743 238 758 C211 773 185 788 162 788 C139 788 110 767 110 742 L111 722 C126 722 124 728 127 736 C130 744 132 754 143 754 L143 754 Z " />
<glyph glyph-name="ograve" unicode="&#xf2;" horiz-adv-x="373" d="M332 325 C332 396 306 551 210 551 C141 551 137 476 142 423 C136 443 110 489 86 489 C34 489 6 331 6 290 C6 192 11 42 143 42 C234 42 287 157 317 227 C373 227 416 265 445 305 L422 306 C397 275 367 251 324 251 C329 276 332 298 332 325 L332 325 Z M293 231 C277 191 230 88 178 88 C126 88 121 219 121 254 C121 309 129 358 145 409 L145 410 C167 327 216 268 293 231 L293 231 Z M164 451 C164 486 167 527 211 527 C287 527 309 384 309 328 C309 304 309 277 301 254 C224 283 164 367 164 451 L164 451 Z M139 779 C187 734 250 645 266 629 C285 610 289 620 282 641 C269 684 219 779 169 801 C147 809 109 803 139 779 L139 779 Z " />
<glyph glyph-name="oacute" unicode="&#xf3;" horiz-adv-x="373" d="M332 325 C332 396 306 551 210 551 C141 551 137 476 142 423 C136 443 110 489 86 489 C34 489 6 331 6 290 C6 192 11 42 143 42 C234 42 287 157 317 227 C373 227 416 265 445 305 L422 306 C397 275 367 251 324 251 C329 276 332 298 332 325 L332 325 Z M293 231 C277 191 230 88 178 88 C126 88 121 219 121 254 C121 309 129 358 145 409 L145 410 C167 327 216 268 293 231 L293 231 Z M164 451 C164 486 167 527 211 527 C287 527 309 384 309 328 C309 304 309 277 301 254 C224 283 164 367 164 451 L164 451 Z M226 757 C256 781 218 787 196 779 C148 758 94 662 83 619 C76 598 80 588 99 607 C115 623 178 712 226 757 L226 757 Z " />
<glyph glyph-name="ocircumflex" unicode="&#xf4;" horiz-adv-x="373" d="M332 325 C332 396 306 551 210 551 C141 551 137 476 142 423 C136 443 110 489 86 489 C34 489 6 331 6 290 C6 192 11 42 143 42 C234 42 287 157 317 227 C373 227 416 265 445 305 L422 306 C397 275 367 251 324 251 C329 276 332 298 332 325 L332 325 Z M293 231 C277 191 230 88 178 88 C126 88 121 219 121 254 C121 309 129 358 145 409 L145 410 C167 327 216 268 293 231 L293 231 Z M164 451 C164 486 167 527 211 527 C287 527 309 384 309 328 C309 304 309 277 301 254 C224 283 164 367 164 451 L164 451 Z M3 562 C3 533 22 526 49 525 L197 694 L268 612 L347 522 L370 540 L184 766 C164 766 3 580 3 562 L3 562 Z " />
<glyph glyph-name="otilde" unicode="&#xf5;" horiz-adv-x="373" d="M332 325 C332 396 306 551 210 551 C141 551 137 476 142 423 C136 443 110 489 86 489 C34 489 6 331 6 290 C6 192 11 42 143 42 C234 42 287 157 317 227 C373 227 416 265 445 305 L422 306 C397 275 367 251 324 251 C329 276 332 298 332 325 L332 325 Z M293 231 C277 191 230 88 178 88 C126 88 121 219 121 254 C121 309 129 358 145 409 L145 410 C167 327 216 268 293 231 L293 231 Z M164 451 C164 486 167 527 211 527 C287 527 309 384 309 328 C309 304 309 277 301 254 C224 283 164 367 164 451 L164 451 Z M87 672 C102 672 122 662 143 649 C176 630 213 610 252 610 C281 610 318 632 318 665 C318 673 312 703 296 703 C289 694 291 692 294 689 L297 686 L296 686 C297 682 298 680 298 679 C298 656 277 646 258 646 C233 646 207 661 182 676 C155 691 129 706 106 706 C83 706 54 685 54 660 L55 640 C70 640 68 646 71 654 C74 662 76 672 87 672 L87 672 Z " />
<glyph glyph-name="odieresis" unicode="&#xf6;" horiz-adv-x="373" d="M332 325 C332 396 306 551 210 551 C141 551 137 476 142 423 C136 443 110 489 86 489 C34 489 6 331 6 290 C6 192 11 42 143 42 C234 42 287 157 317 227 C373 227 416 265 445 305 L422 306 C397 275 367 251 324 251 C329 276 332 298 332 325 L332 325 Z M293 231 C277 191 230 88 178 88 C126 88 121 219 121 254 C121 309 129 358 145 409 L145 410 C167 327 216 268 293 231 L293 231 Z M164 451 C164 486 167 527 211 527 C287 527 309 384 309 328 C309 304 309 277 301 254 C224 283 164 367 164 451 L164 451 Z M76 654 C75 627 88 607 120 606 C155 605 165 631 168 659 C169 679 149 702 125 702 C92 705 77 685 76 654 L76 654 Z M203 654 C202 627 216 607 247 606 C282 605 292 631 295 659 C296 679 277 702 252 702 C219 705 204 685 203 654 L203 654 Z " />
<glyph glyph-name="divide" unicode="&#xf7;" horiz-adv-x="327" d="M167 322 C296 322 294 322 294 341 C294 361 286 359 166 362 L52 362 L48 355 C37 344 35 335 44 329 C46 322 64 322 167 322 L167 322 Z M117 438 C116 411 129 391 161 390 C196 390 206 415 209 443 C210 463 190 486 166 486 C133 489 117 469 117 438 L117 438 Z M116 248 C115 221 128 201 160 200 C195 199 205 225 208 252 C209 273 189 296 165 296 C132 299 117 279 116 248 L116 248 Z " />
<glyph glyph-name="oslash" unicode="&#xf8;" horiz-adv-x="373" d="M332 325 C332 396 306 551 210 551 C141 551 137 476 142 423 C136 443 110 489 86 489 C34 489 6 331 6 290 C6 192 11 42 143 42 C234 42 287 157 317 227 C373 227 416 265 445 305 L422 306 C397 275 367 251 324 251 C329 276 332 298 332 325 L332 325 Z M293 231 C277 191 230 88 178 88 C126 88 121 219 121 254 C121 309 129 358 145 409 L145 410 C167 327 216 268 293 231 L293 231 Z M164 451 C164 486 167 527 211 527 C287 527 309 384 309 328 C309 304 309 277 301 254 C224 283 164 367 164 451 L164 451 Z M285 821 C270 821 63 76 52 19 L79 10 C90 18 139 208 190 387 C194 399 197 413 200 425 C240 583 286 746 307 806 L285 821 Z " />
<glyph glyph-name="ugrave" unicode="&#xf9;" horiz-adv-x="524" d="M574 300 C538 204 452 -29 407 -29 C375 -29 411 184 411 201 C419 257 438 392 438 451 C438 482 381 487 361 487 C352 487 314 348 310 339 C275 262 207 113 153 113 C107 113 140 293 148 332 C167 407 204 467 115 467 C52 467 21 252 21 199 C21 151 28 54 96 54 C196 54 274 198 316 293 L309 261 L303 219 C294 160 286 100 286 39 C286 -8 303 -98 367 -98 C408 -98 454 -34 472 -3 C515 74 570 223 597 301 L574 300 Z M215 762 C263 717 326 628 342 612 C361 593 365 603 358 624 C345 667 295 762 245 784 C223 792 185 786 215 762 L215 762 Z " />
<glyph glyph-name="uacute" unicode="&#xfa;" horiz-adv-x="524" d="M574 300 C538 204 452 -29 407 -29 C375 -29 411 184 411 201 C419 257 438 392 438 451 C438 482 381 487 361 487 C352 487 314 348 310 339 C275 262 207 113 153 113 C107 113 140 293 148 332 C167 407 204 467 115 467 C52 467 21 252 21 199 C21 151 28 54 96 54 C196 54 274 198 316 293 L309 261 L303 219 C294 160 286 100 286 39 C286 -8 303 -98 367 -98 C408 -98 454 -34 472 -3 C515 74 570 223 597 301 L574 300 Z M302 778 C332 802 294 808 272 800 C224 779 170 683 159 640 C152 619 156 609 175 628 C191 644 254 733 302 778 L302 778 Z " />
<glyph glyph-name="ucircumflex" unicode="&#xfb;" horiz-adv-x="524" d="M574 300 C538 204 452 -29 407 -29 C375 -29 411 184 411 201 C419 257 438 392 438 451 C438 482 381 487 361 487 C352 487 314 348 310 339 C275 262 207 113 153 113 C107 113 140 293 148 332 C167 407 204 467 115 467 C52 467 21 252 21 199 C21 151 28 54 96 54 C196 54 274 198 316 293 L309 261 L303 219 C294 160 286 100 286 39 C286 -8 303 -98 367 -98 C408 -98 454 -34 472 -3 C515 74 570 223 597 301 L574 300 Z M78 642 C78 613 97 606 124 605 L272 774 L343 692 L422 602 L445 620 L259 846 C239 846 78 660 78 642 L78 642 Z " />
<glyph glyph-name="udieresis" unicode="&#xfc;" horiz-adv-x="524" d="M574 300 C538 204 452 -29 407 -29 C375 -29 411 184 411 201 C419 257 438 392 438 451 C438 482 381 487 361 487 C352 487 314 348 310 339 C275 262 207 113 153 113 C107 113 140 293 148 332 C167 407 204 467 115 467 C52 467 21 252 21 199 C21 151 28 54 96 54 C196 54 274 198 316 293 L309 261 L303 219 C294 160 286 100 286 39 C286 -8 303 -98 367 -98 C408 -98 454 -34 472 -3 C515 74 570 223 597 301 L574 300 Z M151 657 C150 630 163 610 195 609 C230 608 240 634 243 662 C244 682 224 705 200 705 C167 708 152 688 151 657 L151 657 Z M278 657 C277 630 291 610 322 609 C357 608 367 634 370 662 C371 682 352 705 327 705 C294 708 279 688 278 657 L278 657 Z " />
<glyph glyph-name="yacute" unicode="&#xfd;" horiz-adv-x="542" d="M434 328 C434 359 438 423 398 447 C370 464 339 461 324 424 C284 331 269 119 163 119 C118 119 118 194 118 226 C118 393 186 472 186 531 C186 557 150 570 130 570 C63 570 8 324 8 266 C8 185 24 69 127 69 C243 69 307 240 326 334 L326 320 C326 248 319 179 315 107 C151 12 49 -208 49 -394 C49 -469 73 -596 171 -596 C348 -596 423 -17 423 119 C496 159 558 228 577 311 L555 305 C524 236 490 189 425 149 C433 209 434 268 434 328 L434 328 Z M72 -400 C72 -226 157 -17 310 77 C290 -31 210 -519 122 -543 C78 -522 72 -441 72 -400 L72 -400 Z M311 832 C341 856 303 862 281 854 C233 833 179 737 168 694 C161 673 165 663 184 682 C200 698 263 787 311 832 L311 832 Z " />
<glyph glyph-name="thorn" unicode="&#xfe;" horiz-adv-x="387" d="M25 824 C17 740 11 366 7 99 L7 16 C7 -85 6 -163 7 -178 L57 -179 C60 -176 65 -78 65 43 C92 28 122 19 157 19 C266 19 322 172 322 295 C322 431 250 561 131 561 C108 561 89 549 74 534 L74 535 C73 535 73 535 72 534 C71 533 71 532 71 532 C74 661 75 769 79 825 L25 824 Z M107 511 C138 520 159 504 174 479 L174 480 C198 437 208 369 208 326 C208 227 189 86 90 86 C81 86 73 87 66 89 L66 119 C66 232 67 353 70 438 L70 485 C77 497 90 506 107 511 L107 511 Z " />
<glyph glyph-name="ydieresis" unicode="&#xff;" horiz-adv-x="542" d="M434 328 C434 359 438 423 398 447 C370 464 339 461 324 424 C284 331 269 119 163 119 C118 119 118 194 118 226 C118 393 186 472 186 531 C186 557 150 570 130 570 C63 570 8 324 8 266 C8 185 24 69 127 69 C243 69 307 240 326 334 L326 320 C326 248 319 179 315 107 C151 12 49 -208 49 -394 C49 -469 73 -596 171 -596 C348 -596 423 -17 423 119 C496 159 558 228 577 311 L555 305 C524 236 490 189 425 149 C433 209 434 268 434 328 L434 328 Z M72 -400 C72 -226 157 -17 310 77 C290 -31 210 -519 122 -543 C78 -522 72 -441 72 -400 L72 -400 Z M160 703 C159 676 172 656 204 655 C239 654 249 680 252 708 C253 728 233 751 209 751 C176 754 161 734 160 703 L160 703 Z M287 703 C286 676 300 656 331 655 C366 654 376 680 379 708 C380 728 361 751 336 751 C303 754 288 734 287 703 L287 703 Z " />
<glyph glyph-name="Amacron" unicode="&#x100;" horiz-adv-x="701" d="M276 514 C228 517 155 498 136 440 L157 441 C177 477 221 498 272 491 C256 414 176 -42 92 -42 C38 -42 27 41 27 81 C27 123 43 183 88 199 L89 220 C26 212 4 131 4 78 C4 27 22 -66 89 -66 C198 -66 279 402 295 485 L419 448 C427 290 413 -242 649 -242 C763 -242 796 -18 808 65 L785 67 C780 12 756 -181 680 -181 C543 -181 521 318 521 418 C537 415 554 412 570 412 C625 412 666 435 681 490 L660 494 C651 451 611 436 572 436 C556 436 538 438 522 441 C518 517 533 929 426 929 C374 929 293 568 276 514 L276 514 Z M407 874 C418 753 420 632 419 472 C380 483 341 496 302 507 C329 628 362 759 407 874 L407 874 Z M224 983 C233 984 259 986 334 986 C531 986 528 987 528 1003 C528 1020 517 1018 332 1021 L238 1021 L233 1012 L233 1013 C221 1001 222 996 230 989 C230 986 228 984 224 983 L224 983 Z " />
<glyph glyph-name="amacron" unicode="&#x101;" horiz-adv-x="465" d="M520 307 L492 240 C479 208 431 74 408 74 C376 74 379 227 379 248 C379 309 384 371 384 432 C384 469 354 501 317 501 C278 501 251 148 159 148 C103 148 105 241 105 279 C105 344 127 536 216 536 C254 536 254 500 268 475 L285 481 C272 532 241 574 185 574 C39 574 -4 381 -4 265 C-4 185 35 90 127 90 C198 90 255 221 271 279 C275 224 294 5 370 5 C412 5 450 74 479 148 C501 205 530 271 541 306 L520 307 Z M106 665 C115 666 141 668 216 668 C413 668 410 669 410 685 C410 702 399 700 214 703 L120 703 L115 694 L115 695 C103 683 104 678 112 671 C112 668 110 666 106 665 L106 665 Z " />
<glyph glyph-name="Abreve" unicode="&#x102;" horiz-adv-x="701" d="M276 514 C228 517 155 498 136 440 L157 441 C177 477 221 498 272 491 C256 414 176 -42 92 -42 C38 -42 27 41 27 81 C27 123 43 183 88 199 L89 220 C26 212 4 131 4 78 C4 27 22 -66 89 -66 C198 -66 279 402 295 485 L419 448 C427 290 413 -242 649 -242 C763 -242 796 -18 808 65 L785 67 C780 12 756 -181 680 -181 C543 -181 521 318 521 418 C537 415 554 412 570 412 C625 412 666 435 681 490 L660 494 C651 451 611 436 572 436 C556 436 538 438 522 441 C518 517 533 929 426 929 C374 929 293 568 276 514 L276 514 Z M407 874 C418 753 420 632 419 472 C380 483 341 496 302 507 C329 628 362 759 407 874 L407 874 Z M327 1046 C327 999 368 969 412 969 C465 969 518 989 518 1052 C518 1065 510 1109 490 1109 L482 1107 C482 1095 485 1090 489 1083 C492 1076 496 1072 496 1063 C496 1031 452 1020 426 1020 C398 1020 353 1036 353 1072 C353 1075 355 1081 358 1086 L357 1086 C360 1091 362 1096 362 1101 C362 1104 358 1109 355 1109 C335 1109 327 1058 327 1046 L327 1046 Z " />
<glyph glyph-name="abreve" unicode="&#x103;" horiz-adv-x="465" d="M520 307 L492 240 C479 208 431 74 408 74 C376 74 379 227 379 248 C379 309 384 371 384 432 C384 469 354 501 317 501 C278 501 251 148 159 148 C103 148 105 241 105 279 C105 344 127 536 216 536 C254 536 254 500 268 475 L285 481 C272 532 241 574 185 574 C39 574 -4 381 -4 265 C-4 185 35 90 127 90 C198 90 255 221 271 279 C275 224 294 5 370 5 C412 5 450 74 479 148 C501 205 530 271 541 306 L520 307 Z M136 731 C136 684 177 654 221 654 C274 654 327 674 327 737 C327 750 319 794 299 794 L291 792 C291 780 294 775 298 768 C301 761 305 757 305 748 C305 716 261 705 235 705 C207 705 162 721 162 757 C162 760 164 766 167 771 L166 771 C169 776 171 781 171 786 C171 789 167 794 164 794 C144 794 136 743 136 731 L136 731 Z " />
<glyph glyph-name="Aogonek" unicode="&#x104;" horiz-adv-x="701" d="M276 514 C228 517 155 498 136 440 L157 441 C177 477 221 498 272 491 C256 414 176 -42 92 -42 C38 -42 27 41 27 81 C27 123 43 183 88 199 L89 220 C26 212 4 131 4 78 C4 27 22 -66 89 -66 C198 -66 279 402 295 485 L419 448 C427 290 413 -242 649 -242 C763 -242 796 -18 808 65 L785 67 C780 12 756 -181 680 -181 C543 -181 521 318 521 418 C537 415 554 412 570 412 C625 412 666 435 681 490 L660 494 C651 451 611 436 572 436 C556 436 538 438 522 441 C518 517 533 929 426 929 C374 929 293 568 276 514 L276 514 Z M407 874 C418 753 420 632 419 472 C380 483 341 496 302 507 C329 628 362 759 407 874 L407 874 Z M590 -193 C587 -214 592 -235 596 -252 C596 -253 597 -254 597 -257 C602 -280 607 -302 607 -317 C607 -333 600 -343 584 -339 C549 -328 538 -307 531 -292 L526 -282 L524 -265 L516 -273 C503 -264 494 -274 502 -293 L505 -298 C508 -301 509 -302 510 -305 L510 -304 C519 -323 536 -351 579 -364 C618 -375 634 -359 642 -332 C645 -321 646 -306 646 -289 C646 -278 645 -268 645 -257 C644 -242 643 -226 646 -209 L590 -193 Z " />
<glyph glyph-name="aogonek" unicode="&#x105;" horiz-adv-x="465" d="M520 307 L492 240 C479 208 431 74 408 74 C376 74 379 227 379 248 C379 309 384 371 384 432 C384 469 354 501 317 501 C278 501 251 148 159 148 C103 148 105 241 105 279 C105 344 127 536 216 536 C254 536 254 500 268 475 L285 481 C272 532 241 574 185 574 C39 574 -4 381 -4 265 C-4 185 35 90 127 90 C198 90 255 221 271 279 C275 224 294 5 370 5 C412 5 450 74 479 148 C501 205 530 271 541 306 L520 307 Z M346 51 C343 30 348 9 352 -8 C352 -9 353 -10 353 -13 C358 -36 363 -58 363 -73 C363 -89 356 -99 340 -95 C305 -84 294 -63 287 -48 L282 -38 L280 -21 L272 -29 C259 -20 250 -30 258 -49 L261 -54 C264 -57 265 -58 266 -61 L266 -60 C275 -79 292 -107 335 -120 C374 -131 390 -115 398 -88 C401 -77 402 -62 402 -45 C402 -34 401 -24 401 -13 C400 2 399 18 402 35 L346 51 Z " />
<glyph glyph-name="Cacute" unicode="&#x106;" horiz-adv-x="606" d="M387 922 C94 922 13 536 13 307 C13 127 66 -168 300 -168 C560 -168 645 99 677 310 L653 307 C629 188 585 -59 424 -59 C224 -59 175 163 175 321 C175 478 246 850 456 850 C511 850 536 782 536 735 C536 693 516 647 467 647 C446 647 425 660 406 671 L394 651 C417 635 444 624 472 624 C533 624 559 682 559 735 C559 836 492 922 387 922 L387 922 Z M343 1121 C373 1145 335 1151 313 1143 C265 1122 211 1026 200 983 C193 962 197 952 216 971 C232 987 295 1076 343 1121 L343 1121 Z " />
<glyph glyph-name="cacute" unicode="&#x107;" horiz-adv-x="387" d="M-11 295 C-11 172 44 19 155 19 C251 19 320 100 363 172 C398 234 416 297 416 305 L399 305 C396 294 375 236 343 183 C314 141 279 86 222 86 C124 86 103 227 103 326 C103 389 117 519 205 511 C232 508 243 496 254 451 L267 452 C267 502 233 561 180 561 C62 561 -11 431 -11 295 L-11 295 Z M236 815 C266 839 228 845 206 837 C158 816 104 720 93 677 C86 656 90 646 109 665 C125 681 188 770 236 815 L236 815 Z " />
<glyph glyph-name="Ccircumflex" unicode="&#x108;" horiz-adv-x="606" d="M387 922 C94 922 13 536 13 307 C13 127 66 -168 300 -168 C560 -168 645 99 677 310 L653 307 C629 188 585 -59 424 -59 C224 -59 175 163 175 321 C175 478 246 850 456 850 C511 850 536 782 536 735 C536 693 516 647 467 647 C446 647 425 660 406 671 L394 651 C417 635 444 624 472 624 C533 624 559 682 559 735 C559 836 492 922 387 922 L387 922 Z M119 982 C119 953 138 946 165 945 L313 1114 L384 1032 L463 942 L486 960 L300 1186 C280 1186 119 1000 119 982 L119 982 Z " />
<glyph glyph-name="ccircumflex" unicode="&#x109;" horiz-adv-x="387" d="M-11 295 C-11 172 44 19 155 19 C251 19 320 100 363 172 C398 234 416 297 416 305 L399 305 C396 294 375 236 343 183 C314 141 279 86 222 86 C124 86 103 227 103 326 C103 389 117 519 205 511 C232 508 243 496 254 451 L267 452 C267 502 233 561 180 561 C62 561 -11 431 -11 295 L-11 295 Z M10 644 C10 615 29 608 56 607 L204 776 L275 694 L354 604 L377 622 L191 848 C171 848 10 662 10 644 L10 644 Z " />
<glyph glyph-name="Cdotaccent" unicode="&#x10a;" horiz-adv-x="606" d="M387 922 C94 922 13 536 13 307 C13 127 66 -168 300 -168 C560 -168 645 99 677 310 L653 307 C629 188 585 -59 424 -59 C224 -59 175 163 175 321 C175 478 246 850 456 850 C511 850 536 782 536 735 C536 693 516 647 467 647 C446 647 425 660 406 671 L394 651 C417 635 444 624 472 624 C533 624 559 682 559 735 C559 836 492 922 387 922 L387 922 Z M256 1002 C255 977 269 956 300 955 C335 954 346 980 349 1007 C350 1028 330 1051 305 1051 C273 1052 257 1033 256 1002 L256 1002 Z " />
<glyph glyph-name="cdotaccent" unicode="&#x10b;" horiz-adv-x="387" d="M-11 295 C-11 172 44 19 155 19 C251 19 320 100 363 172 C398 234 416 297 416 305 L399 305 C396 294 375 236 343 183 C314 141 279 86 222 86 C124 86 103 227 103 326 C103 389 117 519 205 511 C232 508 243 496 254 451 L267 452 C267 502 233 561 180 561 C62 561 -11 431 -11 295 L-11 295 Z M146 660 C145 635 159 614 190 613 C225 612 236 638 239 665 C240 686 220 709 195 709 C163 710 147 691 146 660 L146 660 Z " />
<glyph glyph-name="Ccaron" unicode="&#x10c;" horiz-adv-x="606" d="M387 922 C94 922 13 536 13 307 C13 127 66 -168 300 -168 C560 -168 645 99 677 310 L653 307 C629 188 585 -59 424 -59 C224 -59 175 163 175 321 C175 478 246 850 456 850 C511 850 536 782 536 735 C536 693 516 647 467 647 C446 647 425 660 406 671 L394 651 C417 635 444 624 472 624 C533 624 559 682 559 735 C559 836 492 922 387 922 L387 922 Z M119 1149 C119 1132 280 945 300 945 L486 1171 L464 1187 L384 1099 L313 1017 L165 1186 C138 1185 119 1178 119 1149 L119 1149 Z " />
<glyph glyph-name="ccaron" unicode="&#x10d;" horiz-adv-x="387" d="M-11 295 C-11 172 44 19 155 19 C251 19 320 100 363 172 C398 234 416 297 416 305 L399 305 C396 294 375 236 343 183 C314 141 279 86 222 86 C124 86 103 227 103 326 C103 389 117 519 205 511 C232 508 243 496 254 451 L267 452 C267 502 233 561 180 561 C62 561 -11 431 -11 295 L-11 295 Z M4 811 C4 794 165 607 185 607 L371 833 L349 849 L269 761 L198 679 L50 848 C23 847 4 840 4 811 L4 811 Z " />
<glyph glyph-name="Dcaron" unicode="&#x10e;" horiz-adv-x="771" d="M822 220 C773 219 718 216 673 207 C707 321 740 491 740 595 C740 752 686 902 503 902 C385 902 300 811 244 717 C236 801 159 920 65 920 C16 920 -35 878 -35 826 C-35 794 -28 765 -13 738 L7 750 L4 750 C-11 773 -14 799 -14 826 C-14 849 0 870 19 881 L18 881 C25 886 32 888 41 888 C120 888 150 675 150 615 C115 497 100 449 84 403 C53 310 35 204 35 112 C35 53 53 -5 122 -5 C263 -5 271 297 271 390 C271 482 253 572 253 664 C253 727 374 864 438 864 C548 864 586 743 586 652 C586 538 570 326 512 189 C481 181 455 176 431 168 C408 161 385 153 364 144 C308 121 273 95 246 71 C190 22 164 -51 184 -112 C211 -196 297 -198 390 -150 C496 -95 625 72 662 180 C693 189 724 193 755 196 C778 197 800 200 823 199 L822 220 Z M204 -39 C215 10 246 47 287 78 C336 114 400 138 453 151 C468 155 479 156 492 159 C430 46 336 -67 282 -91 C237 -110 196 -102 204 -39 L204 -39 Z M58 114 C58 259 101 398 152 533 C156 484 158 435 158 386 C158 340 158 25 98 25 C61 25 58 90 58 114 L58 114 Z M202 1149 C202 1132 363 945 383 945 L569 1171 L547 1187 L467 1099 L396 1017 L248 1186 C221 1185 202 1178 202 1149 L202 1149 Z " />
<glyph glyph-name="dcaron" unicode="&#x10f;" horiz-adv-x="739" d="M601 305 C589 262 527 43 479 43 C404 43 388 405 388 469 C481 581 533 773 533 917 C533 958 522 1025 469 1025 C316 1025 301 652 285 545 C266 554 245 558 225 558 C89 558 3 433 3 305 C3 192 17 28 166 28 C250 28 288 89 310 162 C323 103 366 -34 442 -34 C536 -34 604 238 624 310 L601 305 Z M220 90 C147 90 123 242 123 296 C123 361 156 533 241 533 C285 533 284 511 284 475 C284 394 297 314 297 233 C297 188 280 90 220 90 L220 90 Z M512 912 C512 795 462 591 386 502 C389 610 391 722 418 826 C423 852 469 986 495 986 C511 986 512 924 512 912 L512 912 Z M687 878 C687 902 681 939 643 939 C603 939 588 903 588 885 C588 868 602 835 631 835 C632 835 636 835 640 836 C641 836 642 837 643 837 L650 840 C646 819 624 802 608 790 C595 779 604 764 619 774 C642 789 687 825 687 878 L687 878 Z " />
<glyph glyph-name="Dcroat" unicode="&#x110;" horiz-adv-x="771" d="M-39 288 C-30 289 -5 290 55 291 C42 228 35 169 35 112 C35 53 53 -5 122 -5 C229 -5 259 166 267 291 C355 291 354 295 354 305 C354 313 346 319 269 319 C272 348 271 373 271 390 C271 482 253 572 253 664 C253 727 374 864 438 864 C548 864 586 743 586 652 C586 538 570 326 512 189 C481 181 455 176 431 168 C408 161 385 153 364 144 C308 121 273 94 246 70 C190 21 166 -51 186 -112 C213 -196 296 -198 390 -150 C495 -95 625 73 662 181 C693 190 724 193 755 196 C778 197 800 200 823 199 L822 220 C773 219 718 216 673 207 C707 321 740 491 740 595 C740 752 686 902 503 902 C385 902 300 811 244 717 C236 801 159 920 65 920 C16 920 -35 878 -35 826 C-35 794 -28 765 -13 738 L7 750 L4 750 C-11 773 -14 799 -14 826 C-14 849 0 870 19 881 L18 881 C25 886 32 888 41 888 C120 888 150 675 150 615 C115 497 100 449 84 403 C75 376 68 349 61 321 L-21 321 L-28 313 L-28 314 C-43 303 -43 298 -32 293 C-32 291 -34 289 -39 288 L-39 288 Z M204 -39 C215 10 246 47 287 78 C336 114 400 138 453 151 C468 155 479 156 492 159 C430 46 336 -67 282 -91 C237 -110 196 -102 204 -39 L204 -39 Z M58 114 C58 174 65 232 77 291 L103 291 L156 291 C153 182 140 25 98 25 C61 25 58 90 58 114 L58 114 Z M152 533 C156 484 158 435 158 386 C158 375 158 351 157 320 C138 320 121 321 100 321 L84 321 C103 393 125 464 152 533 L152 533 Z " />
<glyph glyph-name="dcroat" unicode="&#x111;" horiz-adv-x="570" d="M454 1001 C424 985 376 946 355 920 C331 955 287 981 240 981 C225 981 209 977 192 970 C181 962 154 945 154 923 L171 921 C178 936 200 957 224 957 C272 957 296 919 319 870 C300 846 265 774 265 768 L284 762 C299 797 311 818 330 845 C366 753 373 655 373 555 C373 512 373 479 366 442 C351 461 335 481 311 497 C291 510 266 519 231 519 C196 519 166 512 139 498 C51 455 9 354 9 257 C9 150 66 -3 207 -3 C422 -3 468 316 468 467 C468 624 439 762 367 899 C394 932 420 958 459 977 L454 1001 Z M228 497 C251 497 283 488 304 473 C332 453 354 417 354 390 C354 317 275 54 180 54 C124 54 92 79 71 116 L71 115 C44 162 35 217 35 266 C35 374 103 497 228 497 L228 497 Z " />
<glyph glyph-name="Emacron" unicode="&#x112;" horiz-adv-x="612" d="M496 792 C496 880 427 950 339 950 C190 950 60 801 60 656 C60 548 139 455 251 455 C95 383 7 256 7 83 C7 -89 104 -232 287 -232 C530 -232 627 124 675 310 L651 312 C619 190 532 -140 372 -140 C232 -140 180 43 180 158 C180 293 258 417 379 479 L378 490 C359 487 338 481 319 481 C232 481 192 561 192 638 C192 742 298 885 409 885 C457 885 472 834 472 794 C472 753 445 709 401 709 C376 709 352 721 333 736 L320 714 C345 695 374 685 407 685 C459 685 496 744 496 792 L496 792 Z M180 983 C189 984 215 986 290 986 C487 986 484 987 484 1003 C484 1020 473 1018 288 1021 L194 1021 L189 1012 L189 1013 C177 1001 178 996 186 989 C186 986 184 984 180 983 L180 983 Z " />
<glyph glyph-name="emacron" unicode="&#x113;" horiz-adv-x="349" d="M210 558 C79 558 3 394 3 282 C3 182 60 54 176 54 C298 54 383 206 420 305 L397 306 C373 246 295 97 221 97 C141 97 85 276 120 330 C191 341 322 386 322 475 C322 533 260 558 210 558 L210 558 Z M245 520 C272 520 300 506 300 477 C300 406 185 355 125 355 C124 356 123 356 123 356 C126 403 196 520 245 520 L245 520 Z M48 618 C57 619 83 621 158 621 C355 621 352 622 352 638 C352 655 341 653 156 656 L62 656 L57 647 L57 648 C45 636 46 631 54 624 C54 621 52 619 48 618 L48 618 Z " />
<glyph glyph-name="Ebreve" unicode="&#x114;" horiz-adv-x="612" d="M496 792 C496 880 427 950 339 950 C190 950 60 801 60 656 C60 548 139 455 251 455 C95 383 7 256 7 83 C7 -89 104 -232 287 -232 C530 -232 627 124 675 310 L651 312 C619 190 532 -140 372 -140 C232 -140 180 43 180 158 C180 293 258 417 379 479 L378 490 C359 487 338 481 319 481 C232 481 192 561 192 638 C192 742 298 885 409 885 C457 885 472 834 472 794 C472 753 445 709 401 709 C376 709 352 721 333 736 L320 714 C345 695 374 685 407 685 C459 685 496 744 496 792 L496 792 Z M210 1046 C210 999 251 969 295 969 C348 969 401 989 401 1052 C401 1065 393 1109 373 1109 L365 1107 C365 1095 368 1090 372 1083 C375 1076 379 1072 379 1063 C379 1031 335 1020 309 1020 C281 1020 236 1036 236 1072 C236 1075 238 1081 241 1086 L240 1086 C243 1091 245 1096 245 1101 C245 1104 241 1109 238 1109 C218 1109 210 1058 210 1046 L210 1046 Z " />
<glyph glyph-name="ebreve" unicode="&#x115;" horiz-adv-x="349" d="M210 558 C79 558 3 394 3 282 C3 182 60 54 176 54 C298 54 383 206 420 305 L397 306 C373 246 295 97 221 97 C141 97 85 276 120 330 C191 341 322 386 322 475 C322 533 260 558 210 558 L210 558 Z M245 520 C272 520 300 506 300 477 C300 406 185 355 125 355 C124 356 123 356 123 356 C126 403 196 520 245 520 L245 520 Z M78 700 C78 653 119 623 163 623 C216 623 269 643 269 706 C269 719 261 763 241 763 L233 761 C233 749 236 744 240 737 C243 730 247 726 247 717 C247 685 203 674 177 674 C149 674 104 690 104 726 C104 729 106 735 109 740 L108 740 C111 745 113 750 113 755 C113 758 109 763 106 763 C86 763 78 712 78 700 L78 700 Z " />
<glyph glyph-name="Edotaccent" unicode="&#x116;" horiz-adv-x="612" d="M496 792 C496 880 427 950 339 950 C190 950 60 801 60 656 C60 548 139 455 251 455 C95 383 7 256 7 83 C7 -89 104 -232 287 -232 C530 -232 627 124 675 310 L651 312 C619 190 532 -140 372 -140 C232 -140 180 43 180 158 C180 293 258 417 379 479 L378 490 C359 487 338 481 319 481 C232 481 192 561 192 638 C192 742 298 885 409 885 C457 885 472 834 472 794 C472 753 445 709 401 709 C376 709 352 721 333 736 L320 714 C345 695 374 685 407 685 C459 685 496 744 496 792 L496 792 Z M259 955 C258 930 272 909 303 908 C338 907 349 933 352 960 C353 981 333 1004 308 1004 C276 1005 260 986 259 955 L259 955 Z " />
<glyph glyph-name="edotaccent" unicode="&#x117;" horiz-adv-x="349" d="M210 558 C79 558 3 394 3 282 C3 182 60 54 176 54 C298 54 383 206 420 305 L397 306 C373 246 295 97 221 97 C141 97 85 276 120 330 C191 341 322 386 322 475 C322 533 260 558 210 558 L210 558 Z M245 520 C272 520 300 506 300 477 C300 406 185 355 125 355 C124 356 123 356 123 356 C126 403 196 520 245 520 L245 520 Z M127 643 C126 618 140 597 171 596 C206 595 217 621 220 648 C221 669 201 692 176 692 C144 693 128 674 127 643 L127 643 Z " />
<glyph glyph-name="Eogonek" unicode="&#x118;" horiz-adv-x="612" d="M496 792 C496 880 427 950 339 950 C190 950 60 801 60 656 C60 548 139 455 251 455 C95 383 7 256 7 83 C7 -89 104 -232 287 -232 C530 -232 627 124 675 310 L651 312 C619 190 532 -140 372 -140 C232 -140 180 43 180 158 C180 293 258 417 379 479 L378 490 C359 487 338 481 319 481 C232 481 192 561 192 638 C192 742 298 885 409 885 C457 885 472 834 472 794 C472 753 445 709 401 709 C376 709 352 721 333 736 L320 714 C345 695 374 685 407 685 C459 685 496 744 496 792 L496 792 Z M282 -196 C279 -217 284 -238 288 -255 C288 -256 289 -257 289 -260 C294 -283 299 -305 299 -320 C299 -336 292 -346 276 -342 C241 -331 230 -310 223 -295 L218 -285 L216 -268 L208 -276 C195 -267 186 -277 194 -296 L197 -301 C200 -304 201 -305 202 -308 L202 -307 C211 -326 228 -354 271 -367 C310 -378 326 -362 334 -335 C337 -324 338 -309 338 -292 C338 -281 337 -271 337 -260 C336 -245 335 -229 338 -212 L282 -196 Z " />
<glyph glyph-name="eogonek" unicode="&#x119;" horiz-adv-x="349" d="M210 558 C79 558 3 394 3 282 C3 182 60 54 176 54 C298 54 383 206 420 305 L397 306 C373 246 295 97 221 97 C141 97 85 276 120 330 C191 341 322 386 322 475 C322 533 260 558 210 558 L210 558 Z M245 520 C272 520 300 506 300 477 C300 406 185 355 125 355 C124 356 123 356 123 356 C126 403 196 520 245 520 L245 520 Z M135 91 C132 70 137 49 141 32 C141 31 142 30 142 27 C147 4 152 -18 152 -33 C152 -49 145 -59 129 -55 C94 -44 83 -23 76 -8 L71 2 L69 19 L61 11 C48 20 39 10 47 -9 L50 -14 C53 -17 54 -18 55 -21 L55 -20 C64 -39 81 -67 124 -80 C163 -91 179 -75 187 -48 C190 -37 191 -22 191 -5 C191 6 190 16 190 27 C189 42 188 58 191 75 L135 91 Z " />
<glyph glyph-name="Ecaron" unicode="&#x11a;" horiz-adv-x="612" d="M496 792 C496 880 427 950 339 950 C190 950 60 801 60 656 C60 548 139 455 251 455 C95 383 7 256 7 83 C7 -89 104 -232 287 -232 C530 -232 627 124 675 310 L651 312 C619 190 532 -140 372 -140 C232 -140 180 43 180 158 C180 293 258 417 379 479 L378 490 C359 487 338 481 319 481 C232 481 192 561 192 638 C192 742 298 885 409 885 C457 885 472 834 472 794 C472 753 445 709 401 709 C376 709 352 721 333 736 L320 714 C345 695 374 685 407 685 C459 685 496 744 496 792 L496 792 Z M122 1201 C122 1184 283 997 303 997 L489 1223 L467 1239 L387 1151 L316 1069 L168 1238 C141 1237 122 1230 122 1201 L122 1201 Z " />
<glyph glyph-name="ecaron" unicode="&#x11b;" horiz-adv-x="349" d="M210 558 C79 558 3 394 3 282 C3 182 60 54 176 54 C298 54 383 206 420 305 L397 306 C373 246 295 97 221 97 C141 97 85 276 120 330 C191 341 322 386 322 475 C322 533 260 558 210 558 L210 558 Z M245 520 C272 520 300 506 300 477 C300 406 185 355 125 355 C124 356 123 356 123 356 C126 403 196 520 245 520 L245 520 Z M-9 797 C-9 780 152 593 172 593 L358 819 L336 835 L256 747 L185 665 L37 834 C10 833 -9 826 -9 797 L-9 797 Z " />
<glyph glyph-name="Gcircumflex" unicode="&#x11c;" horiz-adv-x="671" d="M445 891 C484 891 505 856 505 821 C505 778 483 737 437 737 C418 737 390 750 375 759 L363 740 C388 723 415 715 444 715 C498 715 529 777 529 824 C529 885 485 920 425 920 C184 920 5 645 5 424 C5 280 86 150 243 150 C383 150 458 371 490 479 L492 442 C492 354 489 268 476 181 C381 88 264 -39 264 -182 C264 -236 286 -301 350 -301 C518 -301 566 81 586 204 C651 228 710 241 739 308 L712 308 C701 268 625 242 588 232 C588 288 593 340 593 396 C593 457 594 605 505 605 C481 605 481 580 481 563 C481 490 384 202 299 202 C200 202 158 355 158 432 C158 585 254 891 445 891 L445 891 Z M319 -251 C291 -251 288 -202 288 -182 C288 -60 386 66 474 143 C462 79 393 -251 319 -251 L319 -251 Z M151 982 C151 953 170 946 197 945 L345 1114 L416 1032 L495 942 L518 960 L332 1186 C312 1186 151 1000 151 982 L151 982 Z " />
<glyph glyph-name="gcircumflex" unicode="&#x11d;" horiz-adv-x="466" d="M554 304 C507 232 455 156 380 108 L382 493 C370 504 352 514 335 514 C322 514 306 505 299 494 C276 527 243 553 202 553 C-8 553 -97 66 143 66 C214 66 250 142 271 200 L271 105 L268 48 C143 -75 31 -251 31 -433 C31 -506 40 -607 137 -607 C371 -607 380 -72 380 74 C403 93 424 109 443 128 C495 179 536 232 576 304 L554 304 Z M53 -439 C53 -270 151 -93 268 24 C260 -73 238 -563 99 -563 C60 -563 50 -460 53 -439 L53 -439 Z M136 127 C63 208 124 520 223 520 C254 520 270 495 289 474 L288 473 C259 394 277 295 264 244 C259 228 236 173 213 139 C190 106 163 99 136 127 L136 127 Z M49 627 C49 598 68 591 95 590 L243 759 L314 677 L393 587 L416 605 L230 831 C210 831 49 645 49 627 L49 627 Z " />
<glyph glyph-name="Gbreve" unicode="&#x11e;" horiz-adv-x="671" d="M445 891 C484 891 505 856 505 821 C505 778 483 737 437 737 C418 737 390 750 375 759 L363 740 C388 723 415 715 444 715 C498 715 529 777 529 824 C529 885 485 920 425 920 C184 920 5 645 5 424 C5 280 86 150 243 150 C383 150 458 371 490 479 L492 442 C492 354 489 268 476 181 C381 88 264 -39 264 -182 C264 -236 286 -301 350 -301 C518 -301 566 81 586 204 C651 228 710 241 739 308 L712 308 C701 268 625 242 588 232 C588 288 593 340 593 396 C593 457 594 605 505 605 C481 605 481 580 481 563 C481 490 384 202 299 202 C200 202 158 355 158 432 C158 585 254 891 445 891 L445 891 Z M319 -251 C291 -251 288 -202 288 -182 C288 -60 386 66 474 143 C462 79 393 -251 319 -251 L319 -251 Z M239 1046 C239 999 280 969 324 969 C377 969 430 989 430 1052 C430 1065 422 1109 402 1109 L394 1107 C394 1095 397 1090 401 1083 C404 1076 408 1072 408 1063 C408 1031 364 1020 338 1020 C310 1020 265 1036 265 1072 C265 1075 267 1081 270 1086 L269 1086 C272 1091 274 1096 274 1101 C274 1104 270 1109 267 1109 C247 1109 239 1058 239 1046 L239 1046 Z " />
<glyph glyph-name="gbreve" unicode="&#x11f;" horiz-adv-x="466" d="M554 304 C507 232 455 156 380 108 L382 493 C370 504 352 514 335 514 C322 514 306 505 299 494 C276 527 243 553 202 553 C-8 553 -97 66 143 66 C214 66 250 142 271 200 L271 105 L268 48 C143 -75 31 -251 31 -433 C31 -506 40 -607 137 -607 C371 -607 380 -72 380 74 C403 93 424 109 443 128 C495 179 536 232 576 304 L554 304 Z M53 -439 C53 -270 151 -93 268 24 C260 -73 238 -563 99 -563 C60 -563 50 -460 53 -439 L53 -439 Z M136 127 C63 208 124 520 223 520 C254 520 270 495 289 474 L288 473 C259 394 277 295 264 244 C259 228 236 173 213 139 C190 106 163 99 136 127 L136 127 Z M137 696 C137 649 178 619 222 619 C275 619 328 639 328 702 C328 715 320 759 300 759 L292 757 C292 745 295 740 299 733 C302 726 306 722 306 713 C306 681 262 670 236 670 C208 670 163 686 163 722 C163 725 165 731 168 736 L167 736 C170 741 172 746 172 751 C172 754 168 759 165 759 C145 759 137 708 137 696 L137 696 Z " />
<glyph glyph-name="Gdotaccent" unicode="&#x120;" horiz-adv-x="671" d="M445 891 C484 891 505 856 505 821 C505 778 483 737 437 737 C418 737 390 750 375 759 L363 740 C388 723 415 715 444 715 C498 715 529 777 529 824 C529 885 485 920 425 920 C184 920 5 645 5 424 C5 280 86 150 243 150 C383 150 458 371 490 479 L492 442 C492 354 489 268 476 181 C381 88 264 -39 264 -182 C264 -236 286 -301 350 -301 C518 -301 566 81 586 204 C651 228 710 241 739 308 L712 308 C701 268 625 242 588 232 C588 288 593 340 593 396 C593 457 594 605 505 605 C481 605 481 580 481 563 C481 490 384 202 299 202 C200 202 158 355 158 432 C158 585 254 891 445 891 L445 891 Z M319 -251 C291 -251 288 -202 288 -182 C288 -60 386 66 474 143 C462 79 393 -251 319 -251 L319 -251 Z M288 955 C287 930 301 909 332 908 C367 907 378 933 381 960 C382 981 362 1004 337 1004 C305 1005 289 986 288 955 L288 955 Z " />
<glyph glyph-name="gdotaccent" unicode="&#x121;" horiz-adv-x="466" d="M554 304 C507 232 455 156 380 108 L382 493 C370 504 352 514 335 514 C322 514 306 505 299 494 C276 527 243 553 202 553 C-8 553 -97 66 143 66 C214 66 250 142 271 200 L271 105 L268 48 C143 -75 31 -251 31 -433 C31 -506 40 -607 137 -607 C371 -607 380 -72 380 74 C403 93 424 109 443 128 C495 179 536 232 576 304 L554 304 Z M53 -439 C53 -270 151 -93 268 24 C260 -73 238 -563 99 -563 C60 -563 50 -460 53 -439 L53 -439 Z M136 127 C63 208 124 520 223 520 C254 520 270 495 289 474 L288 473 C259 394 277 295 264 244 C259 228 236 173 213 139 C190 106 163 99 136 127 L136 127 Z M186 679 C185 654 199 633 230 632 C265 631 276 657 279 684 C280 705 260 728 235 728 C203 729 187 710 186 679 L186 679 Z " />
<glyph glyph-name="Gcommaaccent" unicode="&#x122;" horiz-adv-x="671" d="M445 891 C484 891 505 856 505 821 C505 778 483 737 437 737 C418 737 390 750 375 759 L363 740 C388 723 415 715 444 715 C498 715 529 777 529 824 C529 885 485 920 425 920 C184 920 5 645 5 424 C5 280 86 150 243 150 C383 150 458 371 490 479 L492 442 C492 354 489 268 476 181 C381 88 264 -39 264 -182 C264 -236 286 -301 350 -301 C518 -301 566 81 586 204 C651 228 710 241 739 308 L712 308 C701 268 625 242 588 232 C588 288 593 340 593 396 C593 457 594 605 505 605 C481 605 481 580 481 563 C481 490 384 202 299 202 C200 202 158 355 158 432 C158 585 254 891 445 891 L445 891 Z M319 -251 C291 -251 288 -202 288 -182 C288 -60 386 66 474 143 C462 79 393 -251 319 -251 L319 -251 Z M402 -418 C402 -394 396 -358 359 -358 C316 -358 304 -393 304 -411 C304 -429 317 -461 346 -461 C349 -461 352 -461 356 -460 C357 -460 358 -459 359 -459 L366 -456 C362 -477 339 -495 323 -507 C310 -515 318 -532 334 -522 C359 -508 402 -471 402 -418 L402 -418 Z " />
<glyph glyph-name="gcommaaccent" unicode="&#x123;" horiz-adv-x="466" d="M554 304 C507 232 455 156 380 108 L382 493 C370 504 352 514 335 514 C322 514 306 505 299 494 C276 527 243 553 202 553 C-8 553 -97 66 143 66 C214 66 250 142 271 200 L271 105 L268 48 C143 -75 31 -251 31 -433 C31 -506 40 -607 137 -607 C371 -607 380 -72 380 74 C403 93 424 109 443 128 C495 179 536 232 576 304 L554 304 Z M53 -439 C53 -270 151 -93 268 24 C260 -73 238 -563 99 -563 C60 -563 50 -460 53 -439 L53 -439 Z M136 127 C63 208 124 520 223 520 C254 520 270 495 289 474 L288 473 C259 394 277 295 264 244 C259 228 236 173 213 139 C190 106 163 99 136 127 L136 127 Z M183 749 C183 695 226 662 251 645 C266 635 275 650 262 661 C246 673 224 690 220 711 L227 708 C228 707 228 707 229 707 C233 706 236 706 239 706 C268 706 282 739 282 756 C282 774 267 810 227 810 C189 810 183 773 183 749 L183 749 Z " />
<glyph glyph-name="Hcircumflex" unicode="&#x124;" horiz-adv-x="651" d="M71 714 C51 731 46 759 46 784 C46 805 57 857 86 857 C97 857 108 846 115 839 L114 840 C159 715 151 538 159 405 C120 390 87 360 64 325 L93 325 C110 348 131 365 158 376 C157 353 161 332 161 309 C161 252 159 -86 80 -86 C43 -86 30 -10 30 17 C30 52 42 84 62 111 L41 124 C20 92 6 53 6 14 C6 -52 37 -131 114 -131 C276 -131 255 165 263 317 C264 346 259 370 264 385 C315 385 363 375 412 375 L410 218 C410 89 394 -251 590 -251 C735 -251 736 -9 744 92 L721 91 C717 36 707 -203 631 -203 C515 -203 516 62 516 139 C516 224 517 308 520 393 C560 404 597 428 613 467 L586 467 C574 443 547 425 522 418 L521 470 C521 602 533 732 536 864 C517 876 495 885 472 885 C456 885 438 881 423 874 C419 714 415 558 412 398 C363 399 314 407 265 410 C257 515 290 912 126 912 C60 912 26 837 26 780 C26 751 36 726 56 703 L71 714 Z M141 982 C141 953 160 946 187 945 L335 1114 L406 1032 L485 942 L508 960 L322 1186 C302 1186 141 1000 141 982 L141 982 Z " />
<glyph glyph-name="hcircumflex" unicode="&#x125;" horiz-adv-x="461" d="M477 302 C469 259 376 -19 338 -19 C329 -19 322 4 325 64 C328 169 347 267 350 368 C353 418 327 484 274 487 C182 490 121 354 94 269 C91 284 93 279 94 287 C94 326 98 386 103 423 C106 428 124 448 147 475 C207 551 318 691 355 815 C379 891 381 997 283 1000 C31 1005 -2 462 -2 286 C-2 196 4 59 50 59 C109 59 93 161 98 193 C106 240 160 421 222 437 C251 440 249 410 249 376 C245 281 165 -106 316 -78 C324 -75 340 -68 348 -60 C416 8 484 229 504 301 L477 302 Z M104 464 C112 549 139 756 201 877 C241 951 345 1032 345 893 C345 758 181 553 104 464 L104 464 Z M46 983 C46 954 65 947 92 946 L240 1115 L311 1033 L390 943 L413 961 L227 1187 C207 1187 46 1001 46 983 L46 983 Z " />
<glyph glyph-name="Hbar" unicode="&#x126;" horiz-adv-x="651" d="M71 714 C51 731 46 759 46 784 C46 805 57 857 86 857 C95 857 107 847 114 840 C137 776 146 699 150 622 L33 615 L33 616 C-4 577 38 598 151 595 C154 527 155 462 159 405 C120 390 87 360 64 325 L93 325 C110 348 131 365 158 376 C157 353 161 332 161 309 C161 252 159 -86 80 -86 C43 -86 30 -10 30 17 C30 52 42 84 62 111 L41 124 C20 92 6 53 6 14 C6 -52 37 -131 114 -131 C276 -131 255 165 263 317 C264 346 259 370 264 385 C315 385 363 375 412 375 L410 218 C410 89 394 -251 590 -251 C735 -251 736 -9 744 92 L721 91 C717 36 707 -203 631 -203 C515 -203 516 62 516 139 C516 224 517 308 520 393 C560 404 597 428 613 467 L586 467 C574 443 547 425 522 418 L521 470 C521 511 522 553 524 595 C641 595 642 600 642 608 C642 616 631 618 525 621 C529 702 533 783 536 864 C517 876 495 885 472 885 C456 885 438 881 423 874 L416 621 C372 621 323 622 260 622 C252 762 227 912 126 912 C60 912 26 837 26 780 C26 751 36 726 56 703 L71 714 Z M412 398 C363 399 314 407 265 410 C262 446 264 518 261 595 L415 595 L412 398 Z " />
<glyph glyph-name="hbar" unicode="&#x127;" horiz-adv-x="461" d="M322 594 C346 599 345 605 330 609 L330 622 C327 626 299 629 260 630 C299 690 331 748 351 812 C359 839 366 872 366 903 C366 955 347 997 282 1000 C138 1003 63 818 28 633 C-16 633 -49 632 -70 632 L-90 632 L-91 611 C-88 606 -37 603 23 603 C6 507 -1 417 -2 357 C-2 345 -3 319 -3 286 C-3 196 5 59 49 59 C94 59 96 119 96 163 C96 174 96 185 97 193 C105 240 160 421 222 437 C249 441 249 409 248 376 C247 336 243 286 239 237 C234 180 229 118 229 67 C229 -30 250 -99 316 -78 C391 -49 476 220 500 301 L477 302 C469 259 376 -19 337 -19 C328 -19 322 4 325 64 C326 124 330 168 337 213 C344 257 347 303 350 368 C353 418 327 484 274 487 C181 490 122 354 93 269 C90 284 92 279 93 287 C94 327 96 382 103 421 C104 426 121 447 144 476 C171 511 206 552 241 603 C250 603 262 602 269 602 C288 601 309 601 322 600 L322 594 Z M291 727 C278 700 260 670 233 631 C197 631 162 633 127 633 C153 784 205 970 305 970 C325 966 334 951 338 934 C342 921 344 907 344 893 C344 833 316 775 291 727 L291 727 Z M214 603 L210 597 C181 557 145 511 104 463 C107 494 110 535 121 603 L214 603 Z " />
<glyph glyph-name="Itilde" unicode="&#x128;" horiz-adv-x="388" d="M116 751 C100 765 92 783 92 805 C92 832 114 898 148 901 C192 861 197 530 197 453 C197 360 196 -198 87 -198 C42 -198 36 -89 36 -58 C36 -21 42 11 61 43 L45 50 C21 34 13 -25 13 -52 C13 -127 22 -237 121 -237 C321 -237 319 286 319 418 C319 522 338 955 190 955 C121 955 67 867 67 805 C67 780 75 759 90 740 L116 751 Z M94 1103 C109 1103 129 1093 150 1080 C183 1061 220 1041 259 1041 C288 1041 325 1063 325 1096 C325 1104 319 1134 303 1134 C296 1125 298 1123 301 1120 L304 1117 L303 1117 C304 1113 305 1111 305 1110 C305 1087 284 1077 265 1077 C240 1077 214 1092 189 1107 C162 1122 136 1137 113 1137 C90 1137 61 1116 61 1091 L62 1071 C77 1071 75 1077 78 1085 C81 1093 83 1103 94 1103 L94 1103 Z " />
<glyph glyph-name="itilde" unicode="&#x129;" horiz-adv-x="232" d="M14 319 C13 308 13 295 13 284 C13 166 44 55 121 52 C133 51 153 60 168 71 C220 110 272 192 303 308 L278 308 C267 247 203 112 173 112 C124 115 118 245 118 314 C118 330 119 344 119 351 C120 368 121 381 124 397 C127 412 127 425 128 440 C128 460 123 476 98 477 C19 480 14 388 14 332 L14 319 Z M6 617 C21 617 41 607 62 594 C95 575 132 555 171 555 C200 555 237 577 237 610 C237 618 231 648 215 648 C208 639 210 637 213 634 L216 631 L215 631 C216 627 217 625 217 624 C217 601 196 591 177 591 C152 591 126 606 101 621 C74 636 48 651 25 651 C2 651 -27 630 -27 605 L-26 585 C-11 585 -13 591 -10 599 C-7 607 -5 617 6 617 L6 617 Z " />
<glyph glyph-name="Imacron" unicode="&#x12a;" horiz-adv-x="388" d="M116 751 C100 765 92 783 92 805 C92 832 114 898 148 901 C192 861 197 530 197 453 C197 360 196 -198 87 -198 C42 -198 36 -89 36 -58 C36 -21 42 11 61 43 L45 50 C21 34 13 -25 13 -52 C13 -127 22 -237 121 -237 C321 -237 319 286 319 418 C319 522 338 955 190 955 C121 955 67 867 67 805 C67 780 75 759 90 740 L116 751 Z M68 983 C77 984 103 986 178 986 C375 986 372 987 372 1003 C372 1020 361 1018 176 1021 L82 1021 L77 1012 L77 1013 C65 1001 66 996 74 989 C74 986 72 984 68 983 L68 983 Z " />
<glyph glyph-name="imacron" unicode="&#x12b;" horiz-adv-x="232" d="M14 319 C13 308 13 295 13 284 C13 166 44 55 121 52 C133 51 153 60 168 71 C220 110 272 192 303 308 L278 308 C267 247 203 112 173 112 C124 115 118 245 118 314 C118 330 119 344 119 351 C120 368 121 381 124 397 C127 412 127 425 128 440 C128 460 123 476 98 477 C19 480 14 388 14 332 L14 319 Z M-33 556 C-24 557 2 559 77 559 C274 559 271 560 271 576 C271 593 260 591 75 594 L-19 594 L-24 585 L-24 586 C-36 574 -35 569 -27 562 C-27 559 -29 557 -33 556 L-33 556 Z " />
<glyph glyph-name="Ibreve" unicode="&#x12c;" horiz-adv-x="388" d="M116 751 C100 765 92 783 92 805 C92 832 114 898 148 901 C192 861 197 530 197 453 C197 360 196 -198 87 -198 C42 -198 36 -89 36 -58 C36 -21 42 11 61 43 L45 50 C21 34 13 -25 13 -52 C13 -127 22 -237 121 -237 C321 -237 319 286 319 418 C319 522 338 955 190 955 C121 955 67 867 67 805 C67 780 75 759 90 740 L116 751 Z M98 1077 C98 1030 139 1000 183 1000 C236 1000 289 1020 289 1083 C289 1096 281 1140 261 1140 L253 1138 C253 1126 256 1121 260 1114 C263 1107 267 1103 267 1094 C267 1062 223 1051 197 1051 C169 1051 124 1067 124 1103 C124 1106 126 1112 129 1117 L128 1117 C131 1122 133 1127 133 1132 C133 1135 129 1140 126 1140 C106 1140 98 1089 98 1077 L98 1077 Z " />
<glyph glyph-name="ibreve" unicode="&#x12d;" horiz-adv-x="232" d="M14 319 C13 308 13 295 13 284 C13 166 44 55 121 52 C133 51 153 60 168 71 C220 110 272 192 303 308 L278 308 C267 247 203 112 173 112 C124 115 118 245 118 314 C118 330 119 344 119 351 C120 368 121 381 124 397 C127 412 127 425 128 440 C128 460 123 476 98 477 C19 480 14 388 14 332 L14 319 Z M-10 650 C-10 603 31 573 75 573 C128 573 181 593 181 656 C181 669 173 713 153 713 L145 711 C145 699 148 694 152 687 C155 680 159 676 159 667 C159 635 115 624 89 624 C61 624 16 640 16 676 C16 679 18 685 21 690 L20 690 C23 695 25 700 25 705 C25 708 21 713 18 713 C-2 713 -10 662 -10 650 L-10 650 Z " />
<glyph glyph-name="Iogonek" unicode="&#x12e;" horiz-adv-x="388" d="M116 751 C100 765 92 783 92 805 C92 832 114 898 148 901 C192 861 197 530 197 453 C197 360 196 -198 87 -198 C42 -198 36 -89 36 -58 C36 -21 42 11 61 43 L45 50 C21 34 13 -25 13 -52 C13 -127 22 -237 121 -237 C321 -237 319 286 319 418 C319 522 338 955 190 955 C121 955 67 867 67 805 C67 780 75 759 90 740 L116 751 Z M110 -206 C107 -227 112 -248 116 -265 C116 -266 117 -267 117 -270 C122 -293 127 -315 127 -330 C127 -346 120 -356 104 -352 C69 -341 58 -320 51 -305 L46 -295 L44 -278 L36 -286 C23 -277 14 -287 22 -306 L25 -311 C28 -314 29 -315 30 -318 L30 -317 C39 -336 56 -364 99 -377 C138 -388 154 -372 162 -345 C165 -334 166 -319 166 -302 C166 -291 165 -281 165 -270 C164 -255 163 -239 166 -222 L110 -206 Z " />
<glyph glyph-name="iogonek" unicode="&#x12f;" horiz-adv-x="232" d="M281 301 C266 262 246 215 231 184 C212 145 190 112 173 112 C119 112 118 278 118 314 C118 357 128 397 128 440 C128 460 121 477 98 477 C3 477 13 352 13 284 C13 219 27 36 121 36 C173 36 219 106 254 178 C270 211 291 262 306 302 L281 301 Z M33 605 C33 574 55 551 86 551 C125 551 143 580 143 616 C143 647 119 671 88 671 C49 671 33 640 33 605 L33 605 Z M107 84 C104 63 109 42 113 25 C113 24 114 23 114 20 C119 -3 124 -25 124 -40 C124 -56 117 -66 101 -62 C66 -51 55 -30 48 -15 L43 -5 L41 12 L33 4 C20 13 11 3 19 -16 L22 -21 C25 -24 26 -25 27 -28 L27 -27 C36 -46 53 -74 96 -87 C135 -98 151 -82 159 -55 C162 -44 163 -29 163 -12 C163 -1 162 9 162 20 C161 35 160 51 163 68 L107 84 Z " />
<glyph glyph-name="Idotaccent" unicode="&#x130;" horiz-adv-x="388" d="M116 751 C100 765 92 783 92 805 C92 832 114 898 148 901 C192 861 197 530 197 453 C197 360 196 -198 87 -198 C42 -198 36 -89 36 -58 C36 -21 42 11 61 43 L45 50 C21 34 13 -25 13 -52 C13 -127 22 -237 121 -237 C321 -237 319 286 319 418 C319 522 338 955 190 955 C121 955 67 867 67 805 C67 780 75 759 90 740 L116 751 Z M147 1036 C146 1011 160 990 191 989 C226 988 237 1014 240 1041 C241 1062 221 1085 196 1085 C164 1086 148 1067 147 1036 L147 1036 Z " />
<glyph glyph-name="dotlessi" unicode="&#x131;" horiz-adv-x="232" d="M14 319 C13 308 13 295 13 284 C13 166 44 55 121 52 C133 51 153 60 168 71 C220 110 272 192 303 308 L278 308 C267 247 203 112 173 112 C124 115 118 245 118 314 C118 330 119 344 119 351 C120 368 121 381 124 397 C127 412 127 425 128 440 C128 460 123 476 98 477 C19 480 14 388 14 332 L14 319 Z " />
<glyph glyph-name="IJ" unicode="&#x132;" horiz-adv-x="911" d="M116 751 C100 765 92 783 92 805 C92 832 114 898 148 901 C192 861 197 530 197 453 C197 360 196 -198 87 -198 C42 -198 36 -89 36 -58 C36 -21 42 11 61 43 L45 50 C21 34 13 -25 13 -52 C13 -127 22 -237 121 -237 C321 -237 319 286 319 418 C319 522 338 955 190 955 C121 955 67 867 67 805 C67 780 75 759 90 740 L116 751 Z M513 321 C445 340 420 396 420 461 C420 623 530 728 627 841 C658 692 670 529 670 377 C670 309 667 242 654 175 C547 87 436 -65 436 -209 C436 -264 458 -335 525 -335 C725 -335 766 53 782 197 C841 218 913 240 937 305 L909 311 C906 268 821 239 786 228 L787 318 C787 426 794 922 657 934 C562 770 395 681 395 463 C395 383 428 320 508 296 L513 321 Z M493 -283 C464 -283 460 -227 460 -207 C460 -80 557 58 650 138 C638 71 569 -283 493 -283 L493 -283 Z " />
<glyph glyph-name="ij" unicode="&#x133;" horiz-adv-x="492" d="M281 301 C266 262 246 215 231 184 C212 145 190 112 173 112 C119 112 118 278 118 314 C118 357 128 397 128 440 C128 460 121 477 98 477 C3 477 13 352 13 284 C13 219 27 36 121 36 C173 36 219 106 254 178 C270 211 291 262 306 302 L281 301 Z M33 605 C33 574 55 551 86 551 C125 551 143 580 143 616 C143 647 119 671 88 671 C49 671 33 640 33 605 L33 605 Z M572 300 C534 244 468 150 398 104 L394 478 C394 530 330 516 307 493 C262 440 275 297 275 235 C276 175 283 126 283 75 C283 64 283 59 280 47 C109 -95 32 -322 32 -441 C32 -496 30 -616 142 -616 C295 -616 398 -386 398 73 L435 102 C509 165 603 300 592 300 L572 300 Z M56 -442 C56 -330 128 -121 280 10 C259 -231 239 -496 136 -559 C60 -611 56 -486 56 -442 L56 -442 Z M284 676 C276 640 294 614 331 605 C372 597 392 625 400 662 C403 689 384 722 353 725 C313 733 291 713 284 676 L284 676 Z " />
<glyph glyph-name="Jcircumflex" unicode="&#x134;" horiz-adv-x="523" d="M125 321 C57 340 32 396 32 461 C32 623 142 728 239 841 C270 692 282 529 282 377 C282 309 279 242 266 175 C159 87 48 -65 48 -209 C48 -264 70 -335 137 -335 C337 -335 378 53 394 197 C453 218 525 240 549 305 L521 311 C518 268 433 239 398 228 L399 318 C399 426 406 922 269 934 C174 770 7 681 7 463 C7 383 40 320 120 296 L125 321 Z M105 -283 C76 -283 72 -227 72 -207 C72 -80 169 58 262 138 C250 71 181 -283 105 -283 L105 -283 Z M77 982 C77 953 96 946 123 945 L271 1114 L342 1032 L421 942 L444 960 L258 1186 C238 1186 77 1000 77 982 L77 982 Z " />
<glyph glyph-name="jcircumflex" unicode="&#x135;" horiz-adv-x="260" d="M340 300 C302 244 236 150 166 104 L162 478 C162 506 146 515 126 515 C107 515 86 504 75 493 C46 462 42 384 42 319 C42 300 43 284 43 269 L43 235 C43 199 44 169 47 140 C50 117 51 95 51 75 C51 65 50 54 48 42 C-123 -100 -200 -322 -200 -441 C-200 -496 -202 -616 -90 -616 C63 -616 166 -383 166 36 L166 75 L203 102 C277 165 365 300 354 300 L340 300 Z M-177 -442 C-177 -329 -104 -119 48 12 L45 -21 C26 -229 7 -495 -96 -559 C-109 -568 -120 -572 -130 -572 C-172 -572 -177 -485 -177 -442 L-177 -442 Z M-59 652 C-59 623 -40 616 -13 615 L135 784 L206 702 L285 612 L308 630 L122 856 C102 856 -59 671 -59 652 L-59 652 Z " />
<glyph glyph-name="Kcommaaccent" unicode="&#x136;" horiz-adv-x="512" d="M68 728 C39 748 7 777 7 816 C7 851 38 880 71 880 C103 880 123 831 134 772 C145 703 147 621 147 594 L144 456 L144 458 C57 297 16 175 16 55 C16 16 31 -32 78 -32 C219 -32 229 334 233 433 C333 401 324 190 345 8 C361 -140 397 -269 521 -269 C616 -269 657 -121 657 -46 C657 -31 656 -3 648 12 L629 8 C636 -8 634 -23 634 -40 C634 -85 610 -221 549 -221 C455 -221 462 -7 438 189 C417 341 378 481 249 494 C301 562 470 825 552 825 C571 828 567 797 559 776 L579 774 C594 817 584 849 547 849 C460 849 299 596 243 528 C247 561 249 594 249 628 C249 719 231 913 104 913 C48 913 -14 880 -14 819 C-14 770 19 730 59 706 L68 728 Z M49 7 C38 16 39 44 39 59 C39 183 83 294 143 401 C139 350 106 15 49 7 L49 7 Z M525 -378 C525 -354 519 -318 482 -318 C439 -318 427 -353 427 -371 C427 -389 440 -421 469 -421 C472 -421 475 -421 479 -420 C480 -420 481 -419 482 -419 L489 -416 C485 -437 462 -455 446 -467 C433 -475 441 -492 457 -482 C482 -468 525 -431 525 -378 L525 -378 Z " />
<glyph glyph-name="kcommaaccent" unicode="&#x137;" horiz-adv-x="477" d="M112 360 C117 369 135 391 159 422 C232 519 376 709 381 867 C381 921 346 971 292 974 C87 978 30 575 14 357 C6 216 5 184 5 160 C5 78 17 55 43 55 C90 55 100 89 100 162 C100 181 118 226 145 277 C195 269 212 178 228 92 C244 0 261 -90 320 -90 C335 -90 356 -78 372 -58 C424 10 479 165 525 305 L497 304 C476 225 412 63 377 -2 C341 -64 334 26 331 52 C318 126 306 225 246 260 C327 265 393 326 417 386 C436 434 409 507 352 507 C244 507 164 357 105 245 C109 285 105 323 112 360 L112 360 Z M357 867 C357 843 351 779 304 684 C269 616 210 523 118 410 C130 541 175 929 313 941 C348 933 357 895 357 867 L357 867 Z M306 468 C323 468 333 449 333 425 C333 378 296 311 213 295 L152 289 C200 372 265 468 306 468 L306 468 Z M385 -190 C385 -166 379 -130 342 -130 C299 -130 287 -165 287 -183 C287 -201 300 -233 329 -233 C332 -233 335 -233 339 -232 C340 -232 341 -231 342 -231 L349 -228 C345 -249 322 -267 306 -279 C293 -287 301 -304 317 -294 C342 -280 385 -243 385 -190 L385 -190 Z " />
<glyph glyph-name="kgreenlandic" unicode="&#x138;" horiz-adv-x="477" d="M112 360 C117 369 135 391 159 422 C232 519 376 709 381 867 C381 921 346 971 292 974 C87 978 30 575 14 357 C6 216 5 184 5 160 C5 78 17 55 43 55 C90 55 100 89 100 162 C100 181 118 226 145 277 C195 269 212 178 228 92 C244 0 261 -90 320 -90 C335 -90 356 -78 372 -58 C424 10 479 165 525 305 L497 304 C476 225 412 63 377 -2 C341 -64 334 26 331 52 C318 126 306 225 246 260 C327 265 393 326 417 386 C436 434 409 507 352 507 C244 507 164 357 105 245 C109 285 105 323 112 360 L112 360 Z M357 867 C357 843 351 779 304 684 C269 616 210 523 118 410 C130 541 175 929 313 941 C348 933 357 895 357 867 L357 867 Z M306 468 C323 468 333 449 333 425 C333 378 296 311 213 295 L152 289 C200 372 265 468 306 468 L306 468 Z " />
<glyph glyph-name="Lacute" unicode="&#x139;" horiz-adv-x="363" d="M111 698 C84 718 60 748 60 784 C60 853 142 866 168 805 C186 763 189 699 189 666 C189 449 167 201 106 -7 L92 -5 C40 -5 8 -61 8 -106 C8 -143 49 -158 80 -158 C128 -158 163 -117 184 -77 C267 -160 359 -258 485 -258 C562 -258 638 -204 675 -137 L656 -129 C621 -188 554 -236 485 -236 C363 -236 278 -131 198 -54 C251 59 300 532 300 669 C300 749 236 887 143 887 C87 887 37 841 37 785 C37 742 65 703 100 678 L111 698 Z M40 -117 C32 -117 29 -108 29 -96 C29 -71 53 -26 83 -26 C89 -26 94 -27 97 -30 C89 -46 62 -117 40 -117 L40 -117 Z M221 1121 C251 1145 213 1151 191 1143 C143 1122 89 1026 78 983 C71 962 75 952 94 971 C110 987 173 1076 221 1121 L221 1121 Z " />
<glyph glyph-name="lacute" unicode="&#x13a;" horiz-adv-x="347" d="M246 30 C141 30 119 376 119 451 C250 568 343 716 343 897 C343 941 335 990 280 990 C70 990 15 539 15 385 C15 273 52 -26 207 -26 C341 -26 357 210 384 304 L361 305 C341 249 322 30 246 30 L246 30 Z M321 898 C321 786 278 672 209 580 C182 545 151 511 118 484 C126 565 197 950 304 950 C323 950 321 910 321 898 L321 898 Z M322 1208 C352 1232 314 1238 292 1230 C244 1209 190 1113 179 1070 C172 1049 176 1039 195 1058 C211 1074 274 1163 322 1208 L322 1208 Z " />
<glyph glyph-name="Lcommaaccent" unicode="&#x13b;" horiz-adv-x="363" d="M111 698 C84 718 60 748 60 784 C60 853 142 866 168 805 C186 763 189 699 189 666 C189 449 167 201 106 -7 L92 -5 C40 -5 8 -61 8 -106 C8 -143 49 -158 80 -158 C128 -158 163 -117 184 -77 C267 -160 359 -258 485 -258 C562 -258 638 -204 675 -137 L656 -129 C621 -188 554 -236 485 -236 C363 -236 278 -131 198 -54 C251 59 300 532 300 669 C300 749 236 887 143 887 C87 887 37 841 37 785 C37 742 65 703 100 678 L111 698 Z M40 -117 C32 -117 29 -108 29 -96 C29 -71 53 -26 83 -26 C89 -26 94 -27 97 -30 C89 -46 62 -117 40 -117 L40 -117 Z M239 -306 C239 -282 233 -246 196 -246 C153 -246 141 -281 141 -299 C141 -317 154 -349 183 -349 C186 -349 189 -349 193 -348 C194 -348 195 -347 196 -347 L203 -344 C199 -365 176 -383 160 -395 C147 -403 155 -420 171 -410 C196 -396 239 -359 239 -306 L239 -306 Z " />
<glyph glyph-name="lcommaaccent" unicode="&#x13c;" horiz-adv-x="347" d="M246 30 C141 30 119 376 119 451 C250 568 343 716 343 897 C343 941 335 990 280 990 C70 990 15 539 15 385 C15 273 52 -26 207 -26 C341 -26 357 210 384 304 L361 305 C341 249 322 30 246 30 L246 30 Z M321 898 C321 786 278 672 209 580 C182 545 151 511 118 484 C126 565 197 950 304 950 C323 950 321 910 321 898 L321 898 Z M261 -108 C261 -84 255 -48 218 -48 C175 -48 163 -83 163 -101 C163 -119 176 -151 205 -151 C208 -151 211 -151 215 -150 C216 -150 217 -149 218 -149 L225 -146 C221 -167 198 -185 182 -197 C169 -205 177 -222 193 -212 C218 -198 261 -161 261 -108 L261 -108 Z " />
<glyph glyph-name="Lcaron" unicode="&#x13d;" horiz-adv-x="363" d="M111 698 C84 718 60 748 60 784 C60 853 142 866 168 805 C186 763 189 699 189 666 C189 449 167 201 106 -7 L92 -5 C40 -5 8 -61 8 -106 C8 -143 49 -158 80 -158 C128 -158 163 -117 184 -77 C267 -160 359 -258 485 -258 C562 -258 638 -204 675 -137 L656 -129 C621 -188 554 -236 485 -236 C363 -236 278 -131 198 -54 C251 59 300 532 300 669 C300 749 236 887 143 887 C87 887 37 841 37 785 C37 742 65 703 100 678 L111 698 Z M40 -117 C32 -117 29 -108 29 -96 C29 -71 53 -26 83 -26 C89 -26 94 -27 97 -30 C89 -46 62 -117 40 -117 L40 -117 Z M230 1022 C230 1046 224 1083 186 1083 C146 1083 131 1047 131 1029 C131 1012 145 979 174 979 C175 979 179 979 183 980 C184 980 185 981 186 981 L193 984 C189 963 167 946 151 934 C138 923 147 908 162 918 C185 933 230 969 230 1022 L230 1022 Z " />
<glyph glyph-name="lcaron" unicode="&#x13e;" horiz-adv-x="529" d="M246 30 C141 30 119 376 119 451 C250 568 343 716 343 897 C343 941 335 990 280 990 C70 990 15 539 15 385 C15 273 52 -26 207 -26 C341 -26 357 210 384 304 L361 305 C341 249 322 30 246 30 L246 30 Z M321 898 C321 786 278 672 209 580 C182 545 151 511 118 484 C126 565 197 950 304 950 C323 950 321 910 321 898 L321 898 Z M477 878 C477 902 471 939 433 939 C393 939 378 903 378 885 C378 868 392 835 421 835 C422 835 426 835 430 836 C431 836 432 837 433 837 L440 840 C436 819 414 802 398 790 C385 779 394 764 409 774 C432 789 477 825 477 878 L477 878 Z " />
<glyph glyph-name="Ldot" unicode="&#x13f;" horiz-adv-x="363" d="M111 698 C84 718 60 748 60 784 C60 853 142 866 168 805 C186 763 189 699 189 666 C189 449 167 201 106 -7 L92 -5 C40 -5 8 -61 8 -106 C8 -143 49 -158 80 -158 C128 -158 163 -117 184 -77 C267 -160 359 -258 485 -258 C562 -258 638 -204 675 -137 L656 -129 C621 -188 554 -236 485 -236 C363 -236 278 -131 198 -54 C251 59 300 532 300 669 C300 749 236 887 143 887 C87 887 37 841 37 785 C37 742 65 703 100 678 L111 698 Z M40 -117 C32 -117 29 -108 29 -96 C29 -71 53 -26 83 -26 C89 -26 94 -27 97 -30 C89 -46 62 -117 40 -117 L40 -117 Z M374 301 C373 274 387 254 418 253 C453 252 464 278 467 306 C468 326 448 349 423 349 C391 352 375 332 374 301 L374 301 Z " />
<glyph glyph-name="ldot" unicode="&#x140;" horiz-adv-x="514" d="M246 30 C141 30 119 376 119 451 C250 568 343 716 343 897 C343 941 335 990 280 990 C70 990 15 539 15 385 C15 273 52 -26 207 -26 C341 -26 357 210 384 304 L361 305 C341 249 322 30 246 30 L246 30 Z M321 898 C321 786 278 672 209 580 C182 545 151 511 118 484 C126 565 197 950 304 950 C323 950 321 910 321 898 L321 898 Z M289 414 C288 387 302 367 333 366 C368 365 379 391 382 419 C383 439 363 462 338 462 C306 465 290 445 289 414 L289 414 Z " />
<glyph glyph-name="Lslash" unicode="&#x141;" horiz-adv-x="363" d="M395 359 C354 359 314 359 277 358 C290 471 297 577 300 657 C303 749 235 887 143 887 C120 887 95 878 68 857 C48 838 37 812 37 785 C37 772 39 760 43 749 C54 724 75 697 100 678 L112 697 C77 724 60 753 60 784 C60 800 65 814 76 827 L76 826 C92 842 107 850 122 850 C135 850 146 843 155 830 C186 786 192 686 189 647 C186 559 181 457 170 357 C135 357 107 356 83 356 C56 356 35 355 28 355 L27 325 C30 322 85 320 165 320 C150 199 133 85 106 -7 C91 -3 63 -3 40 -28 C25 -43 10 -67 10 -106 C10 -143 48 -158 80 -158 C93 -158 108 -154 119 -149 C147 -133 169 -104 184 -77 L227 -119 C304 -191 376 -258 485 -258 C572 -258 645 -188 675 -137 L656 -129 C631 -173 563 -236 485 -236 C387 -236 309 -164 243 -98 C227 -83 213 -67 198 -54 C207 -35 213 -11 221 20 C242 100 259 209 274 321 L396 323 L395 359 Z M91 -43 C54 -136 32 -119 32 -108 C32 -93 35 -79 42 -64 L41 -64 C56 -36 80 -19 97 -30 L91 -43 Z " />
<glyph glyph-name="lslash" unicode="&#x142;" horiz-adv-x="347" d="M263 360 C214 359 163 359 120 359 C117 378 118 394 118 410 L118 451 L161 491 C182 514 208 543 233 576 C256 607 276 640 293 675 C300 692 312 722 319 745 C324 762 331 784 334 803 C337 826 343 861 343 897 C343 908 342 918 341 927 C338 950 332 967 320 976 C309 985 295 990 280 990 C238 990 182 953 157 928 C53 800 14 525 14 385 L14 358 C-13 358 -33 357 -52 357 C-75 357 -95 356 -102 356 L-103 326 C-100 323 -52 322 16 322 C27 185 75 -20 204 -20 C290 -20 327 75 351 163 C356 182 360 200 364 219 C367 234 370 251 374 266 L377 278 C378 285 381 295 384 304 L360 305 L356 291 C353 286 353 279 352 272 L346 243 C327 155 302 30 246 30 C179 30 140 195 124 323 L264 325 L263 360 Z M311 948 C318 948 320 923 320 898 C320 878 319 860 318 852 C315 821 308 791 300 760 C289 719 263 665 244 631 C226 603 206 576 184 550 C173 537 155 519 144 507 L125 489 L117 483 C133 631 203 948 311 948 L311 948 Z " />
<glyph glyph-name="Nacute" unicode="&#x143;" horiz-adv-x="625" d="M35 677 C0 693 -23 724 -16 756 C-8 797 24 835 56 835 C71 835 88 820 96 789 C107 744 108 674 121 328 C94 253 71 175 60 118 C57 99 54 71 54 40 C54 -5 65 -51 86 -70 C101 -81 114 -85 129 -85 C149 -85 171 -72 182 -55 C209 -9 216 83 216 125 C216 168 216 227 215 270 C214 325 213 379 213 434 C213 458 213 482 214 506 L214 505 C238 603 329 730 389 730 C422 730 447 689 447 578 C447 503 445 430 442 357 C439 284 437 211 437 138 C437 62 441 -8 450 -80 C463 -157 512 -261 588 -277 C686 -290 740 -152 740 -53 C740 -22 734 6 723 30 L703 16 C710 5 714 -14 714 -40 C714 -100 693 -193 654 -232 C609 -264 571 -170 555 -73 C546 -16 544 43 544 83 C544 102 545 116 545 124 L545 131 C545 215 550 299 555 384 C560 468 564 553 564 637 C564 713 531 777 438 777 C333 777 248 652 208 564 L208 570 C208 723 186 831 129 862 C116 869 102 873 87 873 C23 873 -41 806 -41 745 C-41 732 -36 714 -29 701 C-20 686 -3 672 21 658 L35 677 Z M75 52 C75 111 93 170 116 243 C112 159 117 75 97 6 C88 -21 84 -30 77 2 C74 17 75 37 75 52 L75 52 Z M352 1064 C382 1088 344 1094 322 1086 C274 1065 220 969 209 926 C202 905 206 895 225 914 C241 930 304 1019 352 1064 L352 1064 Z " />
<glyph glyph-name="nacute" unicode="&#x144;" horiz-adv-x="486" d="M525 306 C432 118 397 47 392 74 C388 205 401 325 401 448 C401 531 386 618 301 618 C234 618 219 583 160 383 C152 355 145 325 116 232 L115 379 C115 447 110 468 46 468 C-2 468 6 226 6 201 C6 127 11 104 42 96 C59 93 86 95 101 118 C135 198 167 312 191 394 C214 478 234 541 246 541 C277 541 282 487 282 412 C282 336 271 264 271 191 C271 82 286 -23 353 -23 C365 -23 381 -10 396 9 C422 48 465 127 550 305 L525 306 Z M283 832 C313 856 275 862 253 854 C205 833 151 737 140 694 C133 673 137 663 156 682 C172 698 235 787 283 832 L283 832 Z " />
<glyph glyph-name="Ncommaaccent" unicode="&#x145;" horiz-adv-x="625" d="M35 677 C0 693 -23 724 -16 756 C-8 797 24 835 56 835 C71 835 88 820 96 789 C107 744 108 674 121 328 C94 253 71 175 60 118 C57 99 54 71 54 40 C54 -5 65 -51 86 -70 C101 -81 114 -85 129 -85 C149 -85 171 -72 182 -55 C209 -9 216 83 216 125 C216 168 216 227 215 270 C214 325 213 379 213 434 C213 458 213 482 214 506 L214 505 C238 603 329 730 389 730 C422 730 447 689 447 578 C447 503 445 430 442 357 C439 284 437 211 437 138 C437 62 441 -8 450 -80 C463 -157 512 -261 588 -277 C686 -290 740 -152 740 -53 C740 -22 734 6 723 30 L703 16 C710 5 714 -14 714 -40 C714 -100 693 -193 654 -232 C609 -264 571 -170 555 -73 C546 -16 544 43 544 83 C544 102 545 116 545 124 L545 131 C545 215 550 299 555 384 C560 468 564 553 564 637 C564 713 531 777 438 777 C333 777 248 652 208 564 L208 570 C208 723 186 831 129 862 C116 869 102 873 87 873 C23 873 -41 806 -41 745 C-41 732 -36 714 -29 701 C-20 686 -3 672 21 658 L35 677 Z M75 52 C75 111 93 170 116 243 C112 159 117 75 97 6 C88 -21 84 -30 77 2 C74 17 75 37 75 52 L75 52 Z M650 -385 C650 -361 644 -325 607 -325 C564 -325 552 -360 552 -378 C552 -396 565 -428 594 -428 C597 -428 600 -428 604 -427 C605 -427 606 -426 607 -426 L614 -423 C610 -444 587 -462 571 -474 C558 -482 566 -499 582 -489 C607 -475 650 -438 650 -385 L650 -385 Z " />
<glyph glyph-name="ncommaaccent" unicode="&#x146;" horiz-adv-x="486" d="M525 306 C432 118 397 47 392 74 C388 205 401 325 401 448 C401 531 386 618 301 618 C234 618 219 583 160 383 C152 355 145 325 116 232 L115 379 C115 447 110 468 46 468 C-2 468 6 226 6 201 C6 127 11 104 42 96 C59 93 86 95 101 118 C135 198 167 312 191 394 C214 478 234 541 246 541 C277 541 282 487 282 412 C282 336 271 264 271 191 C271 82 286 -23 353 -23 C365 -23 381 -10 396 9 C422 48 465 127 550 305 L525 306 Z M400 -121 C400 -97 394 -61 357 -61 C314 -61 302 -96 302 -114 C302 -132 315 -164 344 -164 C347 -164 350 -164 354 -163 C355 -163 356 -162 357 -162 L364 -159 C360 -180 337 -198 321 -210 C308 -218 316 -235 332 -225 C357 -211 400 -174 400 -121 L400 -121 Z " />
<glyph glyph-name="Ncaron" unicode="&#x147;" horiz-adv-x="625" d="M35 677 C0 693 -23 724 -16 756 C-8 797 24 835 56 835 C71 835 88 820 96 789 C107 744 108 674 121 328 C94 253 71 175 60 118 C57 99 54 71 54 40 C54 -5 65 -51 86 -70 C101 -81 114 -85 129 -85 C149 -85 171 -72 182 -55 C209 -9 216 83 216 125 C216 168 216 227 215 270 C214 325 213 379 213 434 C213 458 213 482 214 506 L214 505 C238 603 329 730 389 730 C422 730 447 689 447 578 C447 503 445 430 442 357 C439 284 437 211 437 138 C437 62 441 -8 450 -80 C463 -157 512 -261 588 -277 C686 -290 740 -152 740 -53 C740 -22 734 6 723 30 L703 16 C710 5 714 -14 714 -40 C714 -100 693 -193 654 -232 C609 -264 571 -170 555 -73 C546 -16 544 43 544 83 C544 102 545 116 545 124 L545 131 C545 215 550 299 555 384 C560 468 564 553 564 637 C564 713 531 777 438 777 C333 777 248 652 208 564 L208 570 C208 723 186 831 129 862 C116 869 102 873 87 873 C23 873 -41 806 -41 745 C-41 732 -36 714 -29 701 C-20 686 -3 672 21 658 L35 677 Z M75 52 C75 111 93 170 116 243 C112 159 117 75 97 6 C88 -21 84 -30 77 2 C74 17 75 37 75 52 L75 52 Z M128 1093 C128 1076 289 889 309 889 L495 1115 L473 1131 L393 1043 L322 961 L174 1130 C147 1129 128 1122 128 1093 L128 1093 Z " />
<glyph glyph-name="ncaron" unicode="&#x148;" horiz-adv-x="486" d="M525 306 C432 118 397 47 392 74 C388 205 401 325 401 448 C401 531 386 618 301 618 C234 618 219 583 160 383 C152 355 145 325 116 232 L115 379 C115 447 110 468 46 468 C-2 468 6 226 6 201 C6 127 11 104 42 96 C59 93 86 95 101 118 C135 198 167 312 191 394 C214 478 234 541 246 541 C277 541 282 487 282 412 C282 336 271 264 271 191 C271 82 286 -23 353 -23 C365 -23 381 -10 396 9 C422 48 465 127 550 305 L525 306 Z M59 860 C59 843 220 656 240 656 L426 882 L404 898 L324 810 L253 728 L105 897 C78 896 59 889 59 860 L59 860 Z " />
<glyph glyph-name="napostrophe" unicode="&#x149;" horiz-adv-x="486" d="M525 306 C432 118 397 47 392 74 C388 205 401 325 401 448 C401 531 386 618 301 618 C234 618 219 583 160 383 C152 355 145 325 116 232 L115 379 C115 447 110 468 46 468 C-2 468 6 226 6 201 C6 127 11 104 42 96 C59 93 86 95 101 118 C135 198 167 312 191 394 C214 478 234 541 246 541 C277 541 282 487 282 412 C282 336 271 264 271 191 C271 82 286 -23 353 -23 C365 -23 381 -10 396 9 C422 48 465 127 550 305 L525 306 Z M35 730 C35 754 29 790 -8 790 C-51 790 -63 755 -63 737 C-63 719 -50 687 -21 687 C-18 687 -15 687 -11 688 C-10 688 -9 689 -8 689 L-1 692 C-5 671 -28 653 -44 641 C-57 633 -49 616 -33 626 C-8 640 35 677 35 730 L35 730 Z " />
<glyph glyph-name="Omacron" unicode="&#x14c;" horiz-adv-x="833" d="M4 171 C15 -25 118 -245 326 -248 C397 -241 459 -204 503 -155 C591 -43 634 147 658 274 C673 271 688 270 705 271 C744 275 783 300 812 329 L834 355 L846 372 C841 372 832 372 825 375 L819 375 C795 335 747 300 702 297 C687 296 674 296 659 299 C662 343 665 382 665 425 C665 444 664 460 663 479 C658 567 637 675 608 758 C578 826 526 906 452 903 C424 900 400 891 383 878 C367 885 348 889 325 889 C48 889 1 450 1 253 C1 221 2 194 4 171 L4 171 Z M344 764 C351 689 364 619 392 551 L399 535 C423 475 461 420 506 373 C541 334 583 304 628 277 C605 121 529 -190 355 -210 C216 -210 172 68 164 188 C164 195 163 202 163 209 C162 224 161 236 161 249 C161 439 188 667 343 780 C343 772 343 774 344 765 L344 764 Z M478 742 C467 801 448 841 409 865 C419 872 433 875 451 876 C578 880 626 603 638 467 C639 448 640 429 640 410 C640 375 637 340 633 304 L597 328 C456 426 383 596 372 757 C371 768 370 783 371 794 C388 801 398 804 401 804 C426 804 446 786 455 742 L478 742 Z M290 983 C299 984 325 986 400 986 C597 986 594 987 594 1003 C594 1020 583 1018 398 1021 L304 1021 L299 1012 L299 1013 C287 1001 288 996 296 989 C296 986 294 984 290 983 L290 983 Z " />
<glyph glyph-name="omacron" unicode="&#x14d;" horiz-adv-x="373" d="M332 325 C332 396 306 551 210 551 C141 551 137 476 142 423 C136 443 110 489 86 489 C34 489 6 331 6 290 C6 192 11 42 143 42 C234 42 287 157 317 227 C373 227 416 265 445 305 L422 306 C397 275 367 251 324 251 C329 276 332 298 332 325 L332 325 Z M293 231 C277 191 230 88 178 88 C126 88 121 219 121 254 C121 309 129 358 145 409 L145 410 C167 327 216 268 293 231 L293 231 Z M164 451 C164 486 167 527 211 527 C287 527 309 384 309 328 C309 304 309 277 301 254 C224 283 164 367 164 451 L164 451 Z M27 648 C36 649 62 651 137 651 C334 651 331 652 331 668 C331 685 320 683 135 686 L41 686 L36 677 L36 678 C24 666 25 661 33 654 C33 651 31 649 27 648 L27 648 Z " />
<glyph glyph-name="Obreve" unicode="&#x14e;" horiz-adv-x="833" d="M4 171 C15 -25 118 -245 326 -248 C397 -241 459 -204 503 -155 C591 -43 634 147 658 274 C673 271 688 270 705 271 C744 275 783 300 812 329 L834 355 L846 372 C841 372 832 372 825 375 L819 375 C795 335 747 300 702 297 C687 296 674 296 659 299 C662 343 665 382 665 425 C665 444 664 460 663 479 C658 567 637 675 608 758 C578 826 526 906 452 903 C424 900 400 891 383 878 C367 885 348 889 325 889 C48 889 1 450 1 253 C1 221 2 194 4 171 L4 171 Z M344 764 C351 689 364 619 392 551 L399 535 C423 475 461 420 506 373 C541 334 583 304 628 277 C605 121 529 -190 355 -210 C216 -210 172 68 164 188 C164 195 163 202 163 209 C162 224 161 236 161 249 C161 439 188 667 343 780 C343 772 343 774 344 765 L344 764 Z M478 742 C467 801 448 841 409 865 C419 872 433 875 451 876 C578 880 626 603 638 467 C639 448 640 429 640 410 C640 375 637 340 633 304 L597 328 C456 426 383 596 372 757 C371 768 370 783 371 794 C388 801 398 804 401 804 C426 804 446 786 455 742 L478 742 Z M320 1046 C320 999 361 969 405 969 C458 969 511 989 511 1052 C511 1065 503 1109 483 1109 L475 1107 C475 1095 478 1090 482 1083 C485 1076 489 1072 489 1063 C489 1031 445 1020 419 1020 C391 1020 346 1036 346 1072 C346 1075 348 1081 351 1086 L350 1086 C353 1091 355 1096 355 1101 C355 1104 351 1109 348 1109 C328 1109 320 1058 320 1046 L320 1046 Z " />
<glyph glyph-name="obreve" unicode="&#x14f;" horiz-adv-x="373" d="M332 325 C332 396 306 551 210 551 C141 551 137 476 142 423 C136 443 110 489 86 489 C34 489 6 331 6 290 C6 192 11 42 143 42 C234 42 287 157 317 227 C373 227 416 265 445 305 L422 306 C397 275 367 251 324 251 C329 276 332 298 332 325 L332 325 Z M293 231 C277 191 230 88 178 88 C126 88 121 219 121 254 C121 309 129 358 145 409 L145 410 C167 327 216 268 293 231 L293 231 Z M164 451 C164 486 167 527 211 527 C287 527 309 384 309 328 C309 304 309 277 301 254 C224 283 164 367 164 451 L164 451 Z M93 688 C93 641 134 611 178 611 C231 611 284 631 284 694 C284 707 276 751 256 751 L248 749 C248 737 251 732 255 725 C258 718 262 714 262 705 C262 673 218 662 192 662 C164 662 119 678 119 714 C119 717 121 723 124 728 L123 728 C126 733 128 738 128 743 C128 746 124 751 121 751 C101 751 93 700 93 688 L93 688 Z " />
<glyph glyph-name="Ohungarumlaut" unicode="&#x150;" horiz-adv-x="833" d="M4 171 C15 -25 118 -245 326 -248 C397 -241 459 -204 503 -155 C591 -43 634 147 658 274 C673 271 688 270 705 271 C744 275 783 300 812 329 L834 355 L846 372 C841 372 832 372 825 375 L819 375 C795 335 747 300 702 297 C687 296 674 296 659 299 C662 343 665 382 665 425 C665 444 664 460 663 479 C658 567 637 675 608 758 C578 826 526 906 452 903 C424 900 400 891 383 878 C367 885 348 889 325 889 C48 889 1 450 1 253 C1 221 2 194 4 171 L4 171 Z M344 764 C351 689 364 619 392 551 L399 535 C423 475 461 420 506 373 C541 334 583 304 628 277 C605 121 529 -190 355 -210 C216 -210 172 68 164 188 C164 195 163 202 163 209 C162 224 161 236 161 249 C161 439 188 667 343 780 C343 772 343 774 344 765 L344 764 Z M478 742 C467 801 448 841 409 865 C419 872 433 875 451 876 C578 880 626 603 638 467 C639 448 640 429 640 410 C640 375 637 340 633 304 L597 328 C456 426 383 596 372 757 C371 768 370 783 371 794 C388 801 398 804 401 804 C426 804 446 786 455 742 L478 742 Z M530 1065 C530 1089 524 1126 487 1126 C447 1126 432 1090 432 1072 C432 1055 446 1022 474 1022 C477 1022 480 1022 484 1023 C485 1023 486 1024 487 1024 L494 1027 C490 1006 467 989 451 977 C439 967 447 951 462 961 C487 978 530 1011 530 1065 L530 1065 Z M399 1065 C399 1089 393 1126 356 1126 C313 1126 301 1090 301 1072 C301 1055 314 1022 343 1022 C346 1022 349 1022 353 1023 C354 1023 355 1024 356 1024 L363 1027 C359 1006 336 989 320 977 C307 966 316 951 331 961 C356 978 399 1011 399 1065 L399 1065 Z " />
<glyph glyph-name="ohungarumlaut" unicode="&#x151;" horiz-adv-x="373" d="M332 325 C332 396 306 551 210 551 C141 551 137 476 142 423 C136 443 110 489 86 489 C34 489 6 331 6 290 C6 192 11 42 143 42 C234 42 287 157 317 227 C373 227 416 265 445 305 L422 306 C397 275 367 251 324 251 C329 276 332 298 332 325 L332 325 Z M293 231 C277 191 230 88 178 88 C126 88 121 219 121 254 C121 309 129 358 145 409 L145 410 C167 327 216 268 293 231 L293 231 Z M164 451 C164 486 167 527 211 527 C287 527 309 384 309 328 C309 304 309 277 301 254 C224 283 164 367 164 451 L164 451 Z M293 730 C293 754 287 791 250 791 C210 791 195 755 195 737 C195 720 209 687 237 687 C240 687 243 687 247 688 C248 688 249 689 250 689 L257 692 C253 671 230 654 214 642 C202 632 210 616 225 626 C250 643 293 676 293 730 L293 730 Z M162 730 C162 754 156 791 119 791 C76 791 64 755 64 737 C64 720 77 687 106 687 C109 687 112 687 116 688 C117 688 118 689 119 689 L126 692 C122 671 99 654 83 642 C70 631 79 616 94 626 C119 643 162 676 162 730 L162 730 Z " />
<glyph glyph-name="OE" unicode="&#x152;" horiz-adv-x="1445" d="M1319 792 C1319 883 1252 950 1164 950 C1052 950 955 868 910 770 C881 837 829 913 757 910 C729 907 705 898 688 885 C672 892 653 896 630 896 C353 896 306 456 306 260 C306 231 306 200 309 177 C325 -15 426 -239 631 -242 C702 -234 765 -197 808 -148 C827 -123 842 -99 859 -64 C900 -164 981 -232 1113 -232 C1350 -232 1452 118 1500 310 C1499 310 1492 311 1489 311 C1487 312 1483 312 1476 312 C1444 187 1360 -140 1202 -140 C1062 -140 1005 45 1005 158 C1005 294 1081 418 1204 479 L1203 490 C1188 487 1157 481 1144 481 C1057 481 1017 559 1017 638 C1017 738 1122 885 1234 885 C1284 885 1297 835 1297 794 C1293 737 1263 709 1226 709 C1205 709 1183 718 1158 736 L1144 718 C1177 694 1205 687 1232 688 C1279 691 1312 727 1319 792 L1319 792 Z M649 771 C656 696 669 626 698 558 L704 542 C728 482 767 427 811 380 C836 351 865 325 896 306 C854 244 833 170 833 83 C833 42 837 5 846 -30 C806 -117 741 -192 660 -203 C521 -203 477 75 469 195 C469 202 468 209 468 216 C467 231 466 243 466 256 C466 446 493 674 648 787 C648 779 648 781 649 772 L649 771 Z M783 749 C772 806 753 848 714 872 C724 877 738 881 756 883 C823 886 867 817 896 732 C888 707 885 681 885 656 C885 600 906 551 939 515 L943 477 C944 454 944 436 944 417 C944 398 944 383 943 364 C935 355 922 342 911 327 L902 335 C765 435 688 603 677 764 C676 775 675 790 676 801 C691 806 701 810 706 810 C731 810 751 793 760 749 L783 749 Z M968 487 C968 488 967 489 967 490 C997 467 1034 455 1077 455 C1037 435 1000 413 969 386 C970 405 969 411 969 430 C969 449 969 467 968 486 L968 487 Z " />
<glyph glyph-name="oe" unicode="&#x153;" horiz-adv-x="607" d="M468 558 C415 558 364 526 325 475 C314 558 278 649 207 649 C154 649 137 610 137 547 C137 539 138 530 139 521 C131 550 102 587 83 587 C72 587 63 583 56 574 C25 519 3 452 3 388 C3 269 16 140 140 140 C185 140 226 166 265 229 C283 131 346 55 434 55 C524 55 580 125 619 191 C646 235 666 278 677 305 L653 306 C642 279 623 236 596 197 C569 156 539 119 510 104 C500 99 490 97 479 97 C410 97 369 218 369 274 L369 277 C369 294 369 318 378 330 L378 329 L381 329 C382 329 384 330 388 331 C425 339 477 353 517 380 C556 405 583 441 580 486 C575 531 517 558 468 558 L468 558 Z M175 186 C136 186 118 264 118 352 C118 403 126 462 142 507 L142 508 C157 451 186 404 227 369 C238 359 251 350 266 341 C263 322 261 302 261 282 L261 268 C238 225 206 186 175 186 L175 186 Z M161 549 C161 606 176 625 208 625 C268 625 300 528 305 446 C290 421 279 395 272 364 C259 372 246 380 235 391 C190 432 161 493 161 549 L161 549 Z M503 520 C523 520 558 510 558 477 C558 398 428 355 383 355 C376 355 392 389 399 404 L398 404 C401 409 402 412 402 413 C423 455 463 520 503 520 L503 520 Z " />
<glyph glyph-name="Racute" unicode="&#x154;" horiz-adv-x="701" d="M108 884 C77 877 45 859 25 832 C10 813 6 792 9 769 C13 741 38 715 67 692 L77 701 C76 702 76 704 76 705 L76 710 C53 729 35 749 31 772 C27 792 34 811 53 830 C68 845 84 852 99 852 C182 852 206 612 210 531 C155 409 90 187 90 43 C90 -33 117 -81 180 -80 C300 -77 336 132 336 330 C336 361 337 391 334 422 C547 353 456 -266 702 -266 C815 -266 879 -174 914 18 L888 7 C872 -83 840 -188 760 -188 C656 -188 625 -22 596 130 L587 175 C558 310 550 383 412 444 C523 508 645 614 645 751 C645 825 600 893 518 893 C418 893 362 789 319 709 L299 674 C270 785 215 900 108 884 L108 884 Z M328 680 C360 747 413 851 476 835 C520 823 537 793 537 752 C537 640 402 463 332 444 C327 524 318 592 307 639 C314 650 319 665 328 680 L328 680 Z M146 -47 C119 -35 112 -4 112 45 C112 151 161 351 211 483 C212 460 214 455 215 435 C216 414 217 379 217 336 C217 183 203 -75 146 -47 L146 -47 Z M390 1062 C420 1086 382 1092 360 1084 C312 1063 258 967 247 924 C240 903 244 893 263 912 C279 928 342 1017 390 1062 L390 1062 Z " />
<glyph glyph-name="racute" unicode="&#x155;" horiz-adv-x="361" d="M272 25 C201 33 281 337 281 381 C281 406 264 433 245 445 C209 464 175 452 139 460 C160 507 174 553 177 604 C177 617 171 667 133 670 C78 673 56 621 56 571 C56 540 64 506 83 478 C90 467 100 457 109 449 L48 292 L71 292 C111 401 116 407 129 439 C144 435 161 433 170 433 C174 433 176 432 177 429 C178 426 175 418 172 410 L171 408 C160 363 138 250 138 161 C138 69 157 -26 225 -37 C277 -45 328 37 363 110 L398 179 L450 299 L429 306 C373 183 304 27 274 24 L272 25 Z M80 573 C80 612 95 647 132 644 C148 643 154 626 154 603 C154 576 149 548 139 518 C132 498 126 481 119 469 C91 498 80 536 80 573 L80 573 Z M261 882 C291 906 253 912 231 904 C183 883 129 787 118 744 C111 723 115 713 134 732 C150 748 213 837 261 882 L261 882 Z " />
<glyph glyph-name="Rcommaaccent" unicode="&#x156;" horiz-adv-x="701" d="M108 884 C77 877 45 859 25 832 C10 813 6 792 9 769 C13 741 38 715 67 692 L77 701 C76 702 76 704 76 705 L76 710 C53 729 35 749 31 772 C27 792 34 811 53 830 C68 845 84 852 99 852 C182 852 206 612 210 531 C155 409 90 187 90 43 C90 -33 117 -81 180 -80 C300 -77 336 132 336 330 C336 361 337 391 334 422 C547 353 456 -266 702 -266 C815 -266 879 -174 914 18 L888 7 C872 -83 840 -188 760 -188 C656 -188 625 -22 596 130 L587 175 C558 310 550 383 412 444 C523 508 645 614 645 751 C645 825 600 893 518 893 C418 893 362 789 319 709 L299 674 C270 785 215 900 108 884 L108 884 Z M328 680 C360 747 413 851 476 835 C520 823 537 793 537 752 C537 640 402 463 332 444 C327 524 318 592 307 639 C314 650 319 665 328 680 L328 680 Z M146 -47 C119 -35 112 -4 112 45 C112 151 161 351 211 483 C212 460 214 455 215 435 C216 414 217 379 217 336 C217 183 203 -75 146 -47 L146 -47 Z M747 -362 C747 -338 741 -302 704 -302 C661 -302 649 -337 649 -355 C649 -373 662 -405 691 -405 C694 -405 697 -405 701 -404 C702 -404 703 -403 704 -403 L711 -400 C707 -421 684 -439 668 -451 C655 -459 663 -476 679 -466 C704 -452 747 -415 747 -362 L747 -362 Z " />
<glyph glyph-name="Rcaron" unicode="&#x158;" horiz-adv-x="701" d="M108 884 C77 877 45 859 25 832 C10 813 6 792 9 769 C13 741 38 715 67 692 L77 701 C76 702 76 704 76 705 L76 710 C53 729 35 749 31 772 C27 792 34 811 53 830 C68 845 84 852 99 852 C182 852 206 612 210 531 C155 409 90 187 90 43 C90 -33 117 -81 180 -80 C300 -77 336 132 336 330 C336 361 337 391 334 422 C547 353 456 -266 702 -266 C815 -266 879 -174 914 18 L888 7 C872 -83 840 -188 760 -188 C656 -188 625 -22 596 130 L587 175 C558 310 550 383 412 444 C523 508 645 614 645 751 C645 825 600 893 518 893 C418 893 362 789 319 709 L299 674 C270 785 215 900 108 884 L108 884 Z M328 680 C360 747 413 851 476 835 C520 823 537 793 537 752 C537 640 402 463 332 444 C327 524 318 592 307 639 C314 650 319 665 328 680 L328 680 Z M146 -47 C119 -35 112 -4 112 45 C112 151 161 351 211 483 C212 460 214 455 215 435 C216 414 217 379 217 336 C217 183 203 -75 146 -47 L146 -47 Z M166 1096 C166 1079 327 892 347 892 L533 1118 L511 1134 L431 1046 L360 964 L212 1133 C185 1132 166 1125 166 1096 L166 1096 Z " />
<glyph glyph-name="rcaron" unicode="&#x159;" horiz-adv-x="361" d="M272 25 C201 33 281 337 281 381 C281 406 264 433 245 445 C209 464 175 452 139 460 C160 507 174 553 177 604 C177 617 171 667 133 670 C78 673 56 621 56 571 C56 540 64 506 83 478 C90 467 100 457 109 449 L48 292 L71 292 C111 401 116 407 129 439 C144 435 161 433 170 433 C174 433 176 432 177 429 C178 426 175 418 172 410 L171 408 C160 363 138 250 138 161 C138 69 157 -26 225 -37 C277 -45 328 37 363 110 L398 179 L450 299 L429 306 C373 183 304 27 274 24 L272 25 Z M80 573 C80 612 95 647 132 644 C148 643 154 626 154 603 C154 576 149 548 139 518 C132 498 126 481 119 469 C91 498 80 536 80 573 L80 573 Z M-3 896 C-3 879 158 692 178 692 L364 918 L342 934 L262 846 L191 764 L43 933 C16 932 -3 925 -3 896 L-3 896 Z " />
<glyph glyph-name="Sacute" unicode="&#x15a;" horiz-adv-x="633" d="M551 772 C551 747 543 720 532 701 C517 679 499 668 478 668 C455 668 431 683 406 706 L394 682 C419 658 450 643 479 643 C504 643 532 659 553 687 C565 706 573 732 577 773 C575 884 517 943 403 948 C286 953 185 891 147 762 C142 741 140 720 140 699 C140 596 197 502 258 407 C319 309 389 198 389 75 C389 55 388 36 384 13 C372 -55 346 -122 298 -162 C262 -189 222 -205 190 -205 C100 -205 30 -109 30 1 C30 78 70 166 158 166 C189 166 199 158 216 127 L242 141 C231 148 233 148 230 151 C222 166 203 191 159 191 C59 191 3 95 3 4 C3 -156 100 -254 257 -254 C402 -254 488 -188 528 -88 C547 -37 555 12 555 61 C555 261 421 442 331 599 C312 638 300 677 300 713 C300 809 374 880 488 875 C541 875 551 814 551 772 L551 772 Z M356 1170 C386 1194 348 1200 326 1192 C278 1171 224 1075 213 1032 C206 1011 210 1001 229 1020 C245 1036 308 1125 356 1170 L356 1170 Z " />
<glyph glyph-name="sacute" unicode="&#x15b;" horiz-adv-x="343" d="M332 304 C309 265 284 224 244 201 C196 273 82 428 82 512 C82 541 95 573 128 573 C194 573 211 511 195 460 L214 459 C218 471 220 495 220 507 C220 573 161 610 99 610 C40 610 -20 552 -20 491 C-20 406 84 237 121 152 C94 125 59 98 59 55 C59 -5 91 -59 156 -59 C238 -59 274 7 274 82 C274 116 268 148 256 178 C300 207 334 258 357 305 L332 304 Z M82 51 C82 78 108 118 134 128 C149 101 157 73 157 43 C157 22 149 -19 121 -19 C89 -19 82 27 82 51 L82 51 Z M172 825 C202 849 164 855 142 847 C94 826 40 730 29 687 C22 666 26 656 45 675 C61 691 124 780 172 825 L172 825 Z " />
<glyph glyph-name="Scircumflex" unicode="&#x15c;" horiz-adv-x="633" d="M551 772 C551 747 543 720 532 701 C517 679 499 668 478 668 C455 668 431 683 406 706 L394 682 C419 658 450 643 479 643 C504 643 532 659 553 687 C565 706 573 732 577 773 C575 884 517 943 403 948 C286 953 185 891 147 762 C142 741 140 720 140 699 C140 596 197 502 258 407 C319 309 389 198 389 75 C389 55 388 36 384 13 C372 -55 346 -122 298 -162 C262 -189 222 -205 190 -205 C100 -205 30 -109 30 1 C30 78 70 166 158 166 C189 166 199 158 216 127 L242 141 C231 148 233 148 230 151 C222 166 203 191 159 191 C59 191 3 95 3 4 C3 -156 100 -254 257 -254 C402 -254 488 -188 528 -88 C547 -37 555 12 555 61 C555 261 421 442 331 599 C312 638 300 677 300 713 C300 809 374 880 488 875 C541 875 551 814 551 772 L551 772 Z M181 998 C181 969 200 962 227 961 L375 1130 L446 1048 L525 958 L548 976 L362 1202 C342 1202 181 1016 181 998 L181 998 Z " />
<glyph glyph-name="scircumflex" unicode="&#x15d;" horiz-adv-x="343" d="M332 304 C309 265 284 224 244 201 C196 273 82 428 82 512 C82 541 95 573 128 573 C194 573 211 511 195 460 L214 459 C218 471 220 495 220 507 C220 573 161 610 99 610 C40 610 -20 552 -20 491 C-20 406 84 237 121 152 C94 125 59 98 59 55 C59 -5 91 -59 156 -59 C238 -59 274 7 274 82 C274 116 268 148 256 178 C300 207 334 258 357 305 L332 304 Z M82 51 C82 78 108 118 134 128 C149 101 157 73 157 43 C157 22 149 -19 121 -19 C89 -19 82 27 82 51 L82 51 Z M-71 700 C-71 671 -52 664 -25 663 L123 832 L194 750 L273 660 L296 678 L110 904 C90 904 -71 718 -71 700 L-71 700 Z " />
<glyph glyph-name="Scedilla" unicode="&#x15e;" horiz-adv-x="633" d="M551 772 C551 747 543 720 532 701 C517 679 499 668 478 668 C455 668 431 683 406 706 L394 682 C419 658 450 643 479 643 C504 643 532 659 553 687 C565 706 573 732 577 773 C575 884 517 943 403 948 C286 953 185 891 147 762 C142 741 140 720 140 699 C140 596 197 502 258 407 C319 309 389 198 389 75 C389 55 388 36 384 13 C372 -55 346 -122 298 -162 C262 -189 222 -205 190 -205 C100 -205 30 -109 30 1 C30 78 70 166 158 166 C189 166 199 158 216 127 L242 141 C231 148 233 148 230 151 C222 166 203 191 159 191 C59 191 3 95 3 4 C3 -156 100 -254 257 -254 C402 -254 488 -188 528 -88 C547 -37 555 12 555 61 C555 261 421 442 331 599 C312 638 300 677 300 713 C300 809 374 880 488 875 C541 875 551 814 551 772 L551 772 Z M287 -223 C290 -238 301 -258 310 -275 L313 -281 C326 -306 340 -332 340 -349 C340 -359 334 -364 322 -364 C272 -364 250 -333 240 -318 L238 -303 L230 -311 C217 -302 207 -311 215 -328 C228 -344 267 -389 323 -389 C363 -389 375 -369 375 -342 C375 -323 369 -299 362 -278 L359 -268 C352 -253 348 -238 347 -223 L287 -223 Z " />
</font>
</svg>
